SplineFontDB: 2.0
FontName: THFahkwang-BoldItalic
FullName: THFahkwang-BoldItalic
FamilyName: TH Fah kwang
Weight: Bold
Copyright: Copyright (c) 2006 by Department of Intellectual Property (DIP), Ministry of Commerce and Software Industry Promotion Agency (Public Organization) (SIPA). All rights reserved.
Version: 1.1
ItalicAngle: -10
UnderlinePosition: -35
UnderlineWidth: 30
Ascent: 800
Descent: 200
Order2: 1
XUID: [1021 375 425136265 4198066]
FSType: 0
OS2Version: 3
OS2_WeightWidthSlopeOnly: 0
OS2_UseTypoMetrics: 1
CreationTime: 1158373020
ModificationTime: 1196263625
PfmFamily: 17
TTFWeight: 700
TTFWidth: 5
LineGap: 60
VLineGap: 0
Panose: 2 0 5 6 0 0 0 2 0 4
OS2TypoAscent: 0
OS2TypoAOffset: 1
OS2TypoDescent: 0
OS2TypoDOffset: 1
OS2TypoLinegap: 0
OS2WinAscent: -5
OS2WinAOffset: 1
OS2WinDescent: -231
OS2WinDOffset: 1
HheadAscent: -5
HheadAOffset: 1
HheadDescent: 231
HheadDOffset: 1
OS2SubXSize: 700
OS2SubYSize: 650
OS2SubXOff: 0
OS2SubYOff: 140
OS2SupXSize: 700
OS2SupYSize: 650
OS2SupXOff: 0
OS2SupYOff: 477
OS2StrikeYSize: 30
OS2StrikeYPos: 250
OS2FamilyClass: 773
OS2Vendor: 'ipth'
Lookup: 4 0 0 "'frac' Diagonal Fractions in Latin lookup 0"  {"'frac' Diagonal Fractions in Latin lookup 0 subtable"  } ['frac' ('latn' <'dflt' > ) ]
Lookup: 6 0 0 "'liga' Standard Ligatures in Latin lookup 1"  {"'liga' Standard Ligatures in Latin lookup 1 subtable"  } ['liga' ('latn' <'dflt' > ) ]
Lookup: 6 0 0 "'liga' Standard Ligatures in Latin lookup 2"  {"'liga' Standard Ligatures in Latin lookup 2 subtable"  } ['liga' ('latn' <'dflt' > ) ]
Lookup: 6 0 0 "'liga' Standard Ligatures in Latin lookup 3"  {"'liga' Standard Ligatures in Latin lookup 3 subtable"  } ['liga' ('latn' <'dflt' > ) ]
Lookup: 6 0 0 "'liga' Standard Ligatures in Latin lookup 4"  {"'liga' Standard Ligatures in Latin lookup 4 subtable"  } ['liga' ('latn' <'dflt' > ) ]
Lookup: 6 0 0 "'liga' Standard Ligatures in Latin lookup 5"  {"'liga' Standard Ligatures in Latin lookup 5 subtable"  } ['liga' ('latn' <'dflt' > ) ]

StartChar: .notdef
Encoding: 65536 -1 0
Width: 576
VWidth: 1533
Flags: W
HStem: 2 56<120 471> 724 59<239 589>
Fore
0 2 m 1,0,-1
 138 783 l 1,1,-1
 714 783 l 1,2,-1
 576 2 l 1,3,-1
 0 2 l 1,0,-1
589 724 m 1,4,-1
 239 724 l 1,5,-1
 366 458 l 1,6,-1
 589 724 l 1,4,-1
311 389 m 1,7,-1
 187 649 l 1,8,-1
 97 133 l 1,9,-1
 311 389 l 1,7,-1
120 58 m 1,10,-1
 471 58 l 1,11,-1
 343 324 l 1,12,-1
 120 58 l 1,10,-1
397 389 m 1,13,-1
 524 129 l 1,14,-1
 616 650 l 1,15,-1
 397 389 l 1,13,-1
EndSplineSet
EndChar
StartChar: numbersign
Encoding: 35 35 4
Width: 772
VWidth: 1533
Flags: W
HStem: 0 21G<195 291.507 397 495.316> 209 65<150 261 376 463 578 676> 412 68<218 328 442 532 644 742>
Fore
622 412 m 1,0,-1
 578 274 l 1,1,-1
 688 274 l 1,2,-1
 676 209 l 1,3,-1
 555 209 l 1,4,-1
 489 0 l 1,5,-1
 397 0 l 1,6,-1
 463 209 l 1,7,-1
 353 209 l 1,8,-1
 285 0 l 1,9,-1
 195 0 l 1,10,-1
 261 209 l 1,11,-1
 138 209 l 1,12,-1
 150 274 l 1,13,-1
 284 274 l 1,14,-1
 328 412 l 1,15,-1
 205 412 l 1,16,-1
 218 480 l 1,17,-1
 350 480 l 1,18,-1
 415 687 l 1,19,-1
 507 687 l 1,20,-1
 442 480 l 1,21,-1
 552 480 l 1,22,-1
 619 687 l 1,23,-1
 710 687 l 1,24,-1
 644 480 l 1,25,-1
 754 480 l 1,26,-1
 742 412 l 1,27,-1
 622 412 l 1,0,-1
420 412 m 1,28,-1
 376 274 l 1,29,-1
 486 274 l 1,30,-1
 532 412 l 1,31,-1
 420 412 l 1,28,-1
EndSplineSet
EndChar
StartChar: dollar
Encoding: 36 36 5
Width: 778
VWidth: 1533
Flags: W
HStem: 18 59<315.004 368 446 473 473 524.913> 616 60<461.164 484 561 600.582>
VStem: 661 126<491 567.816>
Fore
744 224 m 0,0,1
 734 170 734 170 703.5 133.5 c 128,-1,2
 673 97 673 97 631 72.5 c 128,-1,3
 589 48 589 48 540.5 35.5 c 128,-1,4
 492 23 492 23 446 18 c 1,5,-1
 428 -83 l 1,6,-1
 351 -83 l 1,7,-1
 368 17 l 1,8,9
 319 20 319 20 272 34 c 128,-1,10
 225 48 225 48 188.5 75.5 c 128,-1,11
 152 103 152 103 131 143.5 c 128,-1,12
 110 184 110 184 115 239 c 1,13,-1
 248 239 l 1,14,15
 239 169 239 169 283 123 c 128,-1,16
 327 77 327 77 411 77 c 0,17,18
 440 77 440 77 473 83 c 128,-1,19
 506 89 506 89 535 103.5 c 128,-1,20
 564 118 564 118 586.5 142 c 128,-1,21
 609 166 609 166 615 202 c 128,-1,22
 621 238 621 238 589.5 258.5 c 128,-1,23
 558 279 558 279 509 294.5 c 128,-1,24
 460 310 460 310 401 323 c 128,-1,25
 342 336 342 336 293.5 356 c 128,-1,26
 245 376 245 376 216 408 c 128,-1,27
 187 440 187 440 196 494 c 0,28,29
 205 543 205 543 236 576.5 c 128,-1,30
 267 610 267 610 309 631.5 c 128,-1,31
 351 653 351 653 398 663 c 128,-1,32
 445 673 445 673 484 676 c 1,33,-1
 501 771 l 1,34,-1
 578 771 l 1,35,-1
 561 675 l 1,36,37
 650 665 650 665 709 621.5 c 128,-1,38
 768 578 768 578 787 491 c 1,39,-1
 661 491 l 1,40,41
 653 546 653 546 618 581 c 128,-1,42
 583 616 583 616 504 616 c 0,43,44
 480 616 480 616 451.5 611 c 128,-1,45
 423 606 423 606 396.5 594.5 c 128,-1,46
 370 583 370 583 350.5 562 c 128,-1,47
 331 541 331 541 325 512 c 0,48,49
 320 483 320 483 351.5 466 c 128,-1,50
 383 449 383 449 433 436 c 128,-1,51
 483 423 483 423 541 409.5 c 128,-1,52
 599 396 599 396 647.5 373.5 c 128,-1,53
 696 351 696 351 724.5 316 c 128,-1,54
 753 281 753 281 744 224 c 0,0,1
EndSplineSet
EndChar
StartChar: percent
Encoding: 37 37 6
Width: 841
VWidth: 1533
Flags: W
HStem: -2 57<586.426 687.801> 282 55<229.511 329.69> 351 55<632.608 732.083> 633 57<274.227 375.02>
Fore
839 202 m 0,0,1
 831 161 831 161 811 124 c 128,-1,2
 791 87 791 87 762 59.5 c 128,-1,3
 733 32 733 32 697 15 c 128,-1,4
 661 -2 661 -2 622 -2 c 128,-1,5
 583 -2 583 -2 553 15 c 128,-1,6
 523 32 523 32 503.5 59.5 c 128,-1,7
 484 87 484 87 477.5 124 c 128,-1,8
 471 161 471 161 478 202 c 0,9,10
 484 244 484 244 505 280.5 c 128,-1,11
 526 317 526 317 554.5 345 c 128,-1,12
 583 373 583 373 619 389.5 c 128,-1,13
 655 406 655 406 695 406 c 0,14,15
 733 406 733 406 763 389.5 c 128,-1,16
 793 373 793 373 812 345 c 128,-1,17
 831 317 831 317 838 280.5 c 128,-1,18
 845 244 845 244 839 202 c 0,0,1
236 -17 m 1,19,-1
 146 -17 l 1,20,-1
 722 705 l 1,21,-1
 814 705 l 1,22,-1
 236 -17 l 1,19,-1
481 486 m 256,23,24
 474 445 474 445 454 408 c 128,-1,25
 434 371 434 371 405.5 343.5 c 128,-1,26
 377 316 377 316 341 299 c 128,-1,27
 305 282 305 282 267 282 c 0,28,29
 227 282 227 282 197 299 c 128,-1,30
 167 316 167 316 148 343.5 c 128,-1,31
 129 371 129 371 121 408 c 128,-1,32
 113 445 113 445 121 486 c 256,33,34
 129 527 129 527 149 564 c 128,-1,35
 169 601 169 601 198 628.5 c 128,-1,36
 227 656 227 656 263 673 c 128,-1,37
 299 690 299 690 339 690 c 0,38,39
 377 690 377 690 407 673 c 128,-1,40
 437 656 437 656 456 628.5 c 128,-1,41
 475 601 475 601 482 564 c 128,-1,42
 489 527 489 527 481 486 c 256,23,24
736 202 m 256,43,44
 751 288 751 288 737.5 319.5 c 128,-1,45
 724 351 724 351 685 351 c 0,46,47
 649 351 649 351 623.5 319.5 c 128,-1,48
 598 288 598 288 583 202 c 256,49,50
 567 117 567 117 581 86 c 128,-1,51
 595 55 595 55 633 55 c 256,52,53
 672 55 672 55 696.5 86 c 128,-1,54
 721 117 721 117 736 202 c 256,43,44
379 486 m 256,55,56
 394 572 394 572 380 602.5 c 128,-1,57
 366 633 366 633 328 633 c 0,58,59
 291 633 291 633 266 602.5 c 128,-1,60
 241 572 241 572 225 486 c 256,61,62
 210 400 210 400 224 368.5 c 128,-1,63
 238 337 238 337 276 337 c 256,64,65
 314 337 314 337 338.5 368.5 c 128,-1,66
 363 400 363 400 379 486 c 256,55,56
EndSplineSet
EndChar
StartChar: ampersand
Encoding: 38 38 7
Width: 838
VWidth: 1533
Flags: W
HStem: -21 59<323.723 463.905> 627 60<423.101 516.301>
Fore
658 -2 m 1,0,1
 641 9 641 9 625.5 22 c 128,-1,2
 610 35 610 35 584 51 c 1,3,4
 530 15 530 15 468 -3 c 128,-1,5
 406 -21 406 -21 340 -21 c 0,6,7
 291 -21 291 -21 243 -11.5 c 128,-1,8
 195 -2 195 -2 159 21 c 128,-1,9
 123 44 123 44 103.5 80.5 c 128,-1,10
 84 117 84 117 94 169 c 0,11,12
 100 207 100 207 120 237 c 128,-1,13
 140 267 140 267 166.5 290 c 128,-1,14
 193 313 193 313 225.5 330.5 c 128,-1,15
 258 348 258 348 291 363 c 1,16,17
 271 394 271 394 260.5 428.5 c 128,-1,18
 250 463 250 463 258 498 c 0,19,20
 264 537 264 537 285.5 571.5 c 128,-1,21
 307 606 307 606 337.5 632 c 128,-1,22
 368 658 368 658 408 672.5 c 128,-1,23
 448 687 448 687 492 687 c 0,24,25
 523 687 523 687 553 678.5 c 128,-1,26
 583 670 583 670 605 653 c 128,-1,27
 627 636 627 636 639.5 610 c 128,-1,28
 652 584 652 584 645 550 c 0,29,30
 639 515 639 515 621.5 488 c 128,-1,31
 604 461 604 461 578 440 c 128,-1,32
 552 419 552 419 520 401 c 128,-1,33
 488 383 488 383 454 368 c 1,34,35
 495 314 495 314 539 266.5 c 128,-1,36
 583 219 583 219 626 181 c 1,37,38
 650 221 650 221 663 264.5 c 128,-1,39
 676 308 676 308 678 371 c 1,40,-1
 810 371 l 1,41,42
 793 294 793 294 761.5 236.5 c 128,-1,43
 730 179 730 179 685 133 c 1,44,45
 721 107 721 107 763.5 69.5 c 128,-1,46
 806 32 806 32 843 -2 c 1,47,-1
 658 -2 l 1,0,1
532 541 m 0,48,49
 538 578 538 578 519 602.5 c 128,-1,50
 500 627 500 627 458 627 c 0,51,52
 442 627 442 627 427 619.5 c 128,-1,53
 412 612 412 612 400 600.5 c 128,-1,54
 388 589 388 589 380.5 576 c 128,-1,55
 373 563 373 563 371 552 c 0,56,57
 363 512 363 512 376 482 c 128,-1,58
 389 452 389 452 415 417 c 1,59,60
 461 438 461 438 492.5 466.5 c 128,-1,61
 524 495 524 495 532 541 c 0,48,49
535 94 m 1,62,63
 489 136 489 136 437 191.5 c 128,-1,64
 385 247 385 247 331 311 c 1,65,66
 290 290 290 290 264 264 c 128,-1,67
 238 238 238 238 230 199 c 0,68,69
 224 166 224 166 235.5 136.5 c 128,-1,70
 247 107 247 107 268.5 85 c 128,-1,71
 290 63 290 63 319 50.5 c 128,-1,72
 348 38 348 38 377 38 c 0,73,74
 423 38 423 38 463 55 c 128,-1,75
 503 72 503 72 535 94 c 1,62,63
EndSplineSet
EndChar
StartChar: quotesingle
Encoding: 39 39 8
Width: 259
VWidth: 1533
Flags: W
HStem: 386 351
VStem: 176 132
Fore
216 386 m 1,0,-1
 176 386 l 1,1,-1
 187 664 l 2,2,3
 187 673 187 673 191 686 c 128,-1,4
 195 699 195 699 203.5 710.5 c 128,-1,5
 212 722 212 722 225 729.5 c 128,-1,6
 238 737 238 737 258 737 c 256,7,8
 278 737 278 737 288.5 729.5 c 128,-1,9
 299 722 299 722 303.5 710.5 c 128,-1,10
 308 699 308 699 308 686 c 128,-1,11
 308 673 308 673 305 664 c 2,12,-1
 216 386 l 1,0,-1
EndSplineSet
EndChar
StartChar: parenleft
Encoding: 40 40 9
Width: 354
VWidth: 1533
Flags: W
HStem: 719 20G<313.5 426>
VStem: 89.5 336.5<124 739 124 124> 89.5 107<33.4653 255.07>
Fore
198 -224 m 1,0,1
 164 -167 164 -167 140.5 -111 c 128,-1,2
 117 -55 117 -55 103.5 3 c 128,-1,3
 90 61 90 61 89.5 124 c 128,-1,4
 89 187 89 187 101 258 c 0,5,6
 126 399 126 399 193.5 512.5 c 128,-1,7
 261 626 261 626 366 739 c 1,8,-1
 426 739 l 1,9,10
 386 685 386 685 355 637.5 c 128,-1,11
 324 590 324 590 298.5 535.5 c 128,-1,12
 273 481 273 481 253 415.5 c 128,-1,13
 233 350 233 350 218 258 c 0,14,15
 201 164 201 164 196.5 99 c 128,-1,16
 192 34 192 34 197 -18.5 c 128,-1,17
 202 -71 202 -71 217.5 -118.5 c 128,-1,18
 233 -166 233 -166 258 -224 c 1,19,-1
 198 -224 l 1,0,1
EndSplineSet
EndChar
StartChar: parenright
Encoding: 41 41 10
Width: 354
VWidth: 1533
Flags: W
HStem: 719 20G<186 278>
VStem: 17 325<-224 258 -304.522 -106.636>
Fore
342 258 m 0,0,1
 316 117 316 117 248.5 3.5 c 128,-1,2
 181 -110 181 -110 77 -224 c 1,3,-1
 17 -224 l 1,4,5
 63 -166 63 -166 95 -118.5 c 128,-1,6
 127 -71 127 -71 151 -18.5 c 128,-1,7
 175 34 175 34 192 99 c 128,-1,8
 209 164 209 164 225 258 c 0,9,10
 241 350 241 350 244.5 415.5 c 128,-1,11
 248 481 248 481 242 535.5 c 128,-1,12
 236 590 236 590 220.5 637.5 c 128,-1,13
 205 685 205 685 186 739 c 1,14,-1
 245 739 l 1,15,16
 311 626 311 626 338.5 512.5 c 128,-1,17
 366 399 366 399 342 258 c 0,0,1
EndSplineSet
EndChar
StartChar: asterisk
Encoding: 42 42 11
Width: 558
VWidth: 1533
Flags: W
HStem: 324 390<334 411 334 334>
VStem: 147 445<520 520 520 520>
Fore
415 500 m 1,0,-1
 532 394 l 1,1,-1
 411 324 l 1,2,-1
 362 474 l 1,3,-1
 261 324 l 1,4,-1
 164 394 l 1,5,-1
 317 500 l 1,6,-1
 147 520 l 1,7,-1
 210 636 l 1,8,-1
 350 557 l 1,9,-1
 334 714 l 1,10,-1
 471 714 l 1,11,-1
 399 553 l 1,12,-1
 572 636 l 1,13,-1
 592 520 l 1,14,-1
 415 500 l 1,0,-1
EndSplineSet
EndChar
StartChar: plus
Encoding: 43 43 12
Width: 719
VWidth: 1533
Flags: W
HStem: 0 21G<310 412.426> 251 80<110 353 468 710>
Fore
452 251 m 1,0,-1
 409 0 l 1,1,-1
 310 0 l 1,2,-1
 353 251 l 1,3,-1
 95 251 l 1,4,-1
 110 331 l 1,5,-1
 368 331 l 1,6,-1
 411 581 l 1,7,-1
 511 581 l 1,8,-1
 468 331 l 1,9,-1
 725 331 l 1,10,-1
 710 251 l 1,11,-1
 452 251 l 1,0,-1
EndSplineSet
EndChar
StartChar: comma
Encoding: 44 44 13
Width: 403
VWidth: 1533
Flags: W
HStem: -144 265<129 213 213 213>
VStem: 126 148<23.2555 97.7691>
Fore
274 29 m 0,0,1
 265 -20 265 -20 225.5 -70 c 128,-1,2
 186 -120 186 -120 129 -144 c 1,3,-1
 112 -115 l 1,4,5
 141 -104 141 -104 169.5 -76.5 c 128,-1,6
 198 -49 198 -49 207 -11 c 1,7,8
 187 -17 187 -17 171 -13 c 128,-1,9
 155 -9 155 -9 144 0 c 128,-1,10
 133 9 133 9 128 21.5 c 128,-1,11
 123 34 123 34 126 48 c 0,12,13
 130 74 130 74 153 97.5 c 128,-1,14
 176 121 176 121 213 121 c 0,15,16
 251 121 251 121 266.5 95 c 128,-1,17
 282 69 282 69 274 29 c 0,0,1
EndSplineSet
EndChar
StartChar: hyphen
Encoding: 45 45 14
Width: 492
VWidth: 1533
Flags: W
HStem: 261 84<83 514 83 514 83 83>
Fore
514 261 m 1,0,-1
 67 261 l 1,1,-1
 83 345 l 1,2,-1
 529 345 l 1,3,-1
 514 261 l 1,0,-1
EndSplineSet
EndChar
StartChar: period
Encoding: 46 46 15
Width: 407
VWidth: 1533
Flags: W
HStem: -12 141<172.72 254.764>
VStem: 143 141<27.9141 112.337>
Fore
284 58 m 0,0,1
 279 28 279 28 255.5 8 c 128,-1,2
 232 -12 232 -12 201 -12 c 256,3,4
 170 -12 170 -12 154 8 c 128,-1,5
 138 28 138 28 143 58 c 0,6,7
 149 89 149 89 172 109 c 128,-1,8
 195 129 195 129 225 129 c 256,9,10
 256 129 256 129 273 109 c 128,-1,11
 290 89 290 89 284 58 c 0,0,1
EndSplineSet
EndChar
StartChar: slash
Encoding: 47 47 16
Width: 361
VWidth: 1533
Flags: W
HStem: -23 21G<-26 83.6316> 717 20G<402.421 514>
Fore
72 -23 m 1,0,-1
 -26 -23 l 1,1,-1
 414 737 l 1,2,-1
 514 737 l 1,3,-1
 72 -23 l 1,0,-1
EndSplineSet
EndChar
StartChar: zero
Encoding: 48 48 17
Width: 722
VWidth: 1533
Flags: W
HStem: -11 62<289.681 454.632> 647 61<388.926 555.073>
Fore
750 350 m 0,0,1
 736 276 736 276 700.5 211 c 128,-1,2
 665 146 665 146 613 96 c 128,-1,3
 561 46 561 46 495 17.5 c 128,-1,4
 429 -11 429 -11 357 -11 c 256,5,6
 285 -11 285 -11 230 17.5 c 128,-1,7
 175 46 175 46 140.5 96 c 128,-1,8
 106 146 106 146 93 211 c 128,-1,9
 80 276 80 276 94 350 c 0,10,11
 106 423 106 423 142 488 c 128,-1,12
 178 553 178 553 230 602.5 c 128,-1,13
 282 652 282 652 347 680 c 128,-1,14
 412 708 412 708 484 708 c 256,15,16
 557 708 557 708 612 680 c 128,-1,17
 667 652 667 652 702 602.5 c 128,-1,18
 737 553 737 553 749.5 488 c 128,-1,19
 762 423 762 423 750 350 c 0,0,1
622 350 m 0,20,21
 649 503 649 503 604.5 575 c 128,-1,22
 560 647 560 647 474 647 c 0,23,24
 432 647 432 647 392.5 629.5 c 128,-1,25
 353 612 353 612 319 575 c 128,-1,26
 285 538 285 538 260.5 482 c 128,-1,27
 236 426 236 426 222 350 c 256,28,29
 209 273 209 273 214 216 c 128,-1,30
 219 159 219 159 239 122.5 c 128,-1,31
 259 86 259 86 293 68.5 c 128,-1,32
 327 51 327 51 368 51 c 0,33,34
 411 51 411 51 451 68.5 c 128,-1,35
 491 86 491 86 524.5 122.5 c 128,-1,36
 558 159 558 159 583.5 216 c 128,-1,37
 609 273 609 273 622 350 c 0,20,21
EndSplineSet
EndChar
StartChar: one
Encoding: 49 49 18
Width: 722
VWidth: 1533
Flags: W
HStem: 0 21G<308 435.536> 541 58<241 326.259> 687 20G<466.5 557>
VStem: 232 325<541 707 541 541>
Fore
308 0 m 1,0,-1
 403 541 l 1,1,-1
 232 541 l 1,2,-1
 241 599 l 1,3,4
 296 599 296 599 332 603 c 128,-1,5
 368 607 368 607 393.5 618.5 c 128,-1,6
 419 630 419 630 437 651 c 128,-1,7
 455 672 455 672 478 707 c 1,8,-1
 557 707 l 1,9,-1
 432 0 l 1,10,-1
 308 0 l 1,0,-1
EndSplineSet
EndChar
StartChar: two
Encoding: 50 50 19
Width: 722
VWidth: 1533
Flags: W
HStem: 0 97<193 667> 644 58<386.791 539.777>
Fore
41 0 m 1,0,1
 66 74 66 74 109.5 121.5 c 128,-1,2
 153 169 153 169 208.5 203.5 c 128,-1,3
 264 238 264 238 326 264 c 128,-1,4
 388 290 388 290 451 320 c 0,5,6
 478 334 478 334 504 348.5 c 128,-1,7
 530 363 530 363 551.5 382.5 c 128,-1,8
 573 402 573 402 588.5 425.5 c 128,-1,9
 604 449 604 449 610 480 c 0,10,11
 615 509 615 509 609 539 c 128,-1,12
 603 569 603 569 584.5 592 c 128,-1,13
 566 615 566 615 533.5 629.5 c 128,-1,14
 501 644 501 644 455 644 c 0,15,16
 415 644 415 644 379 631 c 128,-1,17
 343 618 343 618 313.5 593.5 c 128,-1,18
 284 569 284 569 262.5 533.5 c 128,-1,19
 241 498 241 498 233 455 c 1,20,-1
 104 455 l 1,21,22
 124 520 124 520 161.5 566 c 128,-1,23
 199 612 199 612 246.5 642.5 c 128,-1,24
 294 673 294 673 350 687.5 c 128,-1,25
 406 702 406 702 465 702 c 0,26,27
 526 702 526 702 579.5 688.5 c 128,-1,28
 633 675 633 675 670.5 647 c 128,-1,29
 708 619 708 619 726.5 577 c 128,-1,30
 745 535 745 535 736 478 c 0,31,32
 725 417 725 417 687 373.5 c 128,-1,33
 649 330 649 330 595 297.5 c 128,-1,34
 541 265 541 265 480.5 240.5 c 128,-1,35
 420 216 420 216 363.5 194 c 128,-1,36
 307 172 307 172 261 149 c 128,-1,37
 215 126 215 126 193 97 c 1,38,-1
 684 97 l 1,39,-1
 667 0 l 1,40,-1
 41 0 l 1,0,1
EndSplineSet
EndChar
StartChar: three
Encoding: 51 51 20
Width: 722
VWidth: 1533
Flags: W
HStem: -11 60<278.826 406.543> 335.5 65.5<350.539 522.746> 644 58<382.884 566.113>
VStem: 159 126<508.923 584.113>
Fore
722 209 m 0,0,1
 713 150 713 150 675.5 108.5 c 128,-1,2
 638 67 638 67 586 40.5 c 128,-1,3
 534 14 534 14 471 1.5 c 128,-1,4
 408 -11 408 -11 348 -11 c 0,5,6
 290 -11 290 -11 238.5 3.5 c 128,-1,7
 187 18 187 18 150 48 c 128,-1,8
 113 78 113 78 92.5 125 c 128,-1,9
 72 172 72 172 74 236 c 1,10,-1
 202 236 l 1,11,12
 195 192 195 192 203.5 157.5 c 128,-1,13
 212 123 212 123 233.5 99 c 128,-1,14
 255 75 255 75 287 62 c 128,-1,15
 319 49 319 49 359 49 c 0,16,17
 402 49 402 49 441.5 61.5 c 128,-1,18
 481 74 481 74 514 96 c 128,-1,19
 547 118 547 118 569.5 147 c 128,-1,20
 592 176 592 176 598 210 c 0,21,22
 604 250 604 250 584 277 c 128,-1,23
 564 304 564 304 524 319 c 128,-1,24
 484 334 484 334 429 335.5 c 128,-1,25
 374 337 374 337 313 327 c 1,26,-1
 327 405 l 1,27,28
 388 396 388 396 438.5 401 c 128,-1,29
 489 406 489 406 526 423 c 128,-1,30
 563 440 563 440 586 465.5 c 128,-1,31
 609 491 609 491 613 520 c 0,32,33
 621 566 621 566 587 605 c 128,-1,34
 553 644 553 644 469 644 c 0,35,36
 400 644 400 644 352.5 600.5 c 128,-1,37
 305 557 305 557 285 478 c 1,38,-1
 159 478 l 1,39,40
 175 535 175 535 206.5 577 c 128,-1,41
 238 619 238 619 280 647 c 128,-1,42
 322 675 322 675 373.5 688.5 c 128,-1,43
 425 702 425 702 478 702 c 0,44,45
 535 702 535 702 586.5 691.5 c 128,-1,46
 638 681 638 681 674.5 659.5 c 128,-1,47
 711 638 711 638 729.5 602.5 c 128,-1,48
 748 567 748 567 739 520 c 0,49,50
 730 466 730 466 692.5 431 c 128,-1,51
 655 396 655 396 610 376 c 1,52,53
 638 366 638 366 661 352.5 c 128,-1,54
 684 339 684 339 700 318 c 128,-1,55
 716 297 716 297 722 269.5 c 128,-1,56
 728 242 728 242 722 209 c 0,0,1
EndSplineSet
EndChar
StartChar: four
Encoding: 52 52 21
Width: 722
VWidth: 1533
Flags: W
HStem: 0 21G<388 517.432> 169 73<184 419 555 673> 687 20G<573.663 638>
Fore
673 169 m 1,0,-1
 543 169 l 1,1,-1
 514 0 l 1,2,-1
 388 0 l 1,3,-1
 419 169 l 1,4,-1
 55 169 l 1,5,-1
 32 202 l 1,6,-1
 596 707 l 1,7,-1
 638 707 l 1,8,-1
 555 242 l 1,9,-1
 725 242 l 1,10,-1
 673 169 l 1,0,-1
478 504 m 1,11,-1
 184 242 l 1,12,-1
 431 242 l 1,13,-1
 478 504 l 1,11,-1
EndSplineSet
EndChar
StartChar: five
Encoding: 53 53 22
Width: 722
VWidth: 1533
Flags: W
HStem: -11 59<274.453 428.598> 389 63<342.21 518.341> 598 97<307 722>
Fore
725 215 m 0,0,1
 714 155 714 155 676 112 c 128,-1,2
 638 69 638 69 585 42 c 128,-1,3
 532 15 532 15 470.5 2 c 128,-1,4
 409 -11 409 -11 354 -11 c 0,5,6
 296 -11 296 -11 245.5 3.5 c 128,-1,7
 195 18 195 18 157.5 48 c 128,-1,8
 120 78 120 78 98.5 124 c 128,-1,9
 77 170 77 170 78 235 c 1,10,-1
 207 235 l 1,11,12
 193 147 193 147 239 97.5 c 128,-1,13
 285 48 285 48 363 48 c 0,14,15
 406 48 406 48 446 61.5 c 128,-1,16
 486 75 486 75 516.5 98 c 128,-1,17
 547 121 547 121 568 151.5 c 128,-1,18
 589 182 589 182 595 216 c 0,19,20
 607 288 607 288 558 338.5 c 128,-1,21
 509 389 509 389 412 389 c 0,22,23
 356 389 356 389 307.5 370 c 128,-1,24
 259 351 259 351 205 320 c 1,25,-1
 150 336 l 1,26,-1
 251 695 l 1,27,-1
 774 695 l 1,28,-1
 722 598 l 1,29,-1
 307 598 l 1,30,-1
 259 423 l 1,31,32
 297 437 297 437 344.5 444.5 c 128,-1,33
 392 452 392 452 437 452 c 0,34,35
 507 452 507 452 565.5 437 c 128,-1,36
 624 422 624 422 663 392 c 128,-1,37
 702 362 702 362 719 317.5 c 128,-1,38
 736 273 736 273 725 215 c 0,0,1
EndSplineSet
EndChar
StartChar: six
Encoding: 54 54 23
Width: 722
VWidth: 1533
Flags: W
HStem: -11 63<284.719 476.494> 428 67<344.91 537.147> 639 63<401.747 577.161>
Fore
728 251 m 0,0,1
 718 190 718 190 685 141 c 128,-1,2
 652 92 652 92 602 58.5 c 128,-1,3
 552 25 552 25 491.5 7 c 128,-1,4
 431 -11 431 -11 365 -11 c 0,5,6
 291 -11 291 -11 234.5 15 c 128,-1,7
 178 41 178 41 142 87 c 128,-1,8
 106 133 106 133 92 194.5 c 128,-1,9
 78 256 78 256 90 328 c 0,10,11
 104 403 104 403 138 471.5 c 128,-1,12
 172 540 172 540 224 591 c 128,-1,13
 276 642 276 642 346.5 672 c 128,-1,14
 417 702 417 702 504 702 c 0,15,16
 552 702 552 702 595 693.5 c 128,-1,17
 638 685 638 685 672.5 664.5 c 128,-1,18
 707 644 707 644 730 610 c 128,-1,19
 753 576 753 576 759 527 c 1,20,-1
 635 527 l 1,21,22
 618 581 618 581 586.5 610 c 128,-1,23
 555 639 555 639 491 639 c 0,24,25
 442 639 442 639 400.5 617.5 c 128,-1,26
 359 596 359 596 326.5 563 c 128,-1,27
 294 530 294 530 271 489 c 128,-1,28
 248 448 248 448 238 409 c 1,29,30
 278 445 278 445 336 470 c 128,-1,31
 394 495 394 495 472 495 c 0,32,33
 537 495 537 495 588 478 c 128,-1,34
 639 461 639 461 673.5 430 c 128,-1,35
 708 399 708 399 723.5 353.5 c 128,-1,36
 739 308 739 308 728 251 c 0,0,1
595 241 m 0,37,38
 610 327 610 327 570 377.5 c 128,-1,39
 530 428 530 428 445 428 c 128,-1,40
 360 428 360 428 301 377.5 c 128,-1,41
 242 327 242 327 227 241 c 0,42,43
 212 153 212 153 251.5 102.5 c 128,-1,44
 291 52 291 52 377 52 c 0,45,46
 461 52 461 52 520.5 102.5 c 128,-1,47
 580 153 580 153 595 241 c 0,37,38
EndSplineSet
EndChar
StartChar: seven
Encoding: 55 55 24
Width: 722
VWidth: 1533
Flags: W
HStem: 0 21G<195 335> 599 96<198 670>
VStem: 195 132<21.1852 159.956>
Fore
810 695 m 1,0,1
 800 636 800 636 763.5 590 c 128,-1,2
 727 544 727 544 684 504 c 0,3,4
 615 440 615 440 556.5 389.5 c 128,-1,5
 498 339 498 339 453 285.5 c 128,-1,6
 408 232 408 232 375.5 165 c 128,-1,7
 343 98 343 98 327 0 c 1,8,-1
 195 0 l 1,9,10
 215 123 215 123 275.5 215 c 128,-1,11
 336 307 336 307 440 392 c 0,12,13
 460 409 460 409 493.5 435 c 128,-1,14
 527 461 527 461 561.5 491 c 128,-1,15
 596 521 596 521 626 549.5 c 128,-1,16
 656 578 656 578 670 599 c 1,17,-1
 149 599 l 1,18,-1
 198 695 l 1,19,-1
 810 695 l 1,0,1
EndSplineSet
EndChar
StartChar: eight
Encoding: 56 56 25
Width: 722
VWidth: 1533
Flags: W
HStem: -11 63<275.531 452.064> 650 60<398.266 579.239>
Fore
734 215 m 0,0,1
 724 155 724 155 685.5 112 c 128,-1,2
 647 69 647 69 592.5 41.5 c 128,-1,3
 538 14 538 14 475 1.5 c 128,-1,4
 412 -11 412 -11 354 -11 c 0,5,6
 297 -11 297 -11 240.5 0 c 128,-1,7
 184 11 184 11 140.5 36 c 128,-1,8
 97 61 97 61 73 102 c 128,-1,9
 49 143 49 143 60 201 c 0,10,11
 66 236 66 236 86.5 265 c 128,-1,12
 107 294 107 294 137 317 c 128,-1,13
 167 340 167 340 201.5 356.5 c 128,-1,14
 236 373 236 373 270 382 c 1,15,16
 219 402 219 402 187.5 438.5 c 128,-1,17
 156 475 156 475 167 530 c 0,18,19
 175 578 175 578 208.5 612.5 c 128,-1,20
 242 647 242 647 289 668.5 c 128,-1,21
 336 690 336 690 389.5 700 c 128,-1,22
 443 710 443 710 492 710 c 0,23,24
 544 710 544 710 593 700 c 128,-1,25
 642 690 642 690 679 669.5 c 128,-1,26
 716 649 716 649 735 618 c 128,-1,27
 754 587 754 587 747 546 c 0,28,29
 742 518 742 518 725 494.5 c 128,-1,30
 708 471 708 471 683.5 451 c 128,-1,31
 659 431 659 431 628.5 415.5 c 128,-1,32
 598 400 598 400 564 391 c 1,33,34
 601 385 601 385 635.5 370.5 c 128,-1,35
 670 356 670 356 694 333.5 c 128,-1,36
 718 311 718 311 729.5 281 c 128,-1,37
 741 251 741 251 734 215 c 0,0,1
622 541 m 0,38,39
 632 595 632 595 589 622.5 c 128,-1,40
 546 650 546 650 480 650 c 0,41,42
 409 650 409 650 354 624.5 c 128,-1,43
 299 599 299 599 290 547 c 0,44,45
 285 521 285 521 303.5 502 c 128,-1,46
 322 483 322 483 351 469 c 128,-1,47
 380 455 380 455 412.5 445 c 128,-1,48
 445 435 445 435 468 429 c 1,49,50
 491 435 491 435 517 445 c 128,-1,51
 543 455 543 455 565 469 c 128,-1,52
 587 483 587 483 602.5 500.5 c 128,-1,53
 618 518 618 518 622 541 c 0,38,39
607 207 m 0,54,55
 612 232 612 232 596 253 c 128,-1,56
 580 274 580 274 547.5 292.5 c 128,-1,57
 515 311 515 311 467.5 325 c 128,-1,58
 420 339 420 339 363 348 c 1,59,60
 333 343 333 343 305.5 331 c 128,-1,61
 278 319 278 319 255 301.5 c 128,-1,62
 232 284 232 284 216.5 261.5 c 128,-1,63
 201 239 201 239 196 215 c 0,64,65
 184 147 184 147 224.5 99.5 c 128,-1,66
 265 52 265 52 365 52 c 0,67,68
 466 52 466 52 530.5 96 c 128,-1,69
 595 140 595 140 607 207 c 0,54,55
EndSplineSet
EndChar
StartChar: nine
Encoding: 57 57 26
Width: 722
VWidth: 1533
Flags: W
HStem: -11 63<264.818 441.627> 196 68<306.565 497.146> 639 63<365.555 557.889>
Fore
751 363 m 0,0,1
 737 287 737 287 704.5 219.5 c 128,-1,2
 672 152 672 152 619 100.5 c 128,-1,3
 566 49 566 49 495.5 19 c 128,-1,4
 425 -11 425 -11 337 -11 c 0,5,6
 290 -11 290 -11 247 -2.5 c 128,-1,7
 204 6 204 6 169.5 27 c 128,-1,8
 135 48 135 48 112 81.5 c 128,-1,9
 89 115 89 115 83 164 c 1,10,-1
 207 164 l 1,11,12
 224 110 224 110 255.5 81 c 128,-1,13
 287 52 287 52 351 52 c 0,14,15
 400 52 400 52 442 73.5 c 128,-1,16
 484 95 484 95 516.5 128 c 128,-1,17
 549 161 549 161 571 201.5 c 128,-1,18
 593 242 593 242 606 282 c 1,19,20
 566 247 566 247 507 221.5 c 128,-1,21
 448 196 448 196 371 196 c 0,22,23
 307 196 307 196 255.5 213 c 128,-1,24
 204 230 204 230 169.5 261.5 c 128,-1,25
 135 293 135 293 120.5 338 c 128,-1,26
 106 383 106 383 115 440 c 0,27,28
 126 501 126 501 159.5 550 c 128,-1,29
 193 599 193 599 241.5 633 c 128,-1,30
 290 667 290 667 350.5 684.5 c 128,-1,31
 411 702 411 702 477 702 c 0,32,33
 550 702 550 702 607 676 c 128,-1,34
 664 650 664 650 700 604 c 128,-1,35
 736 558 736 558 750 496 c 128,-1,36
 764 434 764 434 751 363 c 0,0,1
615 451 m 0,37,38
 632 538 632 538 591 588.5 c 128,-1,39
 550 639 550 639 466 639 c 0,40,41
 380 639 380 639 322.5 588.5 c 128,-1,42
 265 538 265 538 248 451 c 0,43,44
 233 365 233 365 273.5 314.5 c 128,-1,45
 314 264 314 264 399 264 c 128,-1,46
 484 264 484 264 541.5 314.5 c 128,-1,47
 599 365 599 365 615 451 c 0,37,38
EndSplineSet
EndChar
StartChar: colon
Encoding: 58 58 27
Width: 400
VWidth: 1533
Flags: W
HStem: -12 141<165.751 247.733> 370 142<233.236 314.733>
VStem: 135 210<58 442 25.9861 110.923>
Fore
345 442 m 0,0,1
 340 411 340 411 315.5 390.5 c 128,-1,2
 291 370 291 370 261 370 c 0,3,4
 232 370 232 370 215 390.5 c 128,-1,5
 198 411 198 411 202 442 c 0,6,7
 209 471 209 471 232.5 491.5 c 128,-1,8
 256 512 256 512 285 512 c 0,9,10
 316 512 316 512 333.5 491.5 c 128,-1,11
 351 471 351 471 345 442 c 0,0,1
278 58 m 0,12,13
 273 28 273 28 248.5 8 c 128,-1,14
 224 -12 224 -12 193 -12 c 0,15,16
 164 -12 164 -12 147 8 c 128,-1,17
 130 28 130 28 135 58 c 0,18,19
 141 89 141 89 165 109 c 128,-1,20
 189 129 189 129 218 129 c 0,21,22
 248 129 248 129 266 109 c 128,-1,23
 284 89 284 89 278 58 c 0,12,13
EndSplineSet
EndChar
StartChar: semicolon
Encoding: 59 59 28
Width: 418
VWidth: 1533
Flags: W
HStem: -31 20G<212 217.5> 370 142<246.752 328.733>
Fore
359 442 m 0,0,1
 354 411 354 411 329.5 390.5 c 128,-1,2
 305 370 305 370 276 370 c 0,3,4
 245 370 245 370 228.5 390.5 c 128,-1,5
 212 411 212 411 216 442 c 0,6,7
 222 471 222 471 246 491.5 c 128,-1,8
 270 512 270 512 301 512 c 0,9,10
 330 512 330 512 347.5 491.5 c 128,-1,11
 365 471 365 471 359 442 c 0,0,1
290 29 m 0,12,13
 281 -20 281 -20 241 -70 c 128,-1,14
 201 -120 201 -120 143 -144 c 1,15,-1
 126 -115 l 1,16,17
 155 -104 155 -104 184 -76.5 c 128,-1,18
 213 -49 213 -49 222 -11 c 1,19,20
 202 -17 202 -17 186 -13 c 128,-1,21
 170 -9 170 -9 159.5 0 c 128,-1,22
 149 9 149 9 143.5 21.5 c 128,-1,23
 138 34 138 34 141 48 c 0,24,25
 146 74 146 74 168 97.5 c 128,-1,26
 190 121 190 121 228 121 c 256,27,28
 267 121 267 121 282 95 c 128,-1,29
 297 69 297 69 290 29 c 0,12,13
EndSplineSet
EndChar
StartChar: less
Encoding: 60 60 29
Width: 720
VWidth: 1533
Flags: W
HStem: -11 21G<616.395 662.689>
Fore
248 291 m 1,0,-1
 678 92 l 1,1,-1
 659 -11 l 1,2,-1
 103 250 l 1,3,-1
 118 331 l 1,4,-1
 767 592 l 1,5,-1
 748 491 l 1,6,-1
 248 291 l 1,0,-1
EndSplineSet
EndChar
StartChar: equal
Encoding: 61 61 30
Width: 719
VWidth: 1533
Flags: W
HStem: 153 74<92 693> 363 74<129 730>
Fore
115 363 m 1,0,-1
 129 437 l 1,1,-1
 744 437 l 1,2,-1
 730 363 l 1,3,-1
 115 363 l 1,0,-1
78 153 m 1,4,-1
 92 227 l 1,5,-1
 707 227 l 1,6,-1
 693 153 l 1,7,-1
 78 153 l 1,4,-1
EndSplineSet
EndChar
StartChar: greater
Encoding: 62 62 31
Width: 720
VWidth: 1533
Flags: W
HStem: -11 21G<60.4951 106.655>
Fore
57 -11 m 1,0,-1
 75 92 l 1,1,-1
 573 291 l 1,2,-1
 146 491 l 1,3,-1
 164 592 l 1,4,-1
 721 331 l 1,5,-1
 705 250 l 1,6,-1
 57 -11 l 1,0,-1
EndSplineSet
EndChar
StartChar: question
Encoding: 63 63 32
Width: 608
VWidth: 1533
Flags: W
HStem: -17 144<244.267 328.248> 681 56<341.654 474.744>
VStem: 278 61<188.069 268.68>
Fore
645 527 m 0,0,1
 638 486 638 486 615.5 458.5 c 128,-1,2
 593 431 593 431 562.5 409.5 c 128,-1,3
 532 388 532 388 497.5 368 c 128,-1,4
 463 348 463 348 431 323.5 c 128,-1,5
 399 299 399 299 374.5 265.5 c 128,-1,6
 350 232 350 232 339 181 c 1,7,-1
 278 181 l 1,8,9
 285 241 285 241 303.5 281.5 c 128,-1,10
 322 322 322 322 345 350.5 c 128,-1,11
 368 379 368 379 392.5 398 c 128,-1,12
 417 417 417 417 439 435.5 c 128,-1,13
 461 454 461 454 477.5 475.5 c 128,-1,14
 494 497 494 497 500 529 c 256,15,16
 506 561 506 561 506.5 589.5 c 128,-1,17
 507 618 507 618 498 638 c 128,-1,18
 489 658 489 658 468.5 669.5 c 128,-1,19
 448 681 448 681 411 681 c 0,20,21
 371 681 371 681 342.5 661.5 c 128,-1,22
 314 642 314 642 296 612.5 c 128,-1,23
 278 583 278 583 266.5 547.5 c 128,-1,24
 255 512 255 512 250 480 c 1,25,-1
 124 480 l 1,26,27
 146 599 146 599 225.5 668 c 128,-1,28
 305 737 305 737 423 737 c 0,29,30
 471 737 471 737 515.5 725 c 128,-1,31
 560 713 560 713 592 687 c 128,-1,32
 624 661 624 661 639.5 621 c 128,-1,33
 655 581 655 581 645 527 c 0,0,1
359 55 m 0,34,35
 353 25 353 25 329 4 c 128,-1,36
 305 -17 305 -17 274 -17 c 256,37,38
 244 -17 244 -17 226.5 4 c 128,-1,39
 209 25 209 25 215 55 c 0,40,41
 219 86 219 86 243.5 106.5 c 128,-1,42
 268 127 268 127 299 127 c 256,43,44
 330 127 330 127 346.5 106.5 c 128,-1,45
 363 86 363 86 359 55 c 0,34,35
EndSplineSet
EndChar
StartChar: at
Encoding: 64 64 33
Width: 942
VWidth: 1533
Flags: W
HStem: -23 64<395.21 633.657> 143 59<657.971 752.09> 144 69<432.194 512.32> 495 66<567.205 645.429> 685 52<498.073 725.102>
Fore
949 411 m 0,0,1
 941 366 941 366 916 319.5 c 128,-1,2
 891 273 891 273 854 233 c 128,-1,3
 817 193 817 193 771 168 c 128,-1,4
 725 143 725 143 673 143 c 0,5,6
 636 143 636 143 612.5 170.5 c 128,-1,7
 589 198 589 198 584 227 c 1,8,9
 552 193 552 193 516.5 168.5 c 128,-1,10
 481 144 481 144 437 144 c 0,11,12
 402 144 402 144 381 158 c 128,-1,13
 360 172 360 172 351 194 c 128,-1,14
 342 216 342 216 340.5 241.5 c 128,-1,15
 339 267 339 267 343 290 c 0,16,17
 350 328 350 328 372 375.5 c 128,-1,18
 394 423 394 423 430 464.5 c 128,-1,19
 466 506 466 506 513 533.5 c 128,-1,20
 560 561 560 561 618 561 c 0,21,22
 679 561 679 561 693 498 c 1,23,-1
 736 550 l 1,24,-1
 823 550 l 1,25,-1
 695 265 l 2,26,27
 682 239 682 239 680 220.5 c 128,-1,28
 678 202 678 202 696 202 c 0,29,30
 724 202 724 202 751.5 222 c 128,-1,31
 779 242 779 242 802 273 c 128,-1,32
 825 304 825 304 842 340 c 128,-1,33
 859 376 859 376 863 408 c 0,34,35
 874 465 874 465 859.5 514.5 c 128,-1,36
 845 564 845 564 811 602.5 c 128,-1,37
 777 641 777 641 726.5 663 c 128,-1,38
 676 685 676 685 613 685 c 0,39,40
 544 685 544 685 484.5 657.5 c 128,-1,41
 425 630 425 630 378 582.5 c 128,-1,42
 331 535 331 535 299.5 473.5 c 128,-1,43
 268 412 268 412 256 345 c 256,44,45
 244 278 244 278 258.5 222 c 128,-1,46
 273 166 273 166 307.5 126 c 128,-1,47
 342 86 342 86 393.5 63.5 c 128,-1,48
 445 41 445 41 507 41 c 0,49,50
 572 41 572 41 632.5 61 c 128,-1,51
 693 81 693 81 747 112 c 1,52,-1
 774 51 l 1,53,54
 710 20 710 20 643 -1.5 c 128,-1,55
 576 -23 576 -23 503 -23 c 0,56,57
 409 -23 409 -23 333.5 4.5 c 128,-1,58
 258 32 258 32 207 81 c 128,-1,59
 156 130 156 130 134 197 c 128,-1,60
 112 264 112 264 126 342 c 0,61,62
 140 425 140 425 185 497 c 128,-1,63
 230 569 230 569 296 622.5 c 128,-1,64
 362 676 362 676 445.5 706.5 c 128,-1,65
 529 737 529 737 621 737 c 0,66,67
 702 737 702 737 768 713.5 c 128,-1,68
 834 690 834 690 878.5 647 c 128,-1,69
 923 604 923 604 942 543.5 c 128,-1,70
 961 483 961 483 949 411 c 0,0,1
645 425 m 0,71,72
 652 457 652 457 645.5 476 c 128,-1,73
 639 495 639 495 624 495 c 0,74,75
 598 495 598 495 572.5 480.5 c 128,-1,76
 547 466 547 466 525 439 c 128,-1,77
 503 412 503 412 486 375.5 c 128,-1,78
 469 339 469 339 461 294 c 0,79,80
 455 262 455 262 461.5 237.5 c 128,-1,81
 468 213 468 213 494 213 c 0,82,83
 512 213 512 213 535 232 c 128,-1,84
 558 251 558 251 581 281 c 128,-1,85
 604 311 604 311 621.5 349.5 c 128,-1,86
 639 388 639 388 645 425 c 0,71,72
EndSplineSet
EndChar
StartChar: A
Encoding: 65 65 34
Width: 892
VWidth: 1533
Flags: W
HStem: 0 21G<8 106.841 729.406 885> 345 77<405 578> 719 20G<550.898 616.47>
Fore
737 0 m 1,0,-1
 606 345 l 1,1,-1
 348 345 l 1,2,-1
 92 0 l 1,3,-1
 8 0 l 1,4,-1
 566 739 l 1,5,-1
 609 739 l 1,6,-1
 885 0 l 1,7,-1
 737 0 l 1,0,-1
521 581 m 1,8,-1
 405 422 l 1,9,-1
 578 422 l 1,10,-1
 521 581 l 1,8,-1
EndSplineSet
EndChar
StartChar: B
Encoding: 66 66 35
Width: 863
VWidth: 1533
Flags: W
HStem: 0 61<215 521.495> 351 63<276 546.531> 653 61<319 563.297 563.297 617.716 617.716 657.514>
Fore
860 205 m 0,0,1
 848 138 848 138 802 98 c 128,-1,2
 756 58 756 58 694 36 c 128,-1,3
 632 14 632 14 562 7 c 128,-1,4
 492 0 492 0 434 0 c 2,5,-1
 77 0 l 1,6,-1
 202 714 l 1,7,-1
 575 714 l 2,8,9
 624 714 624 714 677 707.5 c 128,-1,10
 730 701 730 701 772 681.5 c 128,-1,11
 814 662 814 662 838 628.5 c 128,-1,12
 862 595 862 595 852 541 c 0,13,14
 842 488 842 488 796.5 449.5 c 128,-1,15
 751 411 751 411 691 389 c 1,16,17
 730 380 730 380 763.5 365.5 c 128,-1,18
 797 351 797 351 821 329 c 128,-1,19
 845 307 845 307 856.5 277 c 128,-1,20
 868 247 868 247 860 205 c 0,0,1
718 535 m 0,21,22
 724 573 724 573 707 596 c 128,-1,23
 690 619 690 619 658.5 631.5 c 128,-1,24
 627 644 627 644 588 648.5 c 128,-1,25
 549 653 549 653 512 653 c 2,26,-1
 319 653 l 1,27,-1
 276 414 l 1,28,-1
 472 414 l 2,29,30
 578 414 578 414 643 447.5 c 128,-1,31
 708 481 708 481 718 535 c 0,21,22
719 199 m 0,32,33
 728 250 728 250 706.5 280 c 128,-1,34
 685 310 685 310 647 326 c 128,-1,35
 609 342 609 342 559 346.5 c 128,-1,36
 509 351 509 351 461 351 c 2,37,-1
 265 351 l 1,38,-1
 215 61 l 1,39,-1
 500 61 l 2,40,41
 538 61 538 61 575.5 71 c 128,-1,42
 613 81 613 81 643 99.5 c 128,-1,43
 673 118 673 118 693.5 143.5 c 128,-1,44
 714 169 714 169 719 199 c 0,32,33
EndSplineSet
EndChar
StartChar: C
Encoding: 67 67 36
Width: 903
VWidth: 1533
Flags: W
HStem: -23 58<384.42 591.329> 679 60<486.38 699.655>
Fore
900 207 m 1,0,1
 820 87 820 87 713 32 c 128,-1,2
 606 -23 606 -23 481 -23 c 0,3,4
 388 -23 388 -23 311.5 6 c 128,-1,5
 235 35 235 35 183.5 85.5 c 128,-1,6
 132 136 132 136 109 204.5 c 128,-1,7
 86 273 86 273 100 353 c 0,8,9
 115 440 115 440 162.5 511.5 c 128,-1,10
 210 583 210 583 280 633.5 c 128,-1,11
 350 684 350 684 436.5 711.5 c 128,-1,12
 523 739 523 739 616 739 c 0,13,14
 673 739 673 739 726.5 726 c 128,-1,15
 780 713 780 713 824.5 685.5 c 128,-1,16
 869 658 869 658 903 614 c 128,-1,17
 937 570 937 570 954 509 c 1,18,-1
 800 509 l 1,19,20
 783 586 783 586 733.5 632.5 c 128,-1,21
 684 679 684 679 606 679 c 0,22,23
 541 679 541 679 481.5 655.5 c 128,-1,24
 422 632 422 632 373 589.5 c 128,-1,25
 324 547 324 547 290 489.5 c 128,-1,26
 256 432 256 432 244 363 c 256,27,28
 232 294 232 294 245 234.5 c 128,-1,29
 258 175 258 175 291.5 130.5 c 128,-1,30
 325 86 325 86 376.5 60.5 c 128,-1,31
 428 35 428 35 492 35 c 0,32,33
 570 35 570 35 637.5 82 c 128,-1,34
 705 129 705 129 750 207 c 1,35,-1
 900 207 l 1,0,1
EndSplineSet
EndChar
StartChar: D
Encoding: 68 68 37
Width: 898
VWidth: 1533
Flags: W
HStem: 0 61<215 550.321> 653 61<319 648.084>
Fore
926 379 m 0,0,1
 912 299 912 299 875.5 230 c 128,-1,2
 839 161 839 161 772 109.5 c 128,-1,3
 705 58 705 58 604 29 c 128,-1,4
 503 0 503 0 359 0 c 2,5,-1
 77 0 l 1,6,-1
 202 714 l 1,7,-1
 478 714 l 2,8,9
 616 714 616 714 707.5 689 c 128,-1,10
 799 664 799 664 852 618.5 c 128,-1,11
 905 573 905 573 921.5 512 c 128,-1,12
 938 451 938 451 926 379 c 0,0,1
780 379 m 0,13,14
 790 434 790 434 783 484 c 128,-1,15
 776 534 776 534 743.5 571.5 c 128,-1,16
 711 609 711 609 650 631 c 128,-1,17
 589 653 589 653 489 653 c 2,18,-1
 319 653 l 1,19,-1
 215 61 l 1,20,-1
 385 61 l 2,21,22
 483 61 483 61 552.5 83.5 c 128,-1,23
 622 106 622 106 668 147.5 c 128,-1,24
 714 189 714 189 741 248 c 128,-1,25
 768 307 768 307 780 379 c 0,13,14
EndSplineSet
EndChar
StartChar: E
Encoding: 69 69 38
Width: 742
VWidth: 1533
Flags: W
HStem: 0 61<215 719> 353 61<274 672> 653 61<317 834>
Fore
77 0 m 1,0,-1
 202 714 l 1,1,-1
 845 714 l 1,2,-1
 834 653 l 1,3,-1
 317 653 l 1,4,-1
 274 414 l 1,5,-1
 682 414 l 1,6,-1
 672 353 l 1,7,-1
 264 353 l 1,8,-1
 215 61 l 1,9,-1
 730 61 l 1,10,-1
 719 0 l 1,11,-1
 77 0 l 1,0,-1
EndSplineSet
EndChar
StartChar: F
Encoding: 70 70 39
Width: 742
VWidth: 1533
Flags: W
HStem: 0 21G<77 207.399> 353 61<274 672> 653 61<317 834>
Fore
317 653 m 1,0,-1
 274 414 l 1,1,-1
 682 414 l 1,2,-1
 672 353 l 1,3,-1
 264 353 l 1,4,-1
 204 0 l 1,5,-1
 77 0 l 1,6,-1
 202 714 l 1,7,-1
 845 714 l 1,8,-1
 834 653 l 1,9,-1
 317 653 l 1,0,-1
EndSplineSet
EndChar
StartChar: G
Encoding: 71 71 40
Width: 932
VWidth: 1533
Flags: W
HStem: -23 60<375.919 602.959> 324 62<529 776> 679 60<482.463 676.896>
Fore
800 509 m 1,0,1
 780 587 780 587 729.5 633 c 128,-1,2
 679 679 679 679 595 679 c 0,3,4
 535 679 535 679 478.5 656 c 128,-1,5
 422 633 422 633 374.5 591 c 128,-1,6
 327 549 327 549 292.5 491.5 c 128,-1,7
 258 434 258 434 245 365 c 0,8,9
 232 288 232 288 246.5 227 c 128,-1,10
 261 166 261 166 294 123.5 c 128,-1,11
 327 81 327 81 375 59 c 128,-1,12
 423 37 423 37 477 37 c 0,13,14
 555 37 555 37 625.5 67 c 128,-1,15
 696 97 696 97 744 140 c 1,16,-1
 776 324 l 1,17,-1
 518 324 l 1,18,-1
 529 386 l 1,19,-1
 912 386 l 1,20,-1
 863 107 l 1,21,22
 776 37 776 37 671 7 c 128,-1,23
 566 -23 566 -23 466 -23 c 0,24,25
 391 -23 391 -23 318 2.5 c 128,-1,26
 245 28 245 28 191.5 76 c 128,-1,27
 138 124 138 124 110.5 194 c 128,-1,28
 83 264 83 264 98 353 c 0,29,30
 113 440 113 440 161.5 511.5 c 128,-1,31
 210 583 210 583 279 633.5 c 128,-1,32
 348 684 348 684 432.5 711.5 c 128,-1,33
 517 739 517 739 604 739 c 0,34,35
 659 739 659 739 714.5 727.5 c 128,-1,36
 770 716 770 716 817.5 690 c 128,-1,37
 865 664 865 664 900 619.5 c 128,-1,38
 935 575 935 575 952 509 c 1,39,-1
 800 509 l 1,0,1
EndSplineSet
EndChar
StartChar: H
Encoding: 72 72 41
Width: 883
VWidth: 1533
Flags: W
HStem: 0 21G<77 205.513 681 809.529> 353 61<274 742> 694 20G<198.499 328 802.467 932>
Fore
806 0 m 1,0,-1
 681 0 l 1,1,-1
 742 353 l 1,2,-1
 264 353 l 1,3,-1
 202 0 l 1,4,-1
 77 0 l 1,5,-1
 202 714 l 1,6,-1
 328 714 l 1,7,-1
 274 414 l 1,8,-1
 753 414 l 1,9,-1
 806 714 l 1,10,-1
 932 714 l 1,11,-1
 806 0 l 1,0,-1
EndSplineSet
EndChar
StartChar: I
Encoding: 73 73 42
Width: 279
VWidth: 1533
Flags: W
HStem: 0 21G<77 205.529> 694 20G<198.499 328>
VStem: 77 251<0 714 1.53064e-18 1.53064e-18>
Fore
77 0 m 1,0,-1
 202 714 l 1,1,-1
 328 714 l 1,2,-1
 202 0 l 1,3,-1
 77 0 l 1,0,-1
EndSplineSet
EndChar
StartChar: J
Encoding: 74 74 43
Width: 574
VWidth: 1533
Flags: W
HStem: -31 59<186.151 318.634> 694 20G<493.41 624>
Fore
537 225 m 1,0,1
 526 163 526 163 497.5 115 c 128,-1,2
 469 67 469 67 429 35 c 128,-1,3
 389 3 389 3 341 -14 c 128,-1,4
 293 -31 293 -31 244 -31 c 0,5,6
 198 -31 198 -31 155 -18.5 c 128,-1,7
 112 -6 112 -6 81.5 18.5 c 128,-1,8
 51 43 51 43 34 80.5 c 128,-1,9
 17 118 17 118 23 169 c 1,10,-1
 155 169 l 1,11,12
 147 109 147 109 171 68.5 c 128,-1,13
 195 28 195 28 251 28 c 0,14,15
 305 28 305 28 348.5 76 c 128,-1,16
 392 124 392 124 406 207 c 2,17,-1
 497 714 l 1,18,-1
 624 714 l 1,19,-1
 537 225 l 1,0,1
EndSplineSet
EndChar
StartChar: K
Encoding: 75 75 44
Width: 807
VWidth: 1533
Flags: W
HStem: 0 21G<77 205.51 636.13 800> 694 20G<198.499 328 709.75 866>
Fore
647 0 m 1,0,-1
 422 414 l 1,1,-1
 255 302 l 1,2,-1
 202 0 l 1,3,-1
 77 0 l 1,4,-1
 202 714 l 1,5,-1
 328 714 l 1,6,-1
 271 394 l 1,7,-1
 739 714 l 1,8,-1
 866 714 l 1,9,-1
 532 489 l 1,10,-1
 800 0 l 1,11,-1
 647 0 l 1,0,-1
EndSplineSet
EndChar
StartChar: L
Encoding: 76 76 45
Width: 656
VWidth: 1533
Flags: W
HStem: 0 61<213 649> 694 20G<198.499 328>
Fore
77 0 m 1,0,-1
 202 714 l 1,1,-1
 328 714 l 1,2,-1
 213 61 l 1,3,-1
 659 61 l 1,4,-1
 649 0 l 1,5,-1
 77 0 l 1,0,-1
EndSplineSet
EndChar
StartChar: M
Encoding: 77 77 46
Width: 987
VWidth: 1533
Flags: W
HStem: 0 21G<77 156.519 438.181 498.189 785 914.501> 694 20G<198.499 351.715 905.844 1036>
Fore
785 0 m 1,0,-1
 882 549 l 1,1,-1
 484 -12 l 1,2,-1
 445 -12 l 1,3,-1
 251 557 l 1,4,-1
 153 0 l 1,5,-1
 77 0 l 1,6,-1
 202 714 l 1,7,-1
 345 714 l 1,8,-1
 530 163 l 1,9,-1
 920 714 l 1,10,-1
 1036 714 l 1,11,-1
 911 0 l 1,12,-1
 785 0 l 1,0,-1
EndSplineSet
EndChar
StartChar: N
Encoding: 78 78 47
Width: 863
VWidth: 1533
Flags: W
HStem: -23 21<75 155.537 723.138 785.528> 694 20G<198.453 342.84 832.412 912>
Fore
739 -23 m 1,0,-1
 256 586 l 1,1,-1
 152 -2 l 1,2,-1
 75 -2 l 1,3,-1
 202 714 l 1,4,-1
 327 714 l 1,5,-1
 742 190 l 1,6,-1
 836 714 l 1,7,-1
 912 714 l 1,8,-1
 782 -23 l 1,9,-1
 739 -23 l 1,0,-1
EndSplineSet
EndChar
StartChar: O
Encoding: 79 79 48
Width: 956
VWidth: 1533
Flags: W
HStem: -26 55<372.942 597.988> 685 54<482.936 707.499>
Fore
981 357 m 256,0,1
 967 278 967 278 919.5 208 c 128,-1,2
 872 138 872 138 803 86 c 128,-1,3
 734 34 734 34 648.5 4 c 128,-1,4
 563 -26 563 -26 472 -26 c 256,5,6
 382 -26 382 -26 307.5 4 c 128,-1,7
 233 34 233 34 182.5 85 c 128,-1,8
 132 136 132 136 109 206 c 128,-1,9
 86 276 86 276 100 356 c 256,10,11
 113 435 113 435 161 505 c 128,-1,12
 209 575 209 575 278 627 c 128,-1,13
 347 679 347 679 432 709 c 128,-1,14
 517 739 517 739 607 739 c 256,15,16
 698 739 698 739 773 709 c 128,-1,17
 848 679 848 679 898.5 627.5 c 128,-1,18
 949 576 949 576 972 506.5 c 128,-1,19
 995 437 995 437 981 357 c 256,0,1
836 357 m 256,20,21
 848 426 848 426 837 486 c 128,-1,22
 826 546 826 546 795.5 590.5 c 128,-1,23
 765 635 765 635 714.5 660 c 128,-1,24
 664 685 664 685 598 685 c 0,25,26
 530 685 530 685 472 659 c 128,-1,27
 414 633 414 633 367 588.5 c 128,-1,28
 320 544 320 544 289 484.5 c 128,-1,29
 258 425 258 425 245 356 c 256,30,31
 233 287 233 287 244 228 c 128,-1,32
 255 169 255 169 285.5 124.5 c 128,-1,33
 316 80 316 80 365 54.5 c 128,-1,34
 414 29 414 29 481 29 c 256,35,36
 549 29 549 29 608 54.5 c 128,-1,37
 667 80 667 80 713.5 124.5 c 128,-1,38
 760 169 760 169 791.5 228.5 c 128,-1,39
 823 288 823 288 836 357 c 256,20,21
EndSplineSet
EndChar
StartChar: P
Encoding: 80 80 49
Width: 803
VWidth: 1533
Flags: W
HStem: 0 21G<77 205.507> 308 63<267 492.27> 653 61<317 563.606>
Fore
856 517 m 0,0,1
 843 451 843 451 800 410.5 c 128,-1,2
 757 370 757 370 693 347 c 128,-1,3
 629 324 629 324 548.5 316 c 128,-1,4
 468 308 468 308 380 308 c 2,5,-1
 256 308 l 1,6,-1
 202 0 l 1,7,-1
 77 0 l 1,8,-1
 202 714 l 1,9,-1
 455 714 l 2,10,11
 555 714 555 714 634 705 c 128,-1,12
 713 696 713 696 766 673 c 128,-1,13
 819 650 819 650 842.5 611.5 c 128,-1,14
 866 573 866 573 856 517 c 0,0,1
716 520 m 0,15,16
 721 543 721 543 711 566.5 c 128,-1,17
 701 590 701 590 670 609.5 c 128,-1,18
 639 629 639 629 585.5 641 c 128,-1,19
 532 653 532 653 448 653 c 2,20,-1
 317 653 l 1,21,-1
 267 371 l 1,22,-1
 392 371 l 2,23,24
 552 371 552 371 628 409.5 c 128,-1,25
 704 448 704 448 716 520 c 0,15,16
EndSplineSet
EndChar
StartChar: Q
Encoding: 81 81 50
Width: 956
VWidth: 1533
Flags: W
HStem: -236 69<641.85 647.5 707 765.099> 684 55<482.936 704.398>
Fore
411 -31 m 1,0,1
 331 -21 331 -21 267.5 12.5 c 128,-1,2
 204 46 204 46 162.5 97.5 c 128,-1,3
 121 149 121 149 104 214 c 128,-1,4
 87 279 87 279 100 351 c 0,5,6
 113 431 113 431 161 502 c 128,-1,7
 209 573 209 573 278 625.5 c 128,-1,8
 347 678 347 678 432 708.5 c 128,-1,9
 517 739 517 739 607 739 c 256,10,11
 698 739 698 739 773 709 c 128,-1,12
 848 679 848 679 898.5 627 c 128,-1,13
 949 575 949 575 971.5 504.5 c 128,-1,14
 994 434 994 434 980 353 c 0,15,16
 967 284 967 284 929.5 221 c 128,-1,17
 892 158 892 158 836 107.5 c 128,-1,18
 780 57 780 57 710.5 22.5 c 128,-1,19
 641 -12 641 -12 566 -25 c 1,20,21
 566 -57 566 -57 584.5 -88.5 c 128,-1,22
 603 -120 603 -120 633.5 -140.5 c 128,-1,23
 664 -161 664 -161 707 -167 c 128,-1,24
 750 -173 750 -173 799 -156 c 1,25,-1
 771 -212 l 1,26,27
 708 -239 708 -239 647.5 -236 c 128,-1,28
 587 -233 587 -233 536.5 -207 c 128,-1,29
 486 -181 486 -181 452.5 -135 c 128,-1,30
 419 -89 419 -89 411 -31 c 1,0,1
834 353 m 256,31,32
 846 422 846 422 835.5 482.5 c 128,-1,33
 825 543 825 543 794.5 587.5 c 128,-1,34
 764 632 764 632 714 658 c 128,-1,35
 664 684 664 684 598 684 c 0,36,37
 530 684 530 684 472 658 c 128,-1,38
 414 632 414 632 367 586.5 c 128,-1,39
 320 541 320 541 289 480.5 c 128,-1,40
 258 420 258 420 245 351 c 256,41,42
 233 282 233 282 243 222.5 c 128,-1,43
 253 163 253 163 283.5 117.5 c 128,-1,44
 314 72 314 72 363 46.5 c 128,-1,45
 412 21 412 21 480 21 c 256,46,47
 547 21 547 21 606 47.5 c 128,-1,48
 665 74 665 74 712 118.5 c 128,-1,49
 759 163 759 163 790.5 223.5 c 128,-1,50
 822 284 822 284 834 353 c 256,31,32
EndSplineSet
EndChar
StartChar: R
Encoding: 82 82 51
Width: 818
VWidth: 1533
Flags: W
HStem: 0 21G<38 169.442 639 803> 308 63<230 465.117> 653 61<281 505.974>
Fore
652 0 m 1,0,1
 626 28 626 28 615 69 c 128,-1,2
 604 110 604 110 596 152 c 2,3,-1
 590 201 l 2,4,5
 583 245 583 245 559 276.5 c 128,-1,6
 535 308 535 308 489 308 c 2,7,-1
 219 308 l 1,8,-1
 166 0 l 1,9,-1
 38 0 l 1,10,-1
 164 714 l 1,11,-1
 417 714 l 2,12,13
 497 714 497 714 574.5 708 c 128,-1,14
 652 702 652 702 711 682 c 128,-1,15
 770 662 770 662 802 622.5 c 128,-1,16
 834 583 834 583 823 517 c 0,17,18
 817 486 817 486 795 458.5 c 128,-1,19
 773 431 773 431 741.5 409.5 c 128,-1,20
 710 388 710 388 674 372.5 c 128,-1,21
 638 357 638 357 604 350 c 1,22,23
 662 337 662 337 693 299 c 128,-1,24
 724 261 724 261 731 218 c 2,25,-1
 744 130 l 2,26,27
 747 104 747 104 760 69 c 128,-1,28
 773 34 773 34 803 0 c 1,29,-1
 652 0 l 1,0,1
675 520 m 0,30,31
 679 549 679 549 670.5 573.5 c 128,-1,32
 662 598 662 598 634 615.5 c 128,-1,33
 606 633 606 633 554.5 643 c 128,-1,34
 503 653 503 653 423 653 c 2,35,-1
 281 653 l 1,36,-1
 230 371 l 1,37,-1
 380 371 l 2,38,39
 457 371 457 371 510.5 380 c 128,-1,40
 564 389 564 389 598.5 408.5 c 128,-1,41
 633 428 633 428 650.5 455.5 c 128,-1,42
 668 483 668 483 675 520 c 0,30,31
EndSplineSet
EndChar
StartChar: S
Encoding: 83 83 52
Width: 789
VWidth: 1533
Flags: W
HStem: -25 60<315.6 490.768> 678 58<426.85 609.087>
Fore
788 213 m 0,0,1
 776 146 776 146 737.5 100.5 c 128,-1,2
 699 55 699 55 644.5 27.5 c 128,-1,3
 590 0 590 0 523.5 -12.5 c 128,-1,4
 457 -25 457 -25 389 -25 c 0,5,6
 320 -25 320 -25 261 -8 c 128,-1,7
 202 9 202 9 161 41.5 c 128,-1,8
 120 74 120 74 97.5 123 c 128,-1,9
 75 172 75 172 80 236 c 1,10,-1
 227 236 l 1,11,12
 222 193 222 193 231.5 156.5 c 128,-1,13
 241 120 241 120 264 93 c 128,-1,14
 287 66 287 66 321.5 50.5 c 128,-1,15
 356 35 356 35 400 35 c 0,16,17
 497 35 497 35 566.5 78 c 128,-1,18
 636 121 636 121 649 187 c 0,19,20
 653 216 653 216 641 235.5 c 128,-1,21
 629 255 629 255 606.5 268 c 128,-1,22
 584 281 584 281 558 289 c 128,-1,23
 532 297 532 297 509 302 c 0,24,25
 478 310 478 310 437.5 317.5 c 128,-1,26
 397 325 397 325 355 336 c 128,-1,27
 313 347 313 347 274 361.5 c 128,-1,28
 235 376 235 376 205.5 398 c 128,-1,29
 176 420 176 420 161.5 451.5 c 128,-1,30
 147 483 147 483 155 527 c 0,31,32
 166 584 166 584 203.5 624 c 128,-1,33
 241 664 241 664 294 689 c 128,-1,34
 347 714 347 714 407.5 725 c 128,-1,35
 468 736 468 736 523 736 c 0,36,37
 664 736 664 736 746.5 681.5 c 128,-1,38
 829 627 829 627 831 524 c 1,39,-1
 696 524 l 1,40,41
 696 552 696 552 687.5 579 c 128,-1,42
 679 606 679 606 658.5 628 c 128,-1,43
 638 650 638 650 602.5 664 c 128,-1,44
 567 678 567 678 512 678 c 0,45,46
 425 678 425 678 364.5 640.5 c 128,-1,47
 304 603 304 603 293 547 c 0,48,49
 288 520 288 520 301 501.5 c 128,-1,50
 314 483 314 483 336.5 470 c 128,-1,51
 359 457 359 457 385 449.5 c 128,-1,52
 411 442 411 442 432 437 c 0,53,54
 463 429 463 429 504.5 421.5 c 128,-1,55
 546 414 546 414 587.5 403 c 128,-1,56
 629 392 629 392 668.5 377.5 c 128,-1,57
 708 363 708 363 737.5 341 c 128,-1,58
 767 319 767 319 781.5 287.5 c 128,-1,59
 796 256 796 256 788 213 c 0,0,1
EndSplineSet
EndChar
StartChar: T
Encoding: 84 84 53
Width: 746
VWidth: 1533
Flags: W
HStem: 0 21G<308 441.522> 653 61<141 423 553 846>
Fore
553 653 m 1,0,-1
 438 0 l 1,1,-1
 308 0 l 1,2,-1
 423 653 l 1,3,-1
 130 653 l 1,4,-1
 141 714 l 1,5,-1
 857 714 l 1,6,-1
 846 653 l 1,7,-1
 553 653 l 1,0,-1
EndSplineSet
EndChar
StartChar: U
Encoding: 85 85 54
Width: 927
VWidth: 1533
Flags: W
HStem: -25 59<359.506 579.67> 694 20G<198.429 328 842.422 972>
Fore
897 294 m 1,0,1
 883 216 883 216 844.5 156.5 c 128,-1,2
 806 97 806 97 748 57 c 128,-1,3
 690 17 690 17 615.5 -4 c 128,-1,4
 541 -25 541 -25 457 -25 c 0,5,6
 371 -25 371 -25 304.5 -4 c 128,-1,7
 238 17 238 17 193.5 57 c 128,-1,8
 149 97 149 97 131 156.5 c 128,-1,9
 113 216 113 216 127 294 c 2,10,-1
 202 714 l 1,11,-1
 328 714 l 1,12,-1
 250 278 l 2,13,14
 241 228 241 228 251 184 c 128,-1,15
 261 140 261 140 288.5 107 c 128,-1,16
 316 74 316 74 360.5 54 c 128,-1,17
 405 34 405 34 466 34 c 256,18,19
 527 34 527 34 578.5 54 c 128,-1,20
 630 74 630 74 669 107 c 128,-1,21
 708 140 708 140 733.5 184 c 128,-1,22
 759 228 759 228 768 278 c 2,23,-1
 846 714 l 1,24,-1
 972 714 l 1,25,-1
 897 294 l 1,0,1
EndSplineSet
EndChar
StartChar: V
Encoding: 86 86 55
Width: 861
VWidth: 1533
Flags: W
HStem: -20 21G<384.943 449.85> 694 20G<133 285.007 879.317 980>
Fore
435 -20 m 1,0,-1
 392 -20 l 1,1,-1
 133 714 l 1,2,-1
 278 714 l 1,3,-1
 477 146 l 1,4,-1
 894 714 l 1,5,-1
 980 714 l 1,6,-1
 435 -20 l 1,0,-1
EndSplineSet
EndChar
StartChar: W
Encoding: 87 87 56
Width: 1113
VWidth: 1533
Flags: W
HStem: -20 21G<296.422 357.938 751.922 813.689> 694 20G<133 277.639 667.811 719.029 1144.19 1231>
Fore
802 -20 m 1,0,-1
 757 -20 l 1,1,-1
 627 492 l 1,2,-1
 347 -20 l 1,3,-1
 301 -20 l 1,4,-1
 133 714 l 1,5,-1
 273 714 l 1,6,-1
 392 201 l 1,7,-1
 679 714 l 1,8,-1
 714 714 l 1,9,-1
 846 189 l 1,10,-1
 1156 714 l 1,11,-1
 1231 714 l 1,12,-1
 802 -20 l 1,0,-1
EndSplineSet
EndChar
StartChar: X
Encoding: 88 88 57
Width: 748
VWidth: 1533
Flags: W
HStem: -2 21G<6 115.502 576.713 736> 694 20G<158 317.098 756.091 866>
Fore
506 382 m 1,0,-1
 736 -2 l 1,1,-1
 589 -2 l 1,2,-1
 409 291 l 1,3,-1
 94 -2 l 1,4,-1
 6 -2 l 1,5,-1
 380 339 l 1,6,-1
 158 714 l 1,7,-1
 305 714 l 1,8,-1
 478 428 l 1,9,-1
 777 714 l 1,10,-1
 866 714 l 1,11,-1
 506 382 l 1,0,-1
EndSplineSet
EndChar
StartChar: Y
Encoding: 89 89 58
Width: 829
VWidth: 1533
Flags: W
HStem: 0 21G<339 471.47> 694 20G<133 293.706 834.882 948>
Fore
523 317 m 1,0,-1
 468 0 l 1,1,-1
 339 0 l 1,2,-1
 391 302 l 1,3,-1
 133 714 l 1,4,-1
 281 714 l 1,5,-1
 497 374 l 1,6,-1
 856 714 l 1,7,-1
 948 714 l 1,8,-1
 523 317 l 1,0,-1
EndSplineSet
EndChar
StartChar: Z
Encoding: 90 90 59
Width: 745
VWidth: 1533
Flags: W
HStem: 0 61<224 676> 653 61<218 652>
Fore
224 61 m 1,0,-1
 714 61 l 1,1,-1
 676 0 l 1,2,-1
 15 0 l 1,3,-1
 652 653 l 1,4,-1
 178 653 l 1,5,-1
 218 714 l 1,6,-1
 856 714 l 1,7,-1
 224 61 l 1,0,-1
EndSplineSet
EndChar
StartChar: bracketleft
Encoding: 91 91 60
Width: 349
VWidth: 1533
Flags: W
HStem: -201 21G<134.5 238.5> 717 20G<299 396.923>
VStem: 71 329<17 737 289.654 642.083>
Fore
235 -201 m 1,0,1
 34 -201 34 -201 71 17 c 2,2,-1
 159 520 l 2,3,4
 198 737 198 737 400 737 c 1,5,-1
 394 698 l 1,6,7
 362 693 362 693 341 684.5 c 128,-1,8
 320 676 320 676 308 660.5 c 128,-1,9
 296 645 296 645 289 620.5 c 128,-1,10
 282 596 282 596 276 560 c 2,11,-1
 173 -25 l 2,12,13
 166 -61 166 -61 164.5 -85.5 c 128,-1,14
 163 -110 163 -110 169.5 -125.5 c 128,-1,15
 176 -141 176 -141 194 -148.5 c 128,-1,16
 212 -156 212 -156 242 -161 c 1,17,-1
 235 -201 l 1,0,1
EndSplineSet
EndChar
StartChar: backslash
Encoding: 92 92 61
Width: 371
VWidth: 1533
Flags: W
HStem: -23 21G<279.316 394> 717 20G<106 219.711>
VStem: 106 288<-23 737 737 737>
Fore
284 -23 m 1,0,-1
 106 737 l 1,1,-1
 215 737 l 1,2,-1
 394 -23 l 1,3,-1
 284 -23 l 1,0,-1
EndSplineSet
EndChar
StartChar: bracketright
Encoding: 93 93 62
Width: 349
VWidth: 1533
Flags: W
HStem: -201 21G<45 143> 717 20G<203.923 308>
VStem: 41 330<-201 520 712.098 751.552>
Fore
282 17 m 1,0,1
 245 -201 245 -201 41 -201 c 1,2,-1
 49 -161 l 1,3,4
 81 -156 81 -156 101 -148.5 c 128,-1,5
 121 -141 121 -141 132.5 -125.5 c 128,-1,6
 144 -110 144 -110 151 -85.5 c 128,-1,7
 158 -61 158 -61 166 -25 c 2,8,-1
 268 560 l 2,9,10
 274 596 274 596 276 620.5 c 128,-1,11
 278 645 278 645 271.5 660.5 c 128,-1,12
 265 676 265 676 248.5 684.5 c 128,-1,13
 232 693 232 693 201 698 c 1,14,-1
 207 737 l 1,15,16
 409 737 409 737 371 520 c 2,17,-1
 282 17 l 1,0,1
EndSplineSet
EndChar
StartChar: asciicircum
Encoding: 94 94 63
Width: 731
VWidth: 1533
Flags: W
HStem: 281 406<440 567 440 440>
Fore
567 281 m 1,0,-1
 463 553 l 1,1,-1
 264 281 l 1,2,-1
 146 281 l 1,3,-1
 440 687 l 1,4,-1
 532 687 l 1,5,-1
 687 281 l 1,6,-1
 567 281 l 1,0,-1
EndSplineSet
EndChar
StartChar: underscore
Encoding: 95 95 64
Width: 619
VWidth: 1533
Flags: W
HStem: -140 56<-6 586>
Fore
-17 -140 m 1,0,-1
 -6 -84 l 1,1,-1
 596 -84 l 1,2,-1
 586 -140 l 1,3,-1
 -17 -140 l 1,0,-1
EndSplineSet
EndChar
StartChar: grave
Encoding: 96 96 65
Width: 349
VWidth: 1533
Flags: W
HStem: 652 196<190 340 190 190>
VStem: 135 282<652 797 797 797>
Fore
340 652 m 1,0,-1
 182 737 l 2,1,2
 130 767 130 767 135 797 c 0,3,4
 138 814 138 814 151 831 c 128,-1,5
 164 848 164 848 190 848 c 0,6,7
 207 848 207 848 221.5 840.5 c 128,-1,8
 236 833 236 833 245 823 c 2,9,-1
 417 652 l 1,10,-1
 340 652 l 1,0,-1
EndSplineSet
EndChar
StartChar: a
Encoding: 97 97 66
Width: 657
VWidth: 1533
Flags: W
HStem: -15 58<253.427 383.773> 285 60<384.936 468.631 468.631 504.214 504.214 524> 491 59<345.987 484.578>
Fore
503 -2 m 1,0,1
 498.5 23.5 l 0,2,3
 494 49 494 49 497 67 c 1,4,5
 451 23 451 23 391 4 c 128,-1,6
 331 -15 331 -15 271 -15 c 0,7,8
 227 -15 227 -15 185 -4.5 c 128,-1,9
 143 6 143 6 112 27.5 c 128,-1,10
 81 49 81 49 66 82 c 128,-1,11
 51 115 51 115 58 159 c 0,12,13
 69 218 69 218 112 254.5 c 128,-1,14
 155 291 155 291 213 311 c 128,-1,15
 271 331 271 331 335.5 338 c 128,-1,16
 400 345 400 345 454 345 c 0,17,18
 457 345 457 345 484 346 c 128,-1,19
 511 347 511 347 535 347 c 1,20,21
 540 374 540 374 537 400 c 128,-1,22
 534 426 534 426 518.5 446 c 128,-1,23
 503 466 503 466 477 478.5 c 128,-1,24
 451 491 451 491 409 491 c 0,25,26
 354 491 354 491 314 464.5 c 128,-1,27
 274 438 274 438 251 379 c 1,28,-1
 124 379 l 1,29,30
 144 422 144 422 176.5 455 c 128,-1,31
 209 488 209 488 248 508.5 c 128,-1,32
 287 529 287 529 331.5 539.5 c 128,-1,33
 376 550 376 550 420 550 c 0,34,35
 555 550 555 550 608.5 494 c 128,-1,36
 662 438 662 438 645 345 c 2,37,-1
 609 132 l 2,38,39
 601 92 601 92 603.5 58.5 c 128,-1,40
 606 25 606 25 610 -2 c 1,41,-1
 503 -2 l 1,0,1
445 285 m 2,42,43
 397 285 397 285 352.5 276.5 c 128,-1,44
 308 268 308 268 273 252 c 128,-1,45
 238 236 238 236 215 212.5 c 128,-1,46
 192 189 192 189 186 156 c 0,47,48
 182 135 182 135 190 115 c 128,-1,49
 198 95 198 95 214 79 c 128,-1,50
 230 63 230 63 254 53 c 128,-1,51
 278 43 278 43 308 43 c 0,52,53
 345 43 345 43 379.5 57.5 c 128,-1,54
 414 72 414 72 442.5 99 c 128,-1,55
 471 126 471 126 491 162.5 c 128,-1,56
 511 199 511 199 518 245 c 2,57,-1
 524 285 l 1,58,-1
 445 285 l 2,42,43
EndSplineSet
Substitution2: "Single Substitution lookup 22 subtable" uni0E38
Substitution2: "Single Substitution lookup 22 subtable" uni0E38
EndChar
StartChar: b
Encoding: 98 98 67
Width: 709
VWidth: 1533
Flags: W
HStem: -17 61<302.763 449.578> 501 60<376.869 522.671>
Fore
379 -17 m 0,0,1
 314 -17 314 -17 266.5 5.5 c 128,-1,2
 219 28 219 28 190 67 c 1,3,-1
 178 -2 l 1,4,-1
 67 -2 l 1,5,-1
 199 742 l 1,6,-1
 310 742 l 1,7,-1
 261 469 l 1,8,9
 350 561 350 561 480 561 c 0,10,11
 543 561 543 561 593.5 540.5 c 128,-1,12
 644 520 644 520 677.5 482.5 c 128,-1,13
 711 445 711 445 724 392 c 128,-1,14
 737 339 737 339 727 273 c 0,15,16
 716 213 716 213 684.5 160 c 128,-1,17
 653 107 653 107 605.5 68 c 128,-1,18
 558 29 558 29 500 6 c 128,-1,19
 442 -17 442 -17 379 -17 c 0,0,1
451 501 m 0,20,21
 415 501 415 501 378.5 483 c 128,-1,22
 342 465 342 465 311.5 433.5 c 128,-1,23
 281 402 281 402 258 359.5 c 128,-1,24
 235 317 235 317 227 270 c 0,25,26
 218 224 218 224 226.5 182.5 c 128,-1,27
 235 141 235 141 254.5 110.5 c 128,-1,28
 274 80 274 80 305 62 c 128,-1,29
 336 44 336 44 371 44 c 0,30,31
 408 44 408 44 444.5 60.5 c 128,-1,32
 481 77 481 77 513.5 106.5 c 128,-1,33
 546 136 546 136 569 177.5 c 128,-1,34
 592 219 592 219 601 270 c 0,35,36
 610 322 610 322 601 364 c 128,-1,37
 592 406 592 406 571 437 c 128,-1,38
 550 468 550 468 519 484.5 c 128,-1,39
 488 501 488 501 451 501 c 0,20,21
EndSplineSet
Substitution2: "Single Substitution lookup 22 subtable" uni0E39
Substitution2: "Single Substitution lookup 22 subtable" uni0E39
EndChar
StartChar: c
Encoding: 99 99 68
Width: 685
VWidth: 1533
Flags: W
HStem: -15 59<280.286 434.756> 491 59<358.952 525.117>
Fore
362 -15 m 0,0,1
 296 -15 296 -15 241 5.5 c 128,-1,2
 186 26 186 26 147.5 63.5 c 128,-1,3
 109 101 109 101 91.5 152.5 c 128,-1,4
 74 204 74 204 84 267 c 256,5,6
 95 330 95 330 131 382 c 128,-1,7
 167 434 167 434 218.5 471.5 c 128,-1,8
 270 509 270 509 333 529.5 c 128,-1,9
 396 550 396 550 461 550 c 0,10,11
 509 550 509 550 552.5 540 c 128,-1,12
 596 530 596 530 630.5 507 c 128,-1,13
 665 484 665 484 688 448 c 128,-1,14
 711 412 711 412 718 360 c 1,15,-1
 590 360 l 1,16,17
 575 425 575 425 539.5 458 c 128,-1,18
 504 491 504 491 445 491 c 0,19,20
 400 491 400 491 362 473 c 128,-1,21
 324 455 324 455 294 425.5 c 128,-1,22
 264 396 264 396 244 356 c 128,-1,23
 224 316 224 316 216 273 c 0,24,25
 199 172 199 172 238.5 108 c 128,-1,26
 278 44 278 44 366 44 c 0,27,28
 481 44 481 44 557 173 c 1,29,-1
 684 173 l 1,30,31
 661 123 661 123 625 87 c 128,-1,32
 589 51 589 51 546.5 28 c 128,-1,33
 504 5 504 5 456.5 -5 c 128,-1,34
 409 -15 409 -15 362 -15 c 0,0,1
EndSplineSet
Substitution2: "Single Substitution lookup 22 subtable" uni0E3A
Substitution2: "Single Substitution lookup 22 subtable" uni0E3A
EndChar
StartChar: d
Encoding: 100 100 69
Width: 709
VWidth: 1533
Flags: W
HStem: -17 61<281.049 428.242> 501 60<354.277 499.848>
Fore
540 67 m 1,0,1
 498 28 498 28 443 5.5 c 128,-1,2
 388 -17 388 -17 324 -17 c 0,3,4
 261 -17 261 -17 210 6 c 128,-1,5
 159 29 159 29 127 68 c 128,-1,6
 95 107 95 107 81 160 c 128,-1,7
 67 213 67 213 78 273 c 0,8,9
 89 339 89 339 121 392 c 128,-1,10
 153 445 153 445 200 482.5 c 128,-1,11
 247 520 247 520 304.5 540.5 c 128,-1,12
 362 561 362 561 425 561 c 0,13,14
 557 561 557 561 610 469 c 1,15,-1
 659 742 l 1,16,-1
 771 742 l 1,17,-1
 639 -2 l 1,18,-1
 527 -2 l 1,19,-1
 540 67 l 1,0,1
432 501 m 128,-1,21
 396 501 396 501 359 484.5 c 128,-1,22
 322 468 322 468 290.5 437 c 128,-1,23
 259 406 259 406 236 364 c 128,-1,24
 213 322 213 322 204 270 c 0,25,26
 195 219 195 219 203.5 177.5 c 128,-1,27
 212 136 212 136 232.5 106.5 c 128,-1,28
 253 77 253 77 284.5 60.5 c 128,-1,29
 316 44 316 44 353 44 c 256,30,31
 389 44 389 44 425 62 c 128,-1,32
 461 80 461 80 492 110.5 c 128,-1,33
 523 141 523 141 545 182.5 c 128,-1,34
 567 224 567 224 576 270 c 0,35,36
 584 317 584 317 576.5 359.5 c 128,-1,37
 569 402 569 402 548 433.5 c 128,-1,38
 527 465 527 465 497.5 483 c 128,-1,20
 468 501 468 501 432 501 c 128,-1,21
EndSplineSet
EndChar
StartChar: e
Encoding: 101 101 70
Width: 693
VWidth: 1533
Flags: W
HStem: -17 61<293.526 453.154> 314 63<262 584> 492 58<381.74 524.155>
Fore
225 314 m 1,0,1
 222 302 222 302 220 288 c 128,-1,2
 218 274 218 274 216 262 c 0,3,4
 209 221 209 221 215 182 c 128,-1,5
 221 143 221 143 241 112 c 128,-1,6
 261 81 261 81 295.5 62.5 c 128,-1,7
 330 44 330 44 379 44 c 0,8,9
 415 44 415 44 448 59.5 c 128,-1,10
 481 75 481 75 507.5 99.5 c 128,-1,11
 534 124 534 124 551.5 154 c 128,-1,12
 569 184 569 184 578 215 c 1,13,-1
 693 215 l 1,14,15
 679 159 679 159 647.5 116.5 c 128,-1,16
 616 74 616 74 572.5 44 c 128,-1,17
 529 14 529 14 476 -1.5 c 128,-1,18
 423 -17 423 -17 366 -17 c 0,19,20
 290 -17 290 -17 232.5 7 c 128,-1,21
 175 31 175 31 139 70 c 128,-1,22
 103 109 103 109 88.5 159 c 128,-1,23
 74 209 74 209 83 261 c 0,24,25
 95 327 95 327 130.5 380.5 c 128,-1,26
 166 434 166 434 215.5 471.5 c 128,-1,27
 265 509 265 509 327 529.5 c 128,-1,28
 389 550 389 550 454 550 c 0,29,30
 506 550 506 550 556 538 c 128,-1,31
 606 526 606 526 642.5 498.5 c 128,-1,32
 679 471 679 471 700 425.5 c 128,-1,33
 721 380 721 380 718 314 c 1,34,-1
 225 314 l 1,0,1
437 492 m 0,35,36
 409 492 409 492 383 482 c 128,-1,37
 357 472 357 472 334 456 c 128,-1,38
 311 440 311 440 292 419.5 c 128,-1,39
 273 399 273 399 262 377 c 1,40,-1
 584 377 l 1,41,42
 575 422 575 422 540.5 457 c 128,-1,43
 506 492 506 492 437 492 c 0,35,36
EndSplineSet
EndChar
StartChar: f
Encoding: 102 102 71
Width: 375
VWidth: 1533
Flags: W
HStem: 0 21G<117 231.503> 451 63<141 195 319 386>
VStem: 97 420<451 739 451 518>
Fore
423 661 m 0,0,1
 392 661 392 661 365.5 643.5 c 128,-1,2
 339 626 339 626 333 592 c 2,3,-1
 319 514 l 1,4,-1
 431 514 l 1,5,-1
 386 451 l 1,6,-1
 307 451 l 1,7,-1
 228 0 l 1,8,-1
 117 0 l 1,9,-1
 195 451 l 1,10,-1
 97 451 l 1,11,-1
 141 514 l 1,12,-1
 207 514 l 1,13,14
 216 567 216 567 246 611 c 128,-1,15
 276 655 276 655 318 684.5 c 128,-1,16
 360 714 360 714 411.5 729 c 128,-1,17
 463 744 463 744 517 739 c 1,18,-1
 498 632 l 1,19,20
 472 649 472 649 453 655 c 128,-1,21
 434 661 434 661 423 661 c 0,0,1
EndSplineSet
EndChar
StartChar: g
Encoding: 103 103 72
Width: 708
VWidth: 1533
Flags: W
HStem: -204 57<232.125 366.345> 49 78<281.049 390.177 390.177 417.752> 153 62<289.43 473.155> 489 61<331.136 502.403> 521.5 99.5<628.995 656 656 717.263>
VStem: 12 121<-74.5 -12.0475>
Fore
287 -204 m 0,0,1
 241 -204 241 -204 189.5 -194 c 128,-1,2
 138 -184 138 -184 96.5 -164 c 128,-1,3
 55 -144 55 -144 30 -114 c 128,-1,4
 5 -84 5 -84 12 -43 c 0,5,6
 15 -20 15 -20 33 -1 c 128,-1,7
 51 18 51 18 75.5 33 c 128,-1,8
 100 48 100 48 129 59.5 c 128,-1,9
 158 71 158 71 186 77 c 1,10,11
 161 83 161 83 149.5 98 c 128,-1,12
 138 113 138 113 141 130 c 0,13,14
 146 152 146 152 166.5 165.5 c 128,-1,15
 187 179 187 179 215 182 c 1,16,17
 156 218 156 218 134.5 264 c 128,-1,18
 113 310 113 310 121 353 c 256,19,20
 129 396 129 396 159 432.5 c 128,-1,21
 189 469 189 469 232.5 495 c 128,-1,22
 276 521 276 521 329.5 535.5 c 128,-1,23
 383 550 383 550 438 550 c 0,24,25
 460 550 460 550 489 547 c 128,-1,26
 518 544 518 544 546 537 c 1,27,28
 580 583 580 583 627.5 602.5 c 128,-1,29
 675 622 675 622 765 621 c 1,30,-1
 745 512 l 1,31,32
 690 526 690 526 656 521.5 c 128,-1,33
 622 517 622 517 604 509 c 1,34,35
 647 483 647 483 670 442.5 c 128,-1,36
 693 402 693 402 684 353 c 0,37,38
 676 310 676 310 647 274 c 128,-1,39
 618 238 618 238 574 211 c 128,-1,40
 530 184 530 184 476.5 168.5 c 128,-1,41
 423 153 423 153 368 153 c 2,42,-1
 291 153 l 2,43,44
 285 153 285 153 274.5 151.5 c 128,-1,45
 264 150 264 150 262 144 c 0,46,47
 261 136 261 136 276 131.5 c 128,-1,48
 291 127 291 127 342 127 c 0,49,50
 380 127 380 127 439 125.5 c 128,-1,51
 498 124 498 124 551 110.5 c 128,-1,52
 604 97 604 97 638.5 67 c 128,-1,53
 673 37 673 37 664 -20 c 256,54,55
 655 -77 655 -77 613.5 -112 c 128,-1,56
 572 -147 572 -147 516 -168 c 128,-1,57
 460 -189 460 -189 398.5 -196.5 c 128,-1,58
 337 -204 337 -204 287 -204 c 0,0,1
428 489 m 0,59,60
 357 489 357 489 309 453 c 128,-1,61
 261 417 261 417 248 353 c 0,62,63
 236 287 236 287 272 251 c 128,-1,64
 308 215 308 215 379 215 c 256,65,66
 449 215 449 215 496.5 251 c 128,-1,67
 544 287 544 287 557 353 c 0,68,69
 569 417 569 417 534.5 453 c 128,-1,70
 500 489 500 489 428 489 c 0,59,60
356 49 m 0,71,72
 293 49 293 49 251.5 41.5 c 128,-1,73
 210 34 210 34 184.5 20 c 128,-1,74
 159 6 159 6 147.5 -11.5 c 128,-1,75
 136 -29 136 -29 133 -49 c 0,76,77
 130 -66 130 -66 141 -83 c 128,-1,78
 152 -100 152 -100 175.5 -114.5 c 128,-1,79
 199 -129 199 -129 236 -138 c 128,-1,80
 273 -147 273 -147 322 -147 c 0,81,82
 370 -147 370 -147 409.5 -136.5 c 128,-1,83
 449 -126 449 -126 478 -111.5 c 128,-1,84
 507 -97 507 -97 524 -80 c 128,-1,85
 541 -63 541 -63 544 -49 c 0,86,87
 547 -32 547 -32 539.5 -14.5 c 128,-1,88
 532 3 532 3 510.5 17 c 128,-1,89
 489 31 489 31 450.5 40 c 128,-1,90
 412 49 412 49 356 49 c 0,71,72
EndSplineSet
EndChar
StartChar: h
Encoding: 104 104 73
Width: 683
VWidth: 1533
Flags: W
HStem: 0 21G<69 182.545 500 618.529> 491 59<363.647 520.559> 682 20G<188.496 302>
Fore
563 365 m 2,0,1
 572 414 572 414 539.5 452.5 c 128,-1,2
 507 491 507 491 434 491 c 0,3,4
 397 491 397 491 364 476 c 128,-1,5
 331 461 331 461 303.5 435 c 128,-1,6
 276 409 276 409 257 374 c 128,-1,7
 238 339 238 339 232 299 c 2,8,-1
 179 0 l 1,9,-1
 69 0 l 1,10,-1
 192 702 l 1,11,-1
 302 702 l 1,12,-1
 261 465 l 1,13,14
 304 512 304 512 360.5 531 c 128,-1,15
 417 550 417 550 457 550 c 0,16,17
 511 550 511 550 554.5 538 c 128,-1,18
 598 526 598 526 628 500 c 128,-1,19
 658 474 658 474 671 435 c 128,-1,20
 684 396 684 396 675 340 c 2,21,-1
 615 0 l 1,22,-1
 500 0 l 1,23,-1
 563 365 l 2,0,1
EndSplineSet
EndChar
StartChar: i
Encoding: 105 105 74
Width: 297
VWidth: 1533
Flags: W
HStem: 0 21G<92 205.493> 524 20G<183.507 297> 572 135<218.267 302.733>
VStem: 189 144<609.537 690.229>
Fore
248 572 m 256,0,1
 218 572 218 572 201 592 c 128,-1,2
 184 612 184 612 189 639 c 0,3,4
 193 668 193 668 217.5 687.5 c 128,-1,5
 242 707 242 707 273 707 c 256,6,7
 304 707 304 707 320.5 687.5 c 128,-1,8
 337 668 337 668 333 639 c 0,9,10
 328 612 328 612 303.5 592 c 128,-1,11
 279 572 279 572 248 572 c 256,0,1
187 544 m 1,12,-1
 297 544 l 1,13,-1
 202 0 l 1,14,-1
 92 0 l 1,15,-1
 187 544 l 1,12,-1
EndSplineSet
EndChar
StartChar: j
Encoding: 106 106 75
Width: 325
VWidth: 1533
Flags: W
HStem: -189 80<-27.6177 50.7218> 521 20G<211.446 327> 570 137<246.267 330.733>
VStem: -117 477<-155 639 -155 336.581>
Fore
276 570 m 256,0,1
 245 570 245 570 228.5 590 c 128,-1,2
 212 610 212 610 216 639 c 256,3,4
 221 668 221 668 245.5 687.5 c 128,-1,5
 270 707 270 707 301 707 c 256,6,7
 331 707 331 707 348 687.5 c 128,-1,8
 365 668 365 668 360 639 c 256,9,10
 356 610 356 610 331.5 590 c 128,-1,11
 307 570 307 570 276 570 c 256,0,1
-2 -189 m 0,12,13
 -23 -189 -23 -189 -56.5 -182.5 c 128,-1,14
 -90 -176 -90 -176 -117 -155 c 1,15,-1
 -54 -78 l 1,16,17
 -38 -95 -38 -95 -20.5 -102 c 128,-1,18
 -3 -109 -3 -109 6 -109 c 0,19,20
 26 -109 26 -109 44.5 -102 c 128,-1,21
 63 -95 63 -95 79 -76.5 c 128,-1,22
 95 -58 95 -58 107.5 -26 c 128,-1,23
 120 6 120 6 129 57 c 2,24,-1
 215 541 l 1,25,-1
 327 541 l 1,26,-1
 245 80 l 2,27,28
 232 6 232 6 206.5 -45.5 c 128,-1,29
 181 -97 181 -97 148 -128 c 128,-1,30
 115 -159 115 -159 76.5 -174 c 128,-1,31
 38 -189 38 -189 -2 -189 c 0,12,13
EndSplineSet
EndChar
StartChar: k
Encoding: 107 107 76
Width: 614
VWidth: 1533
Flags: W
HStem: 0 21G<69 182.485 488.404 629> 526 20G<530.811 676>
Fore
322 307 m 1,0,-1
 221 241 l 1,1,-1
 179 0 l 1,2,-1
 69 0 l 1,3,-1
 199 742 l 1,4,-1
 310 742 l 1,5,-1
 236 324 l 1,6,-1
 560 546 l 1,7,-1
 676 546 l 1,8,-1
 417 373 l 1,9,-1
 629 0 l 1,10,-1
 500 0 l 1,11,-1
 322 307 l 1,0,-1
EndSplineSet
EndChar
StartChar: l
Encoding: 108 108 77
Width: 248
VWidth: 1533
Flags: W
HStem: 0 21G<69 182.531>
VStem: 69 241<0 742 1.53064e-18 1.53064e-18>
Fore
199 742 m 1,0,-1
 310 742 l 1,1,-1
 179 0 l 1,2,-1
 69 0 l 1,3,-1
 199 742 l 1,0,-1
EndSplineSet
EndChar
StartChar: m
Encoding: 109 109 78
Width: 1048
VWidth: 1533
Flags: W
HStem: 0 21G<69 182.545 474 592.443 865 983.478> 489 60<355.102 495.692 760.435 885.611>
Fore
926 354 m 2,0,1
 937 412 937 412 904 450.5 c 128,-1,2
 871 489 871 489 814 489 c 0,3,4
 750 489 750 489 704 438.5 c 128,-1,5
 658 388 658 388 636 273 c 2,6,-1
 589 0 l 1,7,-1
 474 0 l 1,8,-1
 524 293 l 2,9,10
 541 382 541 382 518 435.5 c 128,-1,11
 495 489 495 489 428 489 c 0,12,13
 392 489 392 489 359.5 473 c 128,-1,14
 327 457 327 457 300.5 430 c 128,-1,15
 274 403 274 403 256 368.5 c 128,-1,16
 238 334 238 334 232 299 c 2,17,-1
 179 0 l 1,18,-1
 69 0 l 1,19,-1
 163 534 l 1,20,-1
 273 534 l 1,21,-1
 259 460 l 1,22,23
 294 506 294 506 348 527.5 c 128,-1,24
 402 549 402 549 455 549 c 0,25,26
 514 549 514 549 559 521.5 c 128,-1,27
 604 494 604 494 624 429 c 1,28,29
 645 466 645 466 670.5 490 c 128,-1,30
 696 514 696 514 723 527 c 128,-1,31
 750 540 750 540 776.5 544.5 c 128,-1,32
 803 549 803 549 829 549 c 0,33,34
 872 549 872 549 914.5 539 c 128,-1,35
 957 529 957 529 988.5 504.5 c 128,-1,36
 1020 480 1020 480 1035 441 c 128,-1,37
 1050 402 1050 402 1040 345 c 2,38,-1
 980 0 l 1,39,-1
 865 0 l 1,40,-1
 926 354 l 2,0,1
EndSplineSet
EndChar
StartChar: n
Encoding: 110 110 79
Width: 683
VWidth: 1533
Flags: W
HStem: 0 21G<69 182.545 500 618.422> 489 60<363.647 520.559>
Fore
563 363 m 2,0,1
 572 412 572 412 539.5 450.5 c 128,-1,2
 507 489 507 489 434 489 c 0,3,4
 397 489 397 489 364 474.5 c 128,-1,5
 331 460 331 460 303.5 434 c 128,-1,6
 276 408 276 408 257 373.5 c 128,-1,7
 238 339 238 339 232 299 c 2,8,-1
 179 0 l 1,9,-1
 69 0 l 1,10,-1
 163 534 l 1,11,-1
 273 534 l 1,12,-1
 261 465 l 1,13,14
 304 512 304 512 360.5 530.5 c 128,-1,15
 417 549 417 549 457 549 c 0,16,17
 511 549 511 549 554.5 536.5 c 128,-1,18
 598 524 598 524 628 498 c 128,-1,19
 658 472 658 472 670 433 c 128,-1,20
 682 394 682 394 673 339 c 2,21,-1
 615 0 l 1,22,-1
 500 0 l 1,23,-1
 563 363 l 2,0,1
EndSplineSet
EndChar
StartChar: o
Encoding: 111 111 80
Width: 708
VWidth: 1533
Flags: W
HStem: -15 59<271.304 462.629> 488 59<340.847 531.733>
Fore
350 -15 m 0,0,1
 282 -15 282 -15 227 4 c 128,-1,2
 172 23 172 23 135 60 c 128,-1,3
 98 97 98 97 81 149 c 128,-1,4
 64 201 64 201 77 267 c 0,5,6
 87 333 87 333 122.5 385 c 128,-1,7
 158 437 158 437 208 473 c 128,-1,8
 258 509 258 509 320 528 c 128,-1,9
 382 547 382 547 449 547 c 0,10,11
 515 547 515 547 571 528 c 128,-1,12
 627 509 627 509 664.5 473 c 128,-1,13
 702 437 702 437 718 385 c 128,-1,14
 734 333 734 333 724 267 c 0,15,16
 711 201 711 201 676.5 149 c 128,-1,17
 642 97 642 97 591.5 60 c 128,-1,18
 541 23 541 23 478 4 c 128,-1,19
 415 -15 415 -15 350 -15 c 0,0,1
440 488 m 256,20,21
 353 488 353 488 289 432.5 c 128,-1,22
 225 377 225 377 205 267 c 256,23,24
 186 156 186 156 231 100 c 128,-1,25
 276 44 276 44 363 44 c 256,26,27
 451 44 451 44 513.5 100 c 128,-1,28
 576 156 576 156 596 267 c 256,29,30
 616 377 616 377 571.5 432.5 c 128,-1,31
 527 488 527 488 440 488 c 256,20,21
EndSplineSet
EndChar
StartChar: p
Encoding: 112 112 81
Width: 717
VWidth: 1533
Flags: W
HStem: -198 21G<34 147.488> -29 60<301.081 447.459> 486 61<372.891 520.32>
Fore
376 -29 m 0,0,1
 311 -29 311 -29 263.5 -4.5 c 128,-1,2
 216 20 216 20 189 60 c 1,3,-1
 144 -198 l 1,4,-1
 34 -198 l 1,5,-1
 163 532 l 1,6,-1
 258 532 l 1,7,-1
 251 452 l 1,8,9
 291 497 291 497 350 522 c 128,-1,10
 409 547 409 547 477 547 c 0,11,12
 540 547 540 547 590.5 524 c 128,-1,13
 641 501 641 501 674 462 c 128,-1,14
 707 423 707 423 720.5 371 c 128,-1,15
 734 319 734 319 724 259 c 0,16,17
 711 193 711 193 679 139.5 c 128,-1,18
 647 86 647 86 600 48.5 c 128,-1,19
 553 11 553 11 495.5 -9 c 128,-1,20
 438 -29 438 -29 376 -29 c 0,0,1
448 486 m 128,-1,22
 412 486 412 486 376 468.5 c 128,-1,23
 340 451 340 451 309 421 c 128,-1,24
 278 391 278 391 255.5 349.5 c 128,-1,25
 233 308 233 308 225 262 c 0,26,27
 216 215 216 215 224.5 172.5 c 128,-1,28
 233 130 233 130 253 98.5 c 128,-1,29
 273 67 273 67 303 49 c 128,-1,30
 333 31 333 31 368 31 c 0,31,32
 405 31 405 31 442.5 47.5 c 128,-1,33
 480 64 480 64 511.5 95 c 128,-1,34
 543 126 543 126 566.5 168 c 128,-1,35
 590 210 590 210 599 262 c 0,36,37
 609 313 609 313 599.5 353.5 c 128,-1,38
 590 394 590 394 568.5 424 c 128,-1,39
 547 454 547 454 515.5 470 c 128,-1,21
 484 486 484 486 448 486 c 128,-1,22
EndSplineSet
EndChar
StartChar: q
Encoding: 113 113 82
Width: 717
VWidth: 1533
Flags: W
HStem: -198 21G<503 616.534> -29 60<285.583 433.749> 486 61<358.384 506.566>
Fore
547 60 m 1,0,1
 506 20 506 20 450 -4.5 c 128,-1,2
 394 -29 394 -29 330 -29 c 0,3,4
 267 -29 267 -29 215.5 -9 c 128,-1,5
 164 11 164 11 131 48.5 c 128,-1,6
 98 86 98 86 84.5 139.5 c 128,-1,7
 71 193 71 193 83 259 c 0,8,9
 94 319 94 319 125 371 c 128,-1,10
 156 423 156 423 203.5 462 c 128,-1,11
 251 501 251 501 309.5 524 c 128,-1,12
 368 547 368 547 431 547 c 0,13,14
 498 547 498 547 548.5 522 c 128,-1,15
 599 497 599 497 626 452 c 1,16,-1
 647 532 l 1,17,-1
 742 532 l 1,18,-1
 613 -198 l 1,19,-1
 503 -198 l 1,20,-1
 547 60 l 1,0,1
437 486 m 256,21,22
 400 486 400 486 363.5 470 c 128,-1,23
 327 454 327 454 296 424 c 128,-1,24
 265 394 265 394 242 353.5 c 128,-1,25
 219 313 219 313 210 262 c 0,26,27
 201 210 201 210 209.5 168 c 128,-1,28
 218 126 218 126 238.5 95 c 128,-1,29
 259 64 259 64 289.5 47.5 c 128,-1,30
 320 31 320 31 357 31 c 256,31,32
 394 31 394 31 431 49 c 128,-1,33
 468 67 468 67 498.5 98.5 c 128,-1,34
 529 130 529 130 552 172.5 c 128,-1,35
 575 215 575 215 584 262 c 0,36,37
 592 308 592 308 583.5 349.5 c 128,-1,38
 575 391 575 391 554.5 421 c 128,-1,39
 534 451 534 451 504 468.5 c 128,-1,40
 474 486 474 486 437 486 c 256,21,22
EndSplineSet
EndChar
StartChar: r
Encoding: 114 114 83
Width: 404
VWidth: 1533
Flags: W
HStem: 0 21G<69 182.517> 514 20G<159.479 273>
VStem: 69 422<0 543 -65.3814 0>
Fore
452 438 m 1,0,1
 440 448 440 448 421.5 454.5 c 128,-1,2
 403 461 403 461 396 461 c 0,3,4
 325 461 325 461 284.5 415.5 c 128,-1,5
 244 370 244 370 230 290 c 2,6,-1
 179 0 l 1,7,-1
 69 0 l 1,8,-1
 163 534 l 1,9,-1
 273 534 l 1,10,-1
 258 451 l 1,11,12
 301 509 301 509 361.5 529.5 c 128,-1,13
 422 550 422 550 491 543 c 1,14,-1
 452 438 l 1,0,1
EndSplineSet
EndChar
StartChar: s
Encoding: 115 115 84
Width: 636
VWidth: 1533
Flags: W
HStem: -18 59<266.326 406.842> 488 59<335.885 466.617>
VStem: 140 116<371.661 444.865>
Fore
316 -18 m 0,0,1
 264 -18 264 -18 218.5 -5 c 128,-1,2
 173 8 173 8 140 32.5 c 128,-1,3
 107 57 107 57 88 93.5 c 128,-1,4
 69 130 69 130 69 178 c 1,5,-1
 184 178 l 1,6,7
 184 152 184 152 193 128 c 128,-1,8
 202 104 202 104 219 84 c 128,-1,9
 236 64 236 64 263 52.5 c 128,-1,10
 290 41 290 41 327 41 c 0,11,12
 400 41 400 41 449 69 c 128,-1,13
 498 97 498 97 506 143 c 0,14,15
 509 163 509 163 500 175 c 128,-1,16
 491 187 491 187 474.5 195.5 c 128,-1,17
 458 204 458 204 440 208 c 128,-1,18
 422 212 422 212 408 215 c 0,19,20
 370 222 370 222 319 229 c 128,-1,21
 268 236 268 236 225 253 c 128,-1,22
 182 270 182 270 156 301.5 c 128,-1,23
 130 333 130 333 140 389 c 0,24,25
 147 434 147 434 176 464 c 128,-1,26
 205 494 205 494 246 512 c 128,-1,27
 287 530 287 530 333 538.5 c 128,-1,28
 379 547 379 547 420 547 c 0,29,30
 526 547 526 547 592 497.5 c 128,-1,31
 658 448 658 448 658 353 c 1,32,-1
 541 353 l 1,33,34
 541 377 541 377 533.5 401.5 c 128,-1,35
 526 426 526 426 510.5 445.5 c 128,-1,36
 495 465 495 465 470 476.5 c 128,-1,37
 445 488 445 488 409 488 c 0,38,39
 343 488 343 488 302.5 464 c 128,-1,40
 262 440 262 440 256 405 c 0,41,42
 253 383 253 383 260.5 369.5 c 128,-1,43
 268 356 268 356 283.5 346.5 c 128,-1,44
 299 337 299 337 317.5 332 c 128,-1,45
 336 327 336 327 354 324 c 0,46,47
 373 319 373 319 395 316 c 128,-1,48
 417 313 417 313 440 308 c 0,49,50
 471 304 471 304 506 295.5 c 128,-1,51
 541 287 541 287 570 271 c 128,-1,52
 599 255 599 255 616 228.5 c 128,-1,53
 633 202 633 202 626 161 c 0,54,55
 616 110 616 110 585.5 75.5 c 128,-1,56
 555 41 555 41 511.5 20.5 c 128,-1,57
 468 0 468 0 417 -9 c 128,-1,58
 366 -18 366 -18 316 -18 c 0,0,1
EndSplineSet
EndChar
StartChar: t
Encoding: 116 116 85
Width: 394
VWidth: 1533
Flags: W
HStem: -9 72<263.99 314.068> 448 58<124 195 316 411 113 422 124 124>
Fore
270 -9 m 0,0,1
 198 -9 198 -9 163.5 34.5 c 128,-1,2
 129 78 129 78 146 170 c 2,3,-1
 195 448 l 1,4,-1
 113 448 l 1,5,-1
 124 506 l 1,6,-1
 204 506 l 1,7,-1
 288 656 l 1,8,-1
 342 656 l 1,9,-1
 316 506 l 1,10,-1
 422 506 l 1,11,-1
 411 448 l 1,12,-1
 305 448 l 1,13,-1
 253 153 l 2,14,15
 248 123 248 123 249.5 105 c 128,-1,16
 251 87 251 87 257.5 78 c 128,-1,17
 264 69 264 69 273 66 c 128,-1,18
 282 63 282 63 291 63 c 0,19,20
 311 63 311 63 335 72 c 128,-1,21
 359 81 359 81 396 101 c 1,22,-1
 380 17 l 1,23,24
 359 5 359 5 329 -2 c 128,-1,25
 299 -9 299 -9 270 -9 c 0,0,1
EndSplineSet
EndChar
StartChar: u
Encoding: 117 117 86
Width: 683
VWidth: 1533
Flags: W
HStem: -17 60<255.051 383.398> 514 20G<159.481 276 592.455 708>
Fore
514 69 m 1,0,1
 492 46 492 46 467 29 c 128,-1,2
 442 12 442 12 415.5 2 c 128,-1,3
 389 -8 389 -8 364 -12.5 c 128,-1,4
 339 -17 339 -17 319 -17 c 0,5,6
 265 -17 265 -17 221.5 -4.5 c 128,-1,7
 178 8 178 8 148 34 c 128,-1,8
 118 60 118 60 106 100 c 128,-1,9
 94 140 94 140 103 193 c 2,10,-1
 163 534 l 1,11,-1
 276 534 l 1,12,-1
 212 170 l 2,13,14
 204 121 204 121 236 82 c 128,-1,15
 268 43 268 43 340 43 c 0,16,17
 377 43 377 43 410 58.5 c 128,-1,18
 443 74 443 74 470.5 100 c 128,-1,19
 498 126 498 126 516.5 160.5 c 128,-1,20
 535 195 535 195 543 235 c 2,21,-1
 596 534 l 1,22,-1
 708 534 l 1,23,-1
 613 -2 l 1,24,-1
 501 -2 l 1,25,-1
 514 69 l 1,0,1
EndSplineSet
EndChar
StartChar: v
Encoding: 118 118 87
Width: 645
VWidth: 1533
Flags: W
HStem: -17 21G<296.523 353.338> 514 20G<98 231.519 646.614 734>
Fore
304 -17 m 1,0,-1
 98 534 l 1,1,-1
 224 534 l 1,2,-1
 374 135 l 1,3,-1
 661 534 l 1,4,-1
 734 534 l 1,5,-1
 339 -17 l 1,6,-1
 304 -17 l 1,0,-1
EndSplineSet
EndChar
StartChar: w
Encoding: 119 119 88
Width: 962
VWidth: 1533
Flags: W
HStem: -17 21G<267.612 323.541 643.27 700.249> 514 20G<98 227.193 573.85 615.743 966.905 1052>
Fore
649 -17 m 1,0,-1
 543 353 l 1,1,-1
 311 -17 l 1,2,-1
 274 -17 l 1,3,-1
 98 534 l 1,4,-1
 221 534 l 1,5,-1
 343 140 l 1,6,-1
 586 540 l 1,7,-1
 610 540 l 1,8,-1
 724 143 l 1,9,-1
 980 534 l 1,10,-1
 1052 534 l 1,11,-1
 687 -17 l 1,12,-1
 649 -17 l 1,0,-1
EndSplineSet
EndChar
StartChar: x
Encoding: 120 120 89
Width: 630
VWidth: 1533
Flags: W
HStem: 0 21G<18 125.604 476.094 626> 514 20G<98 247.608 576.824 684>
Fore
333 212 m 1,0,-1
 104 0 l 1,1,-1
 18 0 l 1,2,-1
 301 256 l 1,3,-1
 98 534 l 1,4,-1
 233 534 l 1,5,-1
 382 330 l 1,6,-1
 598 534 l 1,7,-1
 684 534 l 1,8,-1
 414 287 l 1,9,-1
 626 0 l 1,10,-1
 491 0 l 1,11,-1
 333 212 l 1,0,-1
EndSplineSet
EndChar
StartChar: y
Encoding: 121 121 90
Width: 650
VWidth: 1533
Flags: W
HStem: -202 79<79.8113 174.593> 514 20G<98 231.317 650.805 739>
Fore
120 -123 m 0,0,1
 152 -123 152 -123 178.5 -108.5 c 128,-1,2
 205 -94 205 -94 226 -73 c 128,-1,3
 247 -52 247 -52 260 -28.5 c 128,-1,4
 273 -5 273 -5 276 14 c 0,5,6
 279 31 279 31 276 44 c 128,-1,7
 273 57 273 57 270 67 c 2,8,-1
 98 534 l 1,9,-1
 224 534 l 1,10,-1
 374 124 l 1,11,-1
 665 534 l 1,12,-1
 739 534 l 1,13,-1
 351 -14 l 2,14,15
 324 -51 324 -51 294.5 -85.5 c 128,-1,16
 265 -120 265 -120 234.5 -146 c 128,-1,17
 204 -172 204 -172 172.5 -187 c 128,-1,18
 141 -202 141 -202 110 -202 c 256,19,20
 80 -202 80 -202 47 -196 c 128,-1,21
 14 -190 14 -190 -11 -169 c 1,22,-1
 51 -92 l 1,23,24
 66 -109 66 -109 87.5 -116 c 128,-1,25
 109 -123 109 -123 120 -123 c 0,0,1
EndSplineSet
EndChar
StartChar: z
Encoding: 122 122 91
Width: 630
VWidth: 1533
Flags: W
HStem: 0 60<212 552> 474 60<199 512>
Fore
593 60 m 1,0,-1
 552 0 l 1,1,-1
 15 0 l 1,2,-1
 512 474 l 1,3,-1
 161 474 l 1,4,-1
 199 534 l 1,5,-1
 708 534 l 1,6,-1
 212 60 l 1,7,-1
 593 60 l 1,0,-1
EndSplineSet
EndChar
StartChar: braceleft
Encoding: 123 123 92
Width: 432
VWidth: 1533
Flags: W
HStem: -209 46<268.538 322> 695 44<412.724 480>
VStem: 97 391<265 739 415.976 539.568>
Fore
480 695 m 1,0,1
 435 695 435 695 412 673.5 c 128,-1,2
 389 652 389 652 377 590 c 2,3,-1
 345 403 l 2,4,5
 337 356 337 356 305 318.5 c 128,-1,6
 273 281 273 281 224 262 c 1,7,8
 265 251 265 251 285 214.5 c 128,-1,9
 305 178 305 178 296 129 c 2,10,-1
 264 -58 l 2,11,12
 251 -120 251 -120 268 -141.5 c 128,-1,13
 285 -163 285 -163 330 -163 c 1,14,-1
 322 -209 l 1,15,16
 276 -209 276 -209 239 -202 c 128,-1,17
 202 -195 202 -195 177.5 -177 c 128,-1,18
 153 -159 153 -159 144 -129.5 c 128,-1,19
 135 -100 135 -100 143 -55 c 2,20,-1
 178 141 l 2,21,22
 186 190 186 190 171 219 c 128,-1,23
 156 248 156 248 97 265 c 1,24,25
 164 290 164 290 188.5 316 c 128,-1,26
 213 342 213 342 221 391 c 2,27,-1
 256 586 l 2,28,29
 271 676 271 676 332.5 707.5 c 128,-1,30
 394 739 394 739 488 739 c 1,31,-1
 480 695 l 1,0,1
EndSplineSet
EndChar
StartChar: bar
Encoding: 124 124 93
Width: 315
VWidth: 1533
Flags: W
VStem: 52 307<-279 839 -279 -279>
Fore
52 -279 m 1,0,-1
 250 839 l 1,1,-1
 359 839 l 1,2,-1
 161 -279 l 1,3,-1
 52 -279 l 1,0,-1
EndSplineSet
EndChar
StartChar: braceright
Encoding: 125 125 94
Width: 432
VWidth: 1533
Flags: W
HStem: -209 46<44 90.1685> 695 44<202 255.122>
VStem: 37 391<-209 265 -277.015 -132.839>
Fore
428 265 m 1,0,1
 394 256 394 256 372 244.5 c 128,-1,2
 350 233 350 233 336 218.5 c 128,-1,3
 322 204 322 204 315 185 c 128,-1,4
 308 166 308 166 304 141 c 2,5,-1
 268 -55 l 2,6,7
 261 -100 261 -100 241 -129.5 c 128,-1,8
 221 -159 221 -159 192 -177 c 128,-1,9
 163 -195 163 -195 123.5 -202 c 128,-1,10
 84 -209 84 -209 37 -209 c 1,11,-1
 44 -163 l 1,12,13
 89 -163 89 -163 112 -141.5 c 128,-1,14
 135 -120 135 -120 147 -58 c 2,15,-1
 179 129 l 2,16,17
 189 178 189 178 222 214.5 c 128,-1,18
 255 251 255 251 301 262 c 1,19,20
 256 281 256 281 238.5 318.5 c 128,-1,21
 221 356 221 356 228 403 c 2,22,-1
 261 590 l 2,23,24
 273 652 273 652 256 673.5 c 128,-1,25
 239 695 239 695 195 695 c 1,26,-1
 202 739 l 1,27,28
 250 739 250 739 287 732 c 128,-1,29
 324 725 324 725 347.5 707.5 c 128,-1,30
 371 690 371 690 380 661 c 128,-1,31
 389 632 389 632 382 586 c 2,32,-1
 347 391 l 2,33,34
 339 342 339 342 354.5 316 c 128,-1,35
 370 290 370 290 428 265 c 1,0,1
EndSplineSet
EndChar
StartChar: asciitilde
Encoding: 126 126 95
Width: 706
VWidth: 1533
Flags: W
HStem: 221 81<480.628 582.221> 279 83<239.662 325.758>
Fore
695 313 m 1,0,1
 650 273 650 273 608.5 247 c 128,-1,2
 567 221 567 221 509 221 c 0,3,4
 477 221 477 221 449.5 230 c 128,-1,5
 422 239 422 239 394 250 c 128,-1,6
 366 261 366 261 338.5 270 c 128,-1,7
 311 279 311 279 279 279 c 0,8,9
 244 279 244 279 220 254.5 c 128,-1,10
 196 230 196 230 172 205 c 1,11,-1
 113 270 l 1,12,13
 136 293 136 293 157 310 c 128,-1,14
 178 327 178 327 198.5 338.5 c 128,-1,15
 219 350 219 350 243.5 356 c 128,-1,16
 268 362 268 362 301 362 c 0,17,18
 331 362 331 362 359.5 352.5 c 128,-1,19
 388 343 388 343 415 331.5 c 128,-1,20
 442 320 442 320 468.5 311 c 128,-1,21
 495 302 495 302 524 302 c 0,22,23
 558 302 558 302 585.5 326.5 c 128,-1,24
 613 351 613 351 633 374 c 1,25,-1
 695 313 l 1,0,1
EndSplineSet
EndChar
StartChar: uni0E33.alt1
Encoding: 65539 -1 96
Width: 633
VWidth: 1533
Flags: W
HStem: 0 21G<434 560.5> 570 54<312.774 473.589> 690 49<-329.326 -235.383> 895 53<-291.064 -196.844>
Fore
-127 819 m 0,0,1
 -132 793 -132 793 -146.5 769 c 128,-1,2
 -161 745 -161 745 -183 727.5 c 128,-1,3
 -205 710 -205 710 -231.5 700 c 128,-1,4
 -258 690 -258 690 -285 690 c 0,5,6
 -340 690 -340 690 -373 727.5 c 128,-1,7
 -406 765 -406 765 -397 819 c 0,8,9
 -392 845 -392 845 -377.5 868.5 c 128,-1,10
 -363 892 -363 892 -341.5 910 c 128,-1,11
 -320 928 -320 928 -294 938 c 128,-1,12
 -268 948 -268 948 -241 948 c 0,13,14
 -186 948 -186 948 -152 910 c 128,-1,15
 -118 872 -118 872 -127 819 c 0,0,1
434 0 m 1,16,-1
 509 426 l 2,17,18
 520 488 520 488 493 529 c 128,-1,19
 466 570 466 570 391 570 c 0,20,21
 351 570 351 570 320.5 557 c 128,-1,22
 290 544 290 544 267 522.5 c 128,-1,23
 244 501 244 501 228.5 473.5 c 128,-1,24
 213 446 213 446 207 419 c 1,25,-1
 81 419 l 1,26,27
 113 514 113 514 195.5 569 c 128,-1,28
 278 624 278 624 400 624 c 0,29,30
 521 624 521 624 584 571 c 128,-1,31
 647 518 647 518 627 400 c 2,32,-1
 557 0 l 1,33,-1
 434 0 l 1,16,-1
-181 817 m 0,34,35
 -175 849 -175 849 -195.5 872 c 128,-1,36
 -216 895 -216 895 -250 895 c 256,37,38
 -284 895 -284 895 -312 872 c 128,-1,39
 -340 849 -340 849 -347 817 c 0,40,41
 -351 785 -351 785 -331 762 c 128,-1,42
 -311 739 -311 739 -278 739 c 256,43,44
 -244 739 -244 739 -215 762 c 128,-1,45
 -186 785 -186 785 -181 817 c 0,34,35
EndSplineSet
EndChar
StartChar: quotedbl
Encoding: 34 34 97
Width: 420
VWidth: 1533
Flags: W
HStem: 386 351
VStem: 176 295<386 686 386 396.938>
Fore
379 386 m 1,0,-1
 339 386 l 1,1,-1
 348 664 l 2,2,3
 348 673 348 673 352 686 c 128,-1,4
 356 699 356 699 364.5 710.5 c 128,-1,5
 373 722 373 722 386.5 729.5 c 128,-1,6
 400 737 400 737 420 737 c 256,7,8
 440 737 440 737 450.5 729.5 c 128,-1,9
 461 722 461 722 466 710.5 c 128,-1,10
 471 699 471 699 471 686 c 128,-1,11
 471 673 471 673 468 664 c 2,12,-1
 379 386 l 1,0,-1
216 386 m 1,13,-1
 176 386 l 1,14,-1
 187 664 l 2,15,16
 187 673 187 673 191 686 c 128,-1,17
 195 699 195 699 203.5 710.5 c 128,-1,18
 212 722 212 722 225 729.5 c 128,-1,19
 238 737 238 737 258 737 c 256,20,21
 278 737 278 737 288.5 729.5 c 128,-1,22
 299 722 299 722 303.5 710.5 c 128,-1,23
 308 699 308 699 308 686 c 128,-1,24
 308 673 308 673 305 664 c 2,25,-1
 216 386 l 1,13,-1
EndSplineSet
EndChar
StartChar: exclam
Encoding: 33 33 98
Width: 358
VWidth: 1533
Flags: W
HStem: -15 138<147.298 232.733> 719 20G<296 320.5>
VStem: 117 253.5<54 652.5 54 54>
Fore
235 164 m 1,0,-1
 181 164 l 1,1,-1
 210 601 l 2,2,3
 212 627 212 627 218.5 652.5 c 128,-1,4
 225 678 225 678 236.5 697 c 128,-1,5
 248 716 248 716 266 727.5 c 128,-1,6
 284 739 284 739 308 739 c 256,7,8
 333 739 333 739 346.5 727.5 c 128,-1,9
 360 716 360 716 366.5 697 c 128,-1,10
 373 678 373 678 370.5 652.5 c 128,-1,11
 368 627 368 627 360 601 c 2,12,-1
 235 164 l 1,0,-1
264 54 m 0,13,14
 258 25 258 25 233.5 5 c 128,-1,15
 209 -15 209 -15 178 -15 c 256,16,17
 147 -15 147 -15 128.5 5 c 128,-1,18
 110 25 110 25 117 54 c 0,19,20
 121 83 121 83 146.5 103 c 128,-1,21
 172 123 172 123 202 123 c 256,22,23
 233 123 233 123 250.5 103 c 128,-1,24
 268 83 268 83 264 54 c 0,13,14
EndSplineSet
EndChar
StartChar: uni0E4E.alt1
Encoding: 65540 -1 99
Width: 0
VWidth: 1533
Flags: W
HStem: 649.5 43.5<-173.055 -165.404 -165.404 -112> 823 36<-114.038 -72> 960 43<-54.556 12.6395>
VStem: -348 377<748 1003 674.596 728>
Fore
9 960 m 1,0,1
 -54 971 -54 971 -87.5 953 c 128,-1,2
 -121 935 -121 935 -126 909 c 0,3,4
 -129 895 -129 895 -114.5 877 c 128,-1,5
 -100 859 -100 859 -49 859 c 1,6,-1
 -72 823 l 1,7,8
 -130 817 -130 817 -176 800 c 128,-1,9
 -222 783 -222 783 -228 748 c 0,10,11
 -235 721 -235 721 -203.5 705.5 c 128,-1,12
 -172 690 -172 690 -92 693 c 1,13,-1
 -112 655 l 1,14,15
 -158 649 -158 649 -203 649.5 c 128,-1,16
 -248 650 -248 650 -282.5 660 c 128,-1,17
 -317 670 -317 670 -335.5 691.5 c 128,-1,18
 -354 713 -354 713 -348 748 c 0,19,20
 -345 771 -345 771 -327.5 788.5 c 128,-1,21
 -310 806 -310 806 -284.5 820 c 128,-1,22
 -259 834 -259 834 -230.5 841.5 c 128,-1,23
 -202 849 -202 849 -176 851 c 1,24,25
 -210 856 -210 856 -224 873.5 c 128,-1,26
 -238 891 -238 891 -233 914 c 0,27,28
 -227 951 -227 951 -202.5 972.5 c 128,-1,29
 -178 994 -178 994 -141 1003 c 128,-1,30
 -104 1012 -104 1012 -60.5 1011 c 128,-1,31
 -17 1010 -17 1010 29 1003 c 1,32,-1
 9 960 l 1,0,1
EndSplineSet
EndChar
StartChar: exclamdown
Encoding: 161 161 100
Width: 315
VWidth: 1533
Flags: W
HStem: 461 140<220.783 305.733>
VStem: 190 147<503.299 584.635>
Fore
337 532 m 0,0,1
 331 503 331 503 306.5 482 c 128,-1,2
 282 461 282 461 251 461 c 256,3,4
 221 461 221 461 202.5 482 c 128,-1,5
 184 503 184 503 190 532 c 0,6,7
 195 561 195 561 220 581 c 128,-1,8
 245 601 245 601 276 601 c 256,9,10
 307 601 307 601 324.5 581 c 128,-1,11
 342 561 342 561 337 532 c 0,0,1
244 -15 m 2,12,13
 242 -41 242 -41 235 -66.5 c 128,-1,14
 228 -92 228 -92 216.5 -111 c 128,-1,15
 205 -130 205 -130 187 -141.5 c 128,-1,16
 169 -153 169 -153 144 -153 c 256,17,18
 120 -153 120 -153 107 -141.5 c 128,-1,19
 94 -130 94 -130 88.5 -111 c 128,-1,20
 83 -92 83 -92 84.5 -66.5 c 128,-1,21
 86 -41 86 -41 94 -15 c 2,22,-1
 219 423 l 1,23,-1
 273 423 l 1,24,-1
 244 -15 l 2,12,13
EndSplineSet
EndChar
StartChar: cent
Encoding: 162 162 101
Width: 607
VWidth: 1533
Flags: W
HStem: -18 168<292.496 351> 104 46<260.091 291> 547 46<460 484.144> 547 158<399 458.456>
VStem: 537 107<432 504.901>
Fore
616 264 m 1,0,1
 578 186 578 186 513 148 c 128,-1,2
 448 110 448 110 373 103 c 1,3,-1
 351 -18 l 1,4,-1
 270 -18 l 1,5,-1
 291 104 l 1,6,7
 244 110 244 110 204 131 c 128,-1,8
 164 152 164 152 138 184 c 128,-1,9
 112 216 112 216 100.5 258.5 c 128,-1,10
 89 301 89 301 98 350 c 0,11,12
 107 397 107 397 132.5 438.5 c 128,-1,13
 158 480 158 480 195.5 512 c 128,-1,14
 233 544 233 544 280.5 564 c 128,-1,15
 328 584 328 584 379 592 c 1,16,-1
 399 705 l 1,17,-1
 480 705 l 1,18,-1
 460 593 l 1,19,20
 532 586 532 586 583.5 548.5 c 128,-1,21
 635 511 635 511 644 432 c 1,22,-1
 537 432 l 1,23,24
 514 547 514 547 408 547 c 0,25,26
 368 547 368 547 334.5 531 c 128,-1,27
 301 515 301 515 274.5 489 c 128,-1,28
 248 463 248 463 230.5 427 c 128,-1,29
 213 391 213 391 207 353 c 0,30,31
 192 265 192 265 226.5 207.5 c 128,-1,32
 261 150 261 150 339 150 c 0,33,34
 392 150 392 150 433.5 179.5 c 128,-1,35
 475 209 475 209 507 264 c 1,36,-1
 616 264 l 1,0,1
EndSplineSet
EndChar
StartChar: sterling
Encoding: 163 163 102
Width: 781
VWidth: 1533
Flags: W
HStem: -18 107<567.286 641.804> -15 66<130.141 189.227> 169 52<180.078 262.051> 333 58<244 310 466 616> 639 54<500.439 615.408>
Fore
816 193 m 1,0,1
 797 152 797 152 770.5 113.5 c 128,-1,2
 744 75 744 75 711 46 c 128,-1,3
 678 17 678 17 638 -0.5 c 128,-1,4
 598 -18 598 -18 553 -18 c 0,5,6
 520 -18 520 -18 494.5 -5 c 128,-1,7
 469 8 469 8 447.5 26 c 128,-1,8
 426 44 426 44 407 65.5 c 128,-1,9
 388 87 388 87 368 106 c 1,10,11
 345 83 345 83 316.5 61.5 c 128,-1,12
 288 40 288 40 256.5 22.5 c 128,-1,13
 225 5 225 5 191.5 -5 c 128,-1,14
 158 -15 158 -15 126 -15 c 0,15,16
 107 -15 107 -15 85.5 -9 c 128,-1,17
 64 -3 64 -3 46.5 9 c 128,-1,18
 29 21 29 21 19 39.5 c 128,-1,19
 9 58 9 58 14 84 c 0,20,21
 20 123 20 123 46 149.5 c 128,-1,22
 72 176 72 176 106.5 191.5 c 128,-1,23
 141 207 141 207 177 214 c 128,-1,24
 213 221 213 221 241 221 c 0,25,26
 262 221 262 221 281.5 219.5 c 128,-1,27
 301 218 301 218 320 215 c 1,28,-1
 322 225 l 2,29,30
 327 251 327 251 327.5 279 c 128,-1,31
 328 307 328 307 325 333 c 1,32,-1
 205 333 l 1,33,-1
 244 391 l 1,34,-1
 310 391 l 1,35,36
 310 411 310 411 312 434 c 128,-1,37
 314 457 314 457 317 475 c 0,38,39
 334 572 334 572 401 632.5 c 128,-1,40
 468 693 468 693 575 693 c 0,41,42
 649 693 649 693 706.5 664 c 128,-1,43
 764 635 764 635 794 553 c 1,44,-1
 664 507 l 1,45,46
 665 575 665 575 628.5 607 c 128,-1,47
 592 639 592 639 540 639 c 0,48,49
 521 639 521 639 503.5 630 c 128,-1,50
 486 621 486 621 470.5 607 c 128,-1,51
 455 593 455 593 444.5 576.5 c 128,-1,52
 434 560 434 560 431 543 c 0,53,54
 423 501 423 501 429 465 c 128,-1,55
 435 429 435 429 448 391 c 1,56,-1
 655 391 l 1,57,-1
 616 333 l 1,58,-1
 466 333 l 1,59,60
 468 317 468 317 465.5 297.5 c 128,-1,61
 463 278 463 278 460 261 c 0,62,63
 457 241 457 241 448.5 221 c 128,-1,64
 440 201 440 201 431 184 c 1,65,66
 451 175 451 175 474 159 c 128,-1,67
 497 143 497 143 520 127.5 c 128,-1,68
 543 112 543 112 566.5 100.5 c 128,-1,69
 590 89 590 89 613 89 c 0,70,71
 658 89 658 89 694.5 122.5 c 128,-1,72
 731 156 731 156 762 210 c 1,73,-1
 816 193 l 1,0,1
297 147 m 1,74,75
 285 155 285 155 266.5 162 c 128,-1,76
 248 169 248 169 230 169 c 0,77,78
 193 169 193 169 161.5 150.5 c 128,-1,79
 130 132 130 132 123 92 c 0,80,81
 120 71 120 71 135 61 c 128,-1,82
 150 51 150 51 179 51 c 0,83,84
 198 51 198 51 215.5 60 c 128,-1,85
 233 69 233 69 248.5 83 c 128,-1,86
 264 97 264 97 277 113.5 c 128,-1,87
 290 130 290 130 297 147 c 1,74,75
EndSplineSet
EndChar
StartChar: currency
Encoding: 164 164 103
Width: 716
VWidth: 1533
Flags: W
HStem: 69 72<302.926 459.671> 538 78<392.972 532.407>
Fore
601 60 m 1,0,-1
 547 121 l 1,1,2
 506 97 506 97 459 83 c 128,-1,3
 412 69 412 69 365 69 c 0,4,5
 273 69 273 69 205 118 c 1,6,-1
 132 60 l 1,7,-1
 74 127 l 1,8,-1
 146 184 l 1,9,10
 103 256 103 256 118 343 c 0,11,12
 126 386 126 386 148 427 c 128,-1,13
 170 468 170 468 202 503 c 1,14,-1
 150 561 l 1,15,-1
 233 627 l 1,16,-1
 287 569 l 1,17,18
 328 593 328 593 372.5 604.5 c 128,-1,19
 417 616 417 616 461 616 c 0,20,21
 555 616 555 616 626 567 c 1,22,-1
 701 627 l 1,23,-1
 760 561 l 1,24,-1
 684 500 l 1,25,26
 705 466 705 466 711.5 425.5 c 128,-1,27
 718 385 718 385 710 343 c 0,28,29
 693 258 693 258 630 187 c 1,30,-1
 685 127 l 1,31,-1
 601 60 l 1,0,-1
618 340 m 0,32,33
 624 382 624 382 615 418 c 128,-1,34
 606 454 606 454 583 480.5 c 128,-1,35
 560 507 560 507 527 522.5 c 128,-1,36
 494 538 494 538 452 538 c 256,37,38
 411 538 411 538 372 522.5 c 128,-1,39
 333 507 333 507 301.5 480.5 c 128,-1,40
 270 454 270 454 247.5 418 c 128,-1,41
 225 382 225 382 219 340 c 0,42,43
 212 299 212 299 221 263 c 128,-1,44
 230 227 230 227 252 199.5 c 128,-1,45
 274 172 274 172 308 156.5 c 128,-1,46
 342 141 342 141 383 141 c 256,47,48
 425 141 425 141 463 156.5 c 128,-1,49
 501 172 501 172 533.5 199.5 c 128,-1,50
 566 227 566 227 588 263 c 128,-1,51
 610 299 610 299 618 340 c 0,32,33
EndSplineSet
EndChar
StartChar: yen
Encoding: 165 165 104
Width: 788
VWidth: 1533
Flags: W
HStem: 170 55<193 350 484 645> 284 55<213 354 518 665>
Fore
518 339 m 1,0,-1
 675 339 l 1,1,-1
 665 284 l 1,2,-1
 495 284 l 1,3,-1
 484 225 l 1,4,-1
 655 225 l 1,5,-1
 645 170 l 1,6,-1
 475 170 l 1,7,-1
 446 2 l 1,8,-1
 320 2 l 1,9,-1
 350 170 l 1,10,-1
 184 170 l 1,11,-1
 193 225 l 1,12,-1
 359 225 l 1,13,-1
 370 284 l 1,14,-1
 204 284 l 1,15,-1
 213 339 l 1,16,-1
 354 339 l 1,17,-1
 127 698 l 1,18,-1
 273 698 l 1,19,-1
 469 385 l 1,20,-1
 802 698 l 1,21,-1
 906 698 l 1,22,-1
 518 339 l 1,0,-1
EndSplineSet
EndChar
StartChar: brokenbar
Encoding: 166 166 105
Width: 283
VWidth: 1533
Flags: W
VStem: 57 267<-196 754 -594.125 -196>
Fore
152 345 m 1,0,-1
 224 754 l 1,1,-1
 324 754 l 1,2,-1
 251 345 l 1,3,-1
 152 345 l 1,0,-1
57 -196 m 1,4,-1
 129 215 l 1,5,-1
 228 215 l 1,6,-1
 156 -196 l 1,7,-1
 57 -196 l 1,4,-1
EndSplineSet
EndChar
StartChar: section
Encoding: 167 167 106
Width: 657
VWidth: 1533
Flags: W
HStem: -175 60<222.433 328.094> 682 57<410.973 513.117>
VStem: 121 130<266.846 360.472>
Fore
598 32 m 0,0,1
 589 -23 589 -23 554.5 -62 c 128,-1,2
 520 -101 520 -101 474 -126.5 c 128,-1,3
 428 -152 428 -152 375 -163.5 c 128,-1,4
 322 -175 322 -175 276 -175 c 0,5,6
 225 -175 225 -175 181.5 -159.5 c 128,-1,7
 138 -144 138 -144 106.5 -115.5 c 128,-1,8
 75 -87 75 -87 58 -46 c 128,-1,9
 41 -5 41 -5 44 48 c 1,10,-1
 173 48 l 1,11,12
 169 15 169 15 172.5 -14 c 128,-1,13
 176 -43 176 -43 190 -65 c 128,-1,14
 204 -87 204 -87 227.5 -101 c 128,-1,15
 251 -115 251 -115 287 -115 c 0,16,17
 316 -115 316 -115 345 -108 c 128,-1,18
 374 -101 374 -101 399.5 -86 c 128,-1,19
 425 -71 425 -71 442.5 -47 c 128,-1,20
 460 -23 460 -23 466 11 c 0,21,22
 472 49 472 49 447 70.5 c 128,-1,23
 422 92 422 92 380.5 106 c 128,-1,24
 339 120 339 120 289 132 c 128,-1,25
 239 144 239 144 199 163 c 128,-1,26
 159 182 159 182 135.5 214.5 c 128,-1,27
 112 247 112 247 121 302 c 0,28,29
 130 351 130 351 163 389.5 c 128,-1,30
 196 428 196 428 242 451 c 1,31,32
 210 497 210 497 222 563 c 0,33,34
 230 609 230 609 255.5 642.5 c 128,-1,35
 281 676 281 676 317 697.5 c 128,-1,36
 353 719 353 719 395 729 c 128,-1,37
 437 739 437 739 478 739 c 0,38,39
 570 739 570 739 621.5 693 c 128,-1,40
 673 647 673 647 685 560 c 1,41,-1
 566 560 l 1,42,43
 564 583 564 583 558.5 604.5 c 128,-1,44
 553 626 553 626 542.5 643.5 c 128,-1,45
 532 661 532 661 514.5 671.5 c 128,-1,46
 497 682 497 682 469 682 c 0,47,48
 420 682 420 682 385 655.5 c 128,-1,49
 350 629 350 629 340 580 c 0,50,51
 333 540 333 540 355 517 c 128,-1,52
 377 494 377 494 414 477.5 c 128,-1,53
 451 461 451 461 494 449 c 128,-1,54
 537 437 537 437 572 418 c 128,-1,55
 607 399 607 399 628 368 c 128,-1,56
 649 337 649 337 639 285 c 0,57,58
 633 248 633 248 606.5 217.5 c 128,-1,59
 580 187 580 187 546 164 c 1,60,61
 576 141 576 141 591 106 c 128,-1,62
 606 71 606 71 598 32 c 0,0,1
518 265 m 0,63,64
 524 297 524 297 498 318.5 c 128,-1,65
 472 340 472 340 435.5 355 c 128,-1,66
 399 370 399 370 359 380.5 c 128,-1,67
 319 391 319 391 297 403 c 1,68,69
 276 388 276 388 266 365 c 128,-1,70
 256 342 256 342 251 320 c 0,71,72
 245 287 245 287 273 265.5 c 128,-1,73
 301 244 301 244 340.5 231 c 128,-1,74
 380 218 380 218 422.5 210 c 128,-1,75
 465 202 465 202 488 196 c 1,76,77
 504 209 504 209 509.5 228 c 128,-1,78
 515 247 515 247 518 265 c 0,63,64
EndSplineSet
EndChar
StartChar: dieresis
Encoding: 168 168 107
Width: 392
VWidth: 1533
Flags: W
HStem: 658 141<172.72 254.764 394.721 476.764>
VStem: 143 141<697.914 782.337> 365 141<697.914 782.337>
Fore
506 728 m 0,0,1
 501 698 501 698 477.5 678 c 128,-1,2
 454 658 454 658 423 658 c 256,3,4
 392 658 392 658 376 678 c 128,-1,5
 360 698 360 698 365 728 c 0,6,7
 371 759 371 759 394 779 c 128,-1,8
 417 799 417 799 448 799 c 256,9,10
 478 799 478 799 495 779 c 128,-1,11
 512 759 512 759 506 728 c 0,0,1
284 728 m 0,12,13
 279 698 279 698 255.5 678 c 128,-1,14
 232 658 232 658 201 658 c 256,15,16
 170 658 170 658 154 678 c 128,-1,17
 138 698 138 698 143 728 c 0,18,19
 149 759 149 759 172 779 c 128,-1,20
 195 799 195 799 225 799 c 256,21,22
 256 799 256 799 273 779 c 128,-1,23
 290 759 290 759 284 728 c 0,12,13
EndSplineSet
EndChar
StartChar: copyright
Encoding: 169 169 108
Width: 881
VWidth: 1533
Flags: W
HStem: -38 78<340.188 563.166> 141 43<398.622 531.803> 534 39<461.874 599.889> 679 75<445.499 669.602>
Fore
908 357 m 0,0,1
 892 274 892 274 847 202 c 128,-1,2
 802 130 802 130 737 76.5 c 128,-1,3
 672 23 672 23 593.5 -7.5 c 128,-1,4
 515 -38 515 -38 434 -38 c 256,5,6
 353 -38 353 -38 284.5 -7.5 c 128,-1,7
 216 23 216 23 170 76.5 c 128,-1,8
 124 130 124 130 104 202 c 128,-1,9
 84 274 84 274 100 357 c 0,10,11
 113 440 113 440 159 512 c 128,-1,12
 205 584 205 584 269.5 638.5 c 128,-1,13
 334 693 334 693 413 723.5 c 128,-1,14
 492 754 492 754 573 754 c 256,15,16
 655 754 655 754 722.5 722.5 c 128,-1,17
 790 691 790 691 836 637.5 c 128,-1,18
 882 584 882 584 901.5 512 c 128,-1,19
 921 440 921 440 908 357 c 0,0,1
823 359 m 0,20,21
 834 423 834 423 818.5 481.5 c 128,-1,22
 803 540 803 540 768 583.5 c 128,-1,23
 733 627 733 627 679.5 653 c 128,-1,24
 626 679 626 679 561 679 c 256,25,26
 497 679 497 679 434 653 c 128,-1,27
 371 627 371 627 319.5 583.5 c 128,-1,28
 268 540 268 540 231.5 481.5 c 128,-1,29
 195 423 195 423 184 359 c 0,30,31
 172 294 172 294 188 236.5 c 128,-1,32
 204 179 204 179 241 135.5 c 128,-1,33
 278 92 278 92 330.5 66 c 128,-1,34
 383 40 383 40 448 40 c 256,35,36
 512 40 512 40 574 66 c 128,-1,37
 636 92 636 92 687.5 135.5 c 128,-1,38
 739 179 739 179 775 236.5 c 128,-1,39
 811 294 811 294 823 359 c 0,20,21
711 284 m 1,40,41
 693 245 693 245 666 218.5 c 128,-1,42
 639 192 639 192 607 174 c 128,-1,43
 575 156 575 156 539 148.5 c 128,-1,44
 503 141 503 141 468 141 c 0,45,46
 419 141 419 141 377.5 157 c 128,-1,47
 336 173 336 173 308.5 201.5 c 128,-1,48
 281 230 281 230 268.5 270 c 128,-1,49
 256 310 256 310 265 357 c 0,50,51
 273 405 273 405 299 444.5 c 128,-1,52
 325 484 325 484 362.5 512.5 c 128,-1,53
 400 541 400 541 447 557 c 128,-1,54
 494 573 494 573 543 573 c 0,55,56
 578 573 578 573 611 565.5 c 128,-1,57
 644 558 644 558 671 541 c 128,-1,58
 698 524 698 524 715.5 497.5 c 128,-1,59
 733 471 733 471 737 432 c 1,60,-1
 644 432 l 1,61,62
 633 481 633 481 605.5 507.5 c 128,-1,63
 578 534 578 534 532 534 c 0,64,65
 497 534 497 534 468.5 520 c 128,-1,66
 440 506 440 506 418.5 482 c 128,-1,67
 397 458 397 458 382.5 427 c 128,-1,68
 368 396 368 396 362 362 c 0,69,70
 348 284 348 284 375 234 c 128,-1,71
 402 184 402 184 471 184 c 0,72,73
 561 184 561 184 618 284 c 1,74,-1
 711 284 l 1,40,41
EndSplineSet
EndChar
StartChar: ordfeminine
Encoding: 170 170 109
Width: 427
VWidth: 1533
Flags: W
HStem: 334 370<270 271 232 327 361.827 376> 334 34<194.718 298.761> 534 35<284.391 361.027 361.027 385.827 385.827 400> 668 36<253.314 387.445>
VStem: 94 381<448 503 569.5 570 448 570 448 448>
Fore
385 343 m 1,0,1
 382 353 382 353 379.5 365 c 128,-1,2
 377 377 377 377 380 391 c 1,3,4
 350 360 350 360 310.5 347 c 128,-1,5
 271 334 271 334 232 334 c 0,6,7
 201 334 201 334 174 341 c 128,-1,8
 147 348 147 348 127 362 c 128,-1,9
 107 376 107 376 98 397.5 c 128,-1,10
 89 419 89 419 94 448 c 0,11,12
 100 484 100 484 127.5 508 c 128,-1,13
 155 532 155 532 193.5 546 c 128,-1,14
 232 560 232 560 274 564.5 c 128,-1,15
 316 569 316 569 351 569 c 0,16,17
 354 569 354 569 371.5 569.5 c 128,-1,18
 389 570 389 570 406 569 c 1,19,-1
 406 570 l 1,20,21
 414 609 414 609 394 638.5 c 128,-1,22
 374 668 374 668 320 668 c 0,23,24
 247 668 247 668 216 595 c 1,25,-1
 138 595 l 1,26,27
 164 650 164 650 217 677 c 128,-1,28
 270 704 270 704 327 704 c 0,29,30
 414 704 414 704 450 667 c 128,-1,31
 486 630 486 630 475 570 c 2,32,-1
 451 429 l 2,33,34
 446 403 446 403 447 380 c 128,-1,35
 448 357 448 357 451 343 c 1,36,-1
 385 343 l 1,0,1
345 534 m 2,37,38
 282 534 282 534 231.5 511.5 c 128,-1,39
 181 489 181 489 173 446 c 0,40,41
 167 417 167 417 191.5 392.5 c 128,-1,42
 216 368 216 368 256 368 c 0,43,44
 305 368 305 368 344 405.5 c 128,-1,45
 383 443 383 443 394 503 c 2,46,-1
 400 534 l 1,47,-1
 345 534 l 2,37,38
EndSplineSet
EndChar
StartChar: guillemotleft
Encoding: 171 171 110
Width: 627
VWidth: 1533
Flags: W
HStem: 55 471<511 592 592 592>
VStem: 158 498<291 471 291 291>
Fore
511 55 m 1,0,-1
 379 291 l 1,1,-1
 592 526 l 1,2,-1
 656 471 l 1,3,-1
 475 291 l 1,4,-1
 593 112 l 1,5,-1
 511 55 l 1,0,-1
290 55 m 1,6,-1
 158 291 l 1,7,-1
 370 526 l 1,8,-1
 434 471 l 1,9,-1
 255 291 l 1,10,-1
 373 112 l 1,11,-1
 290 55 l 1,6,-1
EndSplineSet
EndChar
StartChar: logicalnot
Encoding: 172 172 111
Width: 631
VWidth: 1533
Flags: W
HStem: 376 56<90 537>
Fore
492 129 m 1,0,-1
 537 376 l 1,1,-1
 81 376 l 1,2,-1
 90 432 l 1,3,-1
 661 432 l 1,4,-1
 607 129 l 1,5,-1
 492 129 l 1,0,-1
EndSplineSet
EndChar
StartChar: registered
Encoding: 174 174 112
Width: 881
VWidth: 1533
Flags: W
HStem: -38 78<340.188 563.166> 328 35<396 547.591> 518 34<423 571.039> 679 75<445.499 669.602>
Fore
908 357 m 0,0,1
 892 274 892 274 847 202 c 128,-1,2
 802 130 802 130 737 76.5 c 128,-1,3
 672 23 672 23 593.5 -7.5 c 128,-1,4
 515 -38 515 -38 434 -38 c 256,5,6
 353 -38 353 -38 284.5 -7.5 c 128,-1,7
 216 23 216 23 170 76.5 c 128,-1,8
 124 130 124 130 104 202 c 128,-1,9
 84 274 84 274 100 357 c 0,10,11
 113 440 113 440 159 512 c 128,-1,12
 205 584 205 584 269.5 638.5 c 128,-1,13
 334 693 334 693 413 723.5 c 128,-1,14
 492 754 492 754 573 754 c 256,15,16
 655 754 655 754 722.5 722.5 c 128,-1,17
 790 691 790 691 836 637.5 c 128,-1,18
 882 584 882 584 901.5 512 c 128,-1,19
 921 440 921 440 908 357 c 0,0,1
823 359 m 0,20,21
 834 423 834 423 818.5 481.5 c 128,-1,22
 803 540 803 540 768 583.5 c 128,-1,23
 733 627 733 627 679.5 653 c 128,-1,24
 626 679 626 679 561 679 c 256,25,26
 497 679 497 679 434 653 c 128,-1,27
 371 627 371 627 319.5 583.5 c 128,-1,28
 268 540 268 540 231.5 481.5 c 128,-1,29
 195 423 195 423 184 359 c 0,30,31
 172 294 172 294 188 236.5 c 128,-1,32
 204 179 204 179 241 135.5 c 128,-1,33
 278 92 278 92 330.5 66 c 128,-1,34
 383 40 383 40 448 40 c 256,35,36
 512 40 512 40 574 66 c 128,-1,37
 636 92 636 92 687.5 135.5 c 128,-1,38
 739 179 739 179 775 236.5 c 128,-1,39
 811 294 811 294 823 359 c 0,20,21
598 159 m 1,40,41
 584 175 584 175 578 197 c 128,-1,42
 572 219 572 219 569 242 c 2,43,-1
 566 270 l 2,44,45
 561 296 561 296 548 312 c 128,-1,46
 535 328 535 328 509 328 c 2,47,-1
 389 328 l 1,48,-1
 360 159 l 1,49,-1
 291 159 l 1,50,-1
 360 552 l 1,51,-1
 500 552 l 2,52,53
 543 552 543 552 580.5 549 c 128,-1,54
 618 546 618 546 643 535 c 128,-1,55
 668 524 668 524 680.5 502.5 c 128,-1,56
 693 481 693 481 687 445 c 0,57,58
 679 409 679 409 644.5 384 c 128,-1,59
 610 359 610 359 573 350 c 1,60,61
 606 343 606 343 622.5 323.5 c 128,-1,62
 639 304 639 304 642 278 c 2,63,-1
 649 232 l 2,64,65
 652 216 652 216 658.5 197 c 128,-1,66
 665 178 665 178 682 159 c 1,67,-1
 598 159 l 1,40,41
612 445 m 0,68,69
 618 477 618 477 595.5 497.5 c 128,-1,70
 573 518 573 518 503 518 c 2,71,-1
 423 518 l 1,72,-1
 396 363 l 1,73,-1
 480 363 l 2,74,75
 549 363 549 363 576.5 384 c 128,-1,76
 604 405 604 405 612 445 c 0,68,69
EndSplineSet
EndChar
StartChar: macron
Encoding: 175 175 113
Width: 381
VWidth: 1533
Flags: W
HStem: 599 91<150 455 133 472 150 150>
Fore
133 599 m 1,0,-1
 150 690 l 1,1,-1
 472 690 l 1,2,-1
 455 599 l 1,3,-1
 133 599 l 1,0,-1
EndSplineSet
EndChar
StartChar: degree
Encoding: 176 176 114
Width: 441
VWidth: 1533
Flags: W
HStem: 366 66<236.573 360.905> 650 71<271.595 396.45>
VStem: 140 352<506 540 543 580 543 543 543 543>
Fore
492 543 m 256,0,1
 486 506 486 506 467 474 c 128,-1,2
 448 442 448 442 419.5 418 c 128,-1,3
 391 394 391 394 356.5 380 c 128,-1,4
 322 366 322 366 285 366 c 256,5,6
 248 366 248 366 218.5 380 c 128,-1,7
 189 394 189 394 169.5 418 c 128,-1,8
 150 442 150 442 141.5 474 c 128,-1,9
 133 506 133 506 140 543 c 256,10,11
 146 580 146 580 166 612 c 128,-1,12
 186 644 186 644 213.5 668.5 c 128,-1,13
 241 693 241 693 275.5 707 c 128,-1,14
 310 721 310 721 347 721 c 256,15,16
 383 721 383 721 412.5 707 c 128,-1,17
 442 693 442 693 461.5 668.5 c 128,-1,18
 481 644 481 644 489.5 612 c 128,-1,19
 498 580 498 580 492 543 c 256,0,1
425 540 m 0,20,21
 432 586 432 586 406 618 c 128,-1,22
 380 650 380 650 336 650 c 256,23,24
 291 650 291 650 253.5 618 c 128,-1,25
 216 586 216 586 209 540 c 0,26,27
 201 495 201 495 227 463.5 c 128,-1,28
 253 432 253 432 297 432 c 256,29,30
 342 432 342 432 379.5 463.5 c 128,-1,31
 417 495 417 495 425 540 c 0,20,21
EndSplineSet
EndChar
StartChar: plusminus
Encoding: 177 177 115
Width: 703
VWidth: 1533
Flags: W
HStem: 0 72<57 659> 314 72<112 357 469 714>
Fore
457 314 m 1,0,-1
 425 132 l 1,1,-1
 325 132 l 1,2,-1
 357 314 l 1,3,-1
 100 314 l 1,4,-1
 112 386 l 1,5,-1
 370 386 l 1,6,-1
 402 567 l 1,7,-1
 501 567 l 1,8,-1
 469 386 l 1,9,-1
 727 386 l 1,10,-1
 714 314 l 1,11,-1
 457 314 l 1,0,-1
44 0 m 1,12,-1
 57 72 l 1,13,-1
 672 72 l 1,14,-1
 659 0 l 1,15,-1
 44 0 l 1,12,-1
EndSplineSet
EndChar
StartChar: twosuperior
Encoding: 178 178 116
Width: 455
VWidth: 1533
Flags: W
HStem: 282 58<190 475> 670 34<270.809 396.276>
VStem: 75 440<282 570 282 282>
Fore
75 282 m 1,0,1
 86 316 86 316 106.5 341 c 128,-1,2
 127 366 127 366 153 385.5 c 128,-1,3
 179 405 179 405 210 420 c 128,-1,4
 241 435 241 435 273 451 c 0,5,6
 301 461 301 461 327 475 c 0,7,8
 357 491 357 491 382.5 511.5 c 128,-1,9
 408 532 408 532 415 570 c 0,10,11
 423 606 423 606 404 638 c 128,-1,12
 385 670 385 670 336 670 c 0,13,14
 294 670 294 670 259 639.5 c 128,-1,15
 224 609 224 609 215 557 c 1,16,-1
 113 557 l 1,17,18
 140 633 140 633 203.5 668.5 c 128,-1,19
 267 704 267 704 340 704 c 0,20,21
 379 704 379 704 413.5 695.5 c 128,-1,22
 448 687 448 687 472.5 670 c 128,-1,23
 497 653 497 653 509 628.5 c 128,-1,24
 521 604 521 604 515 570 c 0,25,26
 509 538 509 538 488.5 513 c 128,-1,27
 468 488 468 488 438 468.5 c 128,-1,28
 408 449 408 449 372.5 434.5 c 128,-1,29
 337 420 337 420 304 406 c 0,30,31
 268 392 268 392 237.5 377 c 128,-1,32
 207 362 207 362 190 340 c 1,33,-1
 486 340 l 1,34,-1
 475 282 l 1,35,-1
 75 282 l 1,0,1
EndSplineSet
EndChar
StartChar: threesuperior
Encoding: 179 179 117
Width: 455
VWidth: 1533
Flags: W
HStem: 278 35<217.187 336.298> 672 35<296.806 403.209>
VStem: 92 101<371.006 425> 417 100<558.768 631.819>
Fore
507 409 m 0,0,1
 501 374 501 374 477.5 349.5 c 128,-1,2
 454 325 454 325 421 309 c 128,-1,3
 388 293 388 293 348 285.5 c 128,-1,4
 308 278 308 278 270 278 c 0,5,6
 195 278 195 278 143.5 313 c 128,-1,7
 92 348 92 348 92 425 c 1,8,-1
 193 425 l 1,9,10
 186 373 186 373 209.5 343 c 128,-1,11
 233 313 233 313 276 313 c 0,12,13
 322 313 322 313 362 342 c 128,-1,14
 402 371 402 371 409 411 c 0,15,16
 417 449 417 449 386.5 467.5 c 128,-1,17
 356 486 356 486 307 486 c 0,18,19
 291 486 291 486 275 484.5 c 128,-1,20
 259 483 259 483 238 480 c 1,21,-1
 245 529 l 1,22,23
 320 517 320 517 365.5 539 c 128,-1,24
 411 561 411 561 417 596 c 0,25,26
 422 624 422 624 405 648 c 128,-1,27
 388 672 388 672 343 672 c 0,28,29
 307 672 307 672 281.5 645.5 c 128,-1,30
 256 619 256 619 244 572 c 1,31,-1
 144 572 l 1,32,33
 153 606 153 606 173 631 c 128,-1,34
 193 656 193 656 220.5 673 c 128,-1,35
 248 690 248 690 281 698.5 c 128,-1,36
 314 707 314 707 350 707 c 128,-1,37
 386 707 386 707 418.5 701 c 128,-1,38
 451 695 451 695 474.5 681 c 128,-1,39
 498 667 498 667 509.5 646.5 c 128,-1,40
 521 626 521 626 517 596 c 0,41,42
 511 566 511 566 487 544.5 c 128,-1,43
 463 523 463 523 432 511 c 1,44,-1
 431 511 l 1,45,46
 466 498 466 498 490.5 473.5 c 128,-1,47
 515 449 515 449 507 409 c 0,0,1
EndSplineSet
EndChar
StartChar: acute
Encoding: 180 180 118
Width: 280
VWidth: 1533
Flags: W
HStem: 652 191<215 411 411 411>
VStem: 161 291<652 799 652 652>
Fore
452 799 m 0,0,1
 451 791 451 791 444 778 c 128,-1,2
 437 765 437 765 415 754 c 2,3,-1
 215 652 l 1,4,-1
 161 652 l 1,5,-1
 350 814 l 2,6,7
 366 826 366 826 377.5 834.5 c 128,-1,8
 389 843 389 843 411 843 c 256,9,10
 432 843 432 843 444.5 831.5 c 128,-1,11
 457 820 457 820 452 799 c 0,0,1
EndSplineSet
EndChar
StartChar: mu
Encoding: 181 181 119
Width: 666
VWidth: 1533
Flags: W
HStem: -18 61<245.405 375.156> 514 20G<151.446 268 585.412 701>
Fore
506 67 m 1,0,1
 484 44 484 44 458 27.5 c 128,-1,2
 432 11 432 11 406 1 c 128,-1,3
 380 -9 380 -9 355 -13.5 c 128,-1,4
 330 -18 330 -18 310 -18 c 0,5,6
 271 -18 271 -18 235 -8 c 128,-1,7
 199 2 199 2 178 25 c 1,8,-1
 140 -192 l 1,9,-1
 26 -192 l 1,10,-1
 155 534 l 1,11,-1
 268 534 l 1,12,-1
 204 169 l 2,13,14
 195 120 195 120 227 81.5 c 128,-1,15
 259 43 259 43 333 43 c 0,16,17
 370 43 370 43 402.5 57.5 c 128,-1,18
 435 72 435 72 463 98 c 128,-1,19
 491 124 491 124 509 158.5 c 128,-1,20
 527 193 527 193 535 233 c 2,21,-1
 589 534 l 1,22,-1
 701 534 l 1,23,-1
 606 -3 l 1,24,-1
 494 -3 l 1,25,-1
 506 67 l 1,0,1
EndSplineSet
EndChar
StartChar: paragraph
Encoding: 182 182 120
Width: 619
VWidth: 1533
Flags: W
HStem: 652 66<463 527 627 704>
Fore
627 652 m 1,0,-1
 486 -150 l 1,1,-1
 386 -150 l 1,2,-1
 527 652 l 1,3,-1
 463 652 l 1,4,-1
 322 -150 l 1,5,-1
 222 -150 l 1,6,-1
 291 242 l 1,7,8
 182 250 182 250 139.5 318 c 128,-1,9
 97 386 97 386 115 489 c 0,10,11
 124 540 124 540 150 582 c 128,-1,12
 176 624 176 624 214.5 654 c 128,-1,13
 253 684 253 684 300.5 701 c 128,-1,14
 348 718 348 718 402 718 c 2,15,-1
 716 718 l 1,16,-1
 704 652 l 1,17,-1
 627 652 l 1,0,-1
EndSplineSet
EndChar
StartChar: periodcentered
Encoding: 183 183 121
Width: 346
VWidth: 1533
Flags: W
HStem: 239 227<181.802 286.023>
VStem: 120 228<315.463 422.699>
Fore
120 351 m 0,0,1
 127 400 127 400 166 433 c 128,-1,2
 205 466 205 466 253 466 c 0,3,4
 302 466 302 466 329 433 c 128,-1,5
 356 400 356 400 348 351 c 0,6,7
 340 304 340 304 301 271.5 c 128,-1,8
 262 239 262 239 213 239 c 0,9,10
 166 239 166 239 139 271.5 c 128,-1,11
 112 304 112 304 120 351 c 0,0,1
EndSplineSet
EndChar
StartChar: cedilla
Encoding: 184 184 122
Width: 275
VWidth: 1533
Flags: W
HStem: -241 39<32.462 103.037> -20 20G<95.8254 166>
VStem: -32 268<-221 -146 -221 -221>
Fore
236 -146 m 0,0,1
 232 -172 232 -172 213.5 -190.5 c 128,-1,2
 195 -209 195 -209 171 -220.5 c 128,-1,3
 147 -232 147 -232 121 -236.5 c 128,-1,4
 95 -241 95 -241 75 -241 c 0,5,6
 52 -241 52 -241 24.5 -238.5 c 128,-1,7
 -3 -236 -3 -236 -32 -221 c 1,8,-1
 -8 -173 l 1,9,10
 3 -187 3 -187 25.5 -194.5 c 128,-1,11
 48 -202 48 -202 64 -202 c 0,12,13
 89 -202 89 -202 108 -188.5 c 128,-1,14
 127 -175 127 -175 130 -150 c 0,15,16
 135 -123 135 -123 103 -118 c 128,-1,17
 71 -113 71 -113 26 -126 c 1,18,-1
 109 0 l 1,19,-1
 166 0 l 1,20,-1
 115 -77 l 1,21,22
 124 -77 124 -77 130 -75 c 0,23,24
 146 -72 146 -72 152 -72 c 0,25,26
 189 -72 189 -72 215.5 -91 c 128,-1,27
 242 -110 242 -110 236 -146 c 0,0,1
EndSplineSet
EndChar
StartChar: onesuperior
Encoding: 185 185 123
Width: 424
VWidth: 1533
Flags: W
HStem: 622 27<178 199.819 199.819 247.439> 694 20G<311.5 380>
VStem: 173 207<622 714 613.296 622>
Fore
216 281 m 1,0,-1
 276 622 l 1,1,-1
 173 622 l 1,2,-1
 178 649 l 1,3,4
 202 649 202 649 221.5 649.5 c 128,-1,5
 241 650 241 650 257.5 656 c 128,-1,6
 274 662 274 662 289 676 c 128,-1,7
 304 690 304 690 319 714 c 1,8,-1
 380 714 l 1,9,-1
 304 281 l 1,10,-1
 216 281 l 1,0,-1
EndSplineSet
EndChar
StartChar: ordmasculine
Encoding: 186 186 124
Width: 463
VWidth: 1533
Flags: W
HStem: 337 37<234.29 354.474> 672 35<295.055 414.675>
VStem: 101 445<480 523 523 566 523 523 523 523>
Fore
546 523 m 256,0,1
 538 480 538 480 514.5 445.5 c 128,-1,2
 491 411 491 411 456.5 387 c 128,-1,3
 422 363 422 363 379 350 c 128,-1,4
 336 337 336 337 290 337 c 256,5,6
 244 337 244 337 206.5 350 c 128,-1,7
 169 363 169 363 143 387 c 128,-1,8
 117 411 117 411 105.5 445.5 c 128,-1,9
 94 480 94 480 101 523 c 256,10,11
 109 566 109 566 132.5 599.5 c 128,-1,12
 156 633 156 633 190.5 657 c 128,-1,13
 225 681 225 681 268 694 c 128,-1,14
 311 707 311 707 357 707 c 256,15,16
 403 707 403 707 440.5 694.5 c 128,-1,17
 478 682 478 682 504 658.5 c 128,-1,18
 530 635 530 635 541.5 600.5 c 128,-1,19
 553 566 553 566 546 523 c 256,0,1
443 523 m 0,20,21
 455 596 455 596 429 634 c 128,-1,22
 403 672 403 672 351 672 c 256,23,24
 299 672 299 672 259 634 c 128,-1,25
 219 596 219 596 207 523 c 0,26,27
 193 448 193 448 220 411 c 128,-1,28
 247 374 247 374 299 374 c 0,29,30
 353 374 353 374 391 411 c 128,-1,31
 429 448 429 448 443 523 c 0,20,21
EndSplineSet
EndChar
StartChar: guillemotright
Encoding: 187 187 125
Width: 593
VWidth: 1533
Flags: W
HStem: 55 471<380 460 460 460>
VStem: 95 497<112 291 112 112>
Fore
380 55 m 1,0,-1
 316 112 l 1,1,-1
 495 291 l 1,2,-1
 377 471 l 1,3,-1
 460 526 l 1,4,-1
 592 291 l 1,5,-1
 380 55 l 1,0,-1
159 55 m 1,6,-1
 95 112 l 1,7,-1
 274 291 l 1,8,-1
 156 471 l 1,9,-1
 239 526 l 1,10,-1
 371 291 l 1,11,-1
 159 55 l 1,6,-1
EndSplineSet
EndChar
StartChar: onequarter
Encoding: 188 188 126
Width: 1079
VWidth: 1533
Flags: W
HStem: 0 21G<152 270.784 705 808.4> 100 44<604 722 829 898> 622 27<205 227.396 227.396 272.132> 685 20G<776.216 895>
Fore
898 100 m 1,0,-1
 822 100 l 1,1,-1
 805 0 l 1,2,-1
 705 0 l 1,3,-1
 722 100 l 1,4,-1
 507 100 l 1,5,-1
 494 121 l 1,6,-1
 833 423 l 1,7,-1
 879 423 l 1,8,-1
 829 144 l 1,9,-1
 931 144 l 1,10,-1
 898 100 l 1,0,-1
253 -17 m 1,11,-1
 152 -17 l 1,12,-1
 794 705 l 1,13,-1
 895 705 l 1,14,-1
 253 -17 l 1,11,-1
230 285 m 1,15,-1
 290 622 l 1,16,-1
 201 622 l 1,17,-1
 205 649 l 1,18,19
 232 649 232 649 249.5 649.5 c 128,-1,20
 267 650 267 650 280.5 656 c 128,-1,21
 294 662 294 662 305.5 676 c 128,-1,22
 317 690 317 690 333 714 c 1,23,-1
 388 714 l 1,24,-1
 311 285 l 1,25,-1
 230 285 l 1,15,-1
754 281 m 1,26,27
 718 247 718 247 679.5 212.5 c 128,-1,28
 641 178 641 178 604 144 c 1,29,-1
 730 144 l 1,30,-1
 754 281 l 1,26,27
EndSplineSet
Ligature2: "'frac' Diagonal Fractions in Latin lookup 0 subtable" one fraction four
Ligature2: "'frac' Diagonal Fractions in Latin lookup 0 subtable" one slash four
EndChar
StartChar: onehalf
Encoding: 189 189 127
Width: 1079
VWidth: 1533
Flags: W
HStem: -2 57<676 961> 386 34<757.038 883.89> 615 35<169 222.825> 685 20G<776.216 895>
Fore
561 -2 m 1,0,1
 573 34 573 34 594.5 59 c 128,-1,2
 616 84 616 84 643 103.5 c 128,-1,3
 670 123 670 123 701.5 138 c 128,-1,4
 733 153 733 153 765 167 c 0,5,6
 779 173 779 173 790.5 178.5 c 128,-1,7
 802 184 802 184 817 192 c 0,8,9
 846 205 846 205 871.5 226.5 c 128,-1,10
 897 248 897 248 903 287 c 0,11,12
 911 322 911 322 891.5 354 c 128,-1,13
 872 386 872 386 823 386 c 0,14,15
 780 386 780 386 746.5 355.5 c 128,-1,16
 713 325 713 325 704 273 c 1,17,-1
 601 273 l 1,18,19
 627 350 627 350 690.5 385 c 128,-1,20
 754 420 754 420 829 420 c 0,21,22
 868 420 868 420 902.5 411.5 c 128,-1,23
 937 403 937 403 961.5 386.5 c 128,-1,24
 986 370 986 370 997.5 344.5 c 128,-1,25
 1009 319 1009 319 1003 285 c 0,26,27
 997 253 997 253 976 228.5 c 128,-1,28
 955 204 955 204 926 185 c 128,-1,29
 897 166 897 166 862.5 151 c 128,-1,30
 828 136 828 136 794 123 c 0,31,32
 756 109 756 109 724.5 93.5 c 128,-1,33
 693 78 693 78 676 55 c 1,34,-1
 972 55 l 1,35,-1
 961 -2 l 1,36,-1
 561 -2 l 1,0,1
253 -17 m 1,37,-1
 152 -17 l 1,38,-1
 794 705 l 1,39,-1
 895 705 l 1,40,-1
 253 -17 l 1,37,-1
209 290 m 1,41,-1
 265 615 l 1,42,-1
 163 615 l 1,43,-1
 169 650 l 1,44,45
 202 650 202 650 223.5 652.5 c 128,-1,46
 245 655 245 655 260.5 661.5 c 128,-1,47
 276 668 276 668 288.5 680.5 c 128,-1,48
 301 693 301 693 314 714 c 1,49,-1
 383 714 l 1,50,-1
 308 290 l 1,51,-1
 209 290 l 1,41,-1
EndSplineSet
Ligature2: "'frac' Diagonal Fractions in Latin lookup 0 subtable" one fraction two
Ligature2: "'frac' Diagonal Fractions in Latin lookup 0 subtable" one slash two
EndChar
StartChar: threequarters
Encoding: 190 190 128
Width: 1079
VWidth: 1533
Flags: W
HStem: 0 21G<259 377.812 796 898.4> 100 44<695 813 920 989> 278 35<254.009 373.114> 672 35<332.912 439.954>
VStem: 129 101<371.006 425>
Fore
989 100 m 1,0,-1
 912 100 l 1,1,-1
 895 0 l 1,2,-1
 796 0 l 1,3,-1
 813 100 l 1,4,-1
 598 100 l 1,5,-1
 583 121 l 1,6,-1
 923 423 l 1,7,-1
 969 423 l 1,8,-1
 920 144 l 1,9,-1
 1020 144 l 1,10,-1
 989 100 l 1,0,-1
544 409 m 0,11,12
 538 374 538 374 514.5 349.5 c 128,-1,13
 491 325 491 325 458 309 c 128,-1,14
 425 293 425 293 385 285.5 c 128,-1,15
 345 278 345 278 307 278 c 0,16,17
 232 278 232 278 180.5 313 c 128,-1,18
 129 348 129 348 129 425 c 1,19,-1
 230 425 l 1,20,21
 222 373 222 373 246 343 c 128,-1,22
 270 313 270 313 313 313 c 0,23,24
 359 313 359 313 398.5 342 c 128,-1,25
 438 371 438 371 446 411 c 0,26,27
 454 449 454 449 423 467.5 c 128,-1,28
 392 486 392 486 343 486 c 0,29,30
 328 486 328 486 312 484.5 c 128,-1,31
 296 483 296 483 274 480 c 1,32,-1
 282 529 l 1,33,34
 357 517 357 517 402.5 539 c 128,-1,35
 448 561 448 561 454 596 c 0,36,37
 458 624 458 624 441.5 648 c 128,-1,38
 425 672 425 672 380 672 c 0,39,40
 343 672 343 672 318 645.5 c 128,-1,41
 293 619 293 619 281 572 c 1,42,-1
 181 572 l 1,43,44
 190 606 190 606 210 631 c 128,-1,45
 230 656 230 656 257.5 673 c 128,-1,46
 285 690 285 690 318 698.5 c 128,-1,47
 351 707 351 707 386 707 c 0,48,49
 423 707 423 707 455.5 701 c 128,-1,50
 488 695 488 695 511.5 681 c 128,-1,51
 535 667 535 667 546.5 646.5 c 128,-1,52
 558 626 558 626 553 596 c 0,53,54
 547 566 547 566 523.5 544.5 c 128,-1,55
 500 523 500 523 469 511 c 1,56,-1
 468 511 l 1,57,58
 503 498 503 498 527.5 473.5 c 128,-1,59
 552 449 552 449 544 409 c 0,11,12
360 -17 m 1,60,-1
 259 -17 l 1,61,-1
 902 705 l 1,62,-1
 1003 705 l 1,63,-1
 360 -17 l 1,60,-1
845 281 m 1,64,65
 808 247 808 247 769.5 212.5 c 128,-1,66
 731 178 731 178 695 144 c 1,67,-1
 820 144 l 1,68,-1
 845 281 l 1,64,65
EndSplineSet
Ligature2: "'frac' Diagonal Fractions in Latin lookup 0 subtable" three fraction four
Ligature2: "'frac' Diagonal Fractions in Latin lookup 0 subtable" three slash four
EndChar
StartChar: questiondown
Encoding: 191 191 129
Width: 547
VWidth: 1533
Flags: W
HStem: -152 31<193.883 343.968> 497 102<368.048 427.468>
VStem: 345 103<524.12 586.267> 448 81<26.7582 77>
Fore
448 547 m 0,0,1
 445 526 445 526 428 511.5 c 128,-1,2
 411 497 411 497 389 497 c 256,3,4
 368 497 368 497 355 511.5 c 128,-1,5
 342 526 342 526 345 547 c 0,6,7
 350 569 350 569 367.5 584 c 128,-1,8
 385 599 385 599 406 599 c 256,9,10
 428 599 428 599 440 584 c 128,-1,11
 452 569 452 569 448 547 c 0,0,1
529 77 m 1,12,13
 511 -29 511 -29 436.5 -90.5 c 128,-1,14
 362 -152 362 -152 256 -152 c 0,15,16
 210 -152 210 -152 170 -139.5 c 128,-1,17
 130 -127 130 -127 102 -102 c 128,-1,18
 74 -77 74 -77 60 -39.5 c 128,-1,19
 46 -2 46 -2 55 49 c 0,20,21
 63 90 63 90 86.5 120 c 128,-1,22
 110 150 110 150 142.5 175.5 c 128,-1,23
 175 201 175 201 211.5 225.5 c 128,-1,24
 248 250 248 250 281 281.5 c 128,-1,25
 314 313 314 313 338.5 355 c 128,-1,26
 363 397 363 397 373 457 c 1,27,-1
 392 457 l 1,28,29
 391 440 391 440 389.5 424.5 c 128,-1,30
 388 409 388 409 385 392 c 0,31,32
 371 316 371 316 336.5 270 c 128,-1,33
 302 224 302 224 264.5 189.5 c 128,-1,34
 227 155 227 155 195.5 124.5 c 128,-1,35
 164 94 164 94 156 46 c 0,36,37
 150 11 150 11 151.5 -20 c 128,-1,38
 153 -51 153 -51 164.5 -73 c 128,-1,39
 176 -95 176 -95 200.5 -108 c 128,-1,40
 225 -121 225 -121 265 -121 c 0,41,42
 308 -121 308 -121 340.5 -104 c 128,-1,43
 373 -87 373 -87 394 -59 c 128,-1,44
 415 -31 415 -31 428.5 4.5 c 128,-1,45
 442 40 442 40 448 77 c 1,46,-1
 529 77 l 1,12,13
EndSplineSet
EndChar
StartChar: Aring
Encoding: 197 197 134
Width: 876
VWidth: 1533
Flags: W
HStem: 0 21G<0 98.755 723.334 877> 347 76<399 570> 912 68<536.252 661.822>
Fore
731 0 m 1,0,-1
 598 347 l 1,1,-1
 340 347 l 1,2,-1
 84 0 l 1,3,-1
 0 0 l 1,4,-1
 484 641 l 1,5,6
 440 661 440 661 417 704 c 128,-1,7
 394 747 394 747 405 802 c 0,8,9
 411 839 411 839 431 871 c 128,-1,10
 451 903 451 903 478.5 927.5 c 128,-1,11
 506 952 506 952 540.5 966 c 128,-1,12
 575 980 575 980 612 980 c 256,13,14
 649 980 649 980 679.5 966 c 128,-1,15
 710 952 710 952 729 927.5 c 128,-1,16
 748 903 748 903 756.5 871 c 128,-1,17
 765 839 765 839 759 802 c 0,18,19
 750 751 750 751 716 709.5 c 128,-1,20
 682 668 682 668 636 645 c 1,21,-1
 877 0 l 1,22,-1
 731 0 l 1,0,-1
690 802 m 0,23,24
 698 848 698 848 671.5 880 c 128,-1,25
 645 912 645 912 599 912 c 0,26,27
 555 912 555 912 518 880 c 128,-1,28
 481 848 481 848 474 802 c 0,29,30
 466 757 466 757 491.5 726 c 128,-1,31
 517 695 517 695 561 695 c 0,32,33
 607 695 607 695 644.5 726 c 128,-1,34
 682 757 682 757 690 802 c 0,23,24
514 581 m 1,35,-1
 399 423 l 1,36,-1
 570 423 l 1,37,-1
 514 581 l 1,35,-1
EndSplineSet
EndChar
StartChar: AE
Encoding: 198 198 135
Width: 1159
VWidth: 1533
Flags: W
HStem: 0 61<713 1144> 353 61<465 635 774 1096> 652 64<816 1257>
Fore
573 0 m 1,0,-1
 635 353 l 1,1,-1
 409 353 l 1,2,-1
 92 0 l 1,3,-1
 0 0 l 1,4,-1
 644 716 l 1,5,-1
 1269 716 l 1,6,-1
 1257 652 l 1,7,-1
 816 652 l 1,8,-1
 774 414 l 1,9,-1
 1107 414 l 1,10,-1
 1096 353 l 1,11,-1
 764 353 l 1,12,-1
 713 61 l 1,13,-1
 1154 61 l 1,14,-1
 1144 0 l 1,15,-1
 573 0 l 1,0,-1
685 638 m 1,16,-1
 665 638 l 1,17,-1
 465 414 l 1,18,-1
 645 414 l 1,19,-1
 685 638 l 1,16,-1
EndSplineSet
EndChar
StartChar: Eth
Encoding: 208 208 145
Width: 881
VWidth: 1533
Flags: W
HStem: 0 61<212 547.321> 353 61<66 135 273 477> 653 61<316 645.084>
Fore
923 379 m 0,0,1
 909 299 909 299 872.5 230 c 128,-1,2
 836 161 836 161 769 109.5 c 128,-1,3
 702 58 702 58 601 29 c 128,-1,4
 500 0 500 0 356 0 c 2,5,-1
 74 0 l 1,6,-1
 135 353 l 1,7,-1
 55 353 l 1,8,-1
 66 414 l 1,9,-1
 146 414 l 1,10,-1
 199 714 l 1,11,-1
 475 714 l 2,12,13
 613 714 613 714 704.5 689 c 128,-1,14
 796 664 796 664 849 618.5 c 128,-1,15
 902 573 902 573 918.5 512 c 128,-1,16
 935 451 935 451 923 379 c 0,0,1
777 379 m 0,17,18
 787 434 787 434 780 484 c 128,-1,19
 773 534 773 534 740.5 571.5 c 128,-1,20
 708 609 708 609 647 631 c 128,-1,21
 586 653 586 653 486 653 c 2,22,-1
 316 653 l 1,23,-1
 273 414 l 1,24,-1
 488 414 l 1,25,-1
 477 353 l 1,26,-1
 262 353 l 1,27,-1
 212 61 l 1,28,-1
 382 61 l 2,29,30
 480 61 480 61 549.5 83.5 c 128,-1,31
 619 106 619 106 665 147.5 c 128,-1,32
 711 189 711 189 738 248 c 128,-1,33
 765 307 765 307 777 379 c 0,17,18
EndSplineSet
EndChar
StartChar: multiply
Encoding: 215 215 152
Width: 703
VWidth: 1533
Flags: W
HStem: -6 21G<87.8182 130.609 577.087 619.545>
Fore
474 291 m 1,0,-1
 676 60 l 1,1,-1
 595 -6 l 1,2,-1
 389 224 l 1,3,-1
 106 -6 l 1,4,-1
 46 60 l 1,5,-1
 331 291 l 1,6,-1
 127 521 l 1,7,-1
 210 587 l 1,8,-1
 414 357 l 1,9,-1
 699 587 l 1,10,-1
 757 521 l 1,11,-1
 474 291 l 1,0,-1
EndSplineSet
EndChar
StartChar: Oslash
Encoding: 216 216 153
Width: 968
VWidth: 1533
Flags: W
HStem: -26 55<372.55 591.965> 684 55<478.271 701.02>
Fore
900 622 m 1,0,1
 948 572 948 572 967.5 503.5 c 128,-1,2
 987 435 987 435 975 357 c 0,3,4
 961 278 961 278 914.5 208 c 128,-1,5
 868 138 868 138 799 86 c 128,-1,6
 730 34 730 34 645 4 c 128,-1,7
 560 -26 560 -26 468 -26 c 0,8,9
 399 -26 399 -26 340 -9 c 128,-1,10
 281 8 281 8 233 38 c 1,11,-1
 103 -75 l 1,12,-1
 2 -75 l 1,13,-1
 179 83 l 1,14,15
 127 135 127 135 104 204 c 128,-1,16
 81 273 81 273 95 356 c 0,17,18
 109 435 109 435 156.5 505 c 128,-1,19
 204 575 204 575 273 627 c 128,-1,20
 342 679 342 679 427 709 c 128,-1,21
 512 739 512 739 603 739 c 0,22,23
 676 739 676 739 737.5 720.5 c 128,-1,24
 799 702 799 702 848 667 c 1,25,-1
 990 791 l 1,26,-1
 1092 791 l 1,27,-1
 900 622 l 1,0,1
779 607 m 1,28,29
 748 642 748 642 701.5 663 c 128,-1,30
 655 684 655 684 593 684 c 0,31,32
 526 684 526 684 467.5 658 c 128,-1,33
 409 632 409 632 362.5 587.5 c 128,-1,34
 316 543 316 543 284.5 483 c 128,-1,35
 253 423 253 423 241 356 c 0,36,37
 222 238 222 238 262 155 c 1,38,-1
 779 607 l 1,28,29
829 357 m 0,39,40
 848 466 848 466 813 547 c 1,41,-1
 301 98 l 1,42,43
 331 66 331 66 375.5 47.5 c 128,-1,44
 420 29 420 29 477 29 c 0,45,46
 543 29 543 29 602 54.5 c 128,-1,47
 661 80 661 80 707.5 124.5 c 128,-1,48
 754 169 754 169 785.5 228.5 c 128,-1,49
 817 288 817 288 829 357 c 0,39,40
EndSplineSet
EndChar
StartChar: Thorn
Encoding: 222 222 159
Width: 835
VWidth: 1533
Flags: W
HStem: 0 21G<109 244.315> 181 63<284 355.683 355.683 462.346> 544 62<345 392.996 392.996 462.424 462.424 511 511 515.471 515.471 558 558 598.955>
Fore
856 399 m 0,0,1
 848 351 848 351 822 316.5 c 128,-1,2
 796 282 796 282 759 257.5 c 128,-1,3
 722 233 722 233 677 218.5 c 128,-1,4
 632 204 632 204 586 196 c 0,5,6
 506 182 506 182 428 180.5 c 128,-1,7
 350 179 350 179 271 181 c 1,8,-1
 241 0 l 1,9,-1
 109 0 l 1,10,-1
 239 745 l 1,11,-1
 370 745 l 1,12,-1
 345 606 l 1,13,14
 385 606 385 606 441.5 606.5 c 128,-1,15
 498 607 498 607 558 602.5 c 128,-1,16
 618 598 618 598 675.5 586.5 c 128,-1,17
 733 575 733 575 776.5 552 c 128,-1,18
 820 529 820 529 842.5 491.5 c 128,-1,19
 865 454 865 454 856 399 c 0,0,1
698 400 m 0,20,21
 705 448 705 448 677.5 477 c 128,-1,22
 650 506 650 506 605.5 520.5 c 128,-1,23
 561 535 561 535 511 539.5 c 128,-1,24
 461 544 461 544 425 544 c 2,25,-1
 336 544 l 1,26,-1
 284 244 l 1,27,-1
 368 244 l 2,28,29
 411 244 411 244 464 247.5 c 128,-1,30
 517 251 517 251 566 267.5 c 128,-1,31
 615 284 615 284 651.5 314.5 c 128,-1,32
 688 345 688 345 698 400 c 0,20,21
EndSplineSet
EndChar
StartChar: uni00DF
Encoding: 223 223 160
Width: 734
VWidth: 1533
Flags: W
HStem: -18 67<381.61 489.986> 751 60<400.835 557.562>
Fore
736 218 m 0,0,1
 727 166 727 166 697 123 c 128,-1,2
 667 80 667 80 624 48.5 c 128,-1,3
 581 17 581 17 529.5 -0.5 c 128,-1,4
 478 -18 478 -18 428 -18 c 0,5,6
 392 -18 392 -18 349.5 -12 c 128,-1,7
 307 -6 307 -6 267 20 c 1,8,-1
 327 112 l 1,9,10
 345 83 345 83 372 66 c 128,-1,11
 399 49 399 49 429 49 c 0,12,13
 461 49 461 49 486.5 65 c 128,-1,14
 512 81 512 81 532 105.5 c 128,-1,15
 552 130 552 130 565 160 c 128,-1,16
 578 190 578 190 583 219 c 0,17,18
 599 314 599 314 553 360 c 128,-1,19
 507 406 507 406 386 388 c 1,20,-1
 402 474 l 1,21,22
 428 468 428 468 436.5 466.5 c 128,-1,23
 445 465 445 465 451 465 c 0,24,25
 518 465 518 465 546.5 497.5 c 128,-1,26
 575 530 575 530 587 598 c 256,27,28
 599 665 599 665 575.5 708 c 128,-1,29
 552 751 552 751 481 751 c 0,30,31
 435 751 435 751 403 732.5 c 128,-1,32
 371 714 371 714 349 683 c 128,-1,33
 327 652 327 652 313 612 c 128,-1,34
 299 572 299 572 291 529 c 2,35,-1
 198 -2 l 1,36,-1
 72 -2 l 1,37,-1
 166 524 l 2,38,39
 176 584 176 584 202 637 c 128,-1,40
 228 690 228 690 269.5 728.5 c 128,-1,41
 311 767 311 767 367 789 c 128,-1,42
 423 811 423 811 492 811 c 0,43,44
 540 811 540 811 587.5 800.5 c 128,-1,45
 635 790 635 790 671 766 c 128,-1,46
 707 742 707 742 726 702 c 128,-1,47
 745 662 745 662 734 604 c 0,48,49
 724 544 724 544 677 498 c 128,-1,50
 630 452 630 452 573 440 c 1,51,52
 610 431 610 431 642.5 409.5 c 128,-1,53
 675 388 675 388 698 358 c 128,-1,54
 721 328 721 328 731.5 292 c 128,-1,55
 742 256 742 256 736 218 c 0,0,1
EndSplineSet
EndChar
StartChar: ae
Encoding: 230 230 167
Width: 1157
VWidth: 1533
Flags: W
HStem: -17 60<231.26 355.393 742.915 902.588> 317 59<394.444 478.38 478.38 540> 356 61<713 1035> 538 63<349.834 498.712 799.443 971.796>
Fore
1159 232 m 1,0,1
 1113 118 1113 118 1021 50 c 128,-1,2
 929 -18 929 -18 806 -18 c 0,3,4
 728 -18 728 -18 658.5 18 c 128,-1,5
 589 54 589 54 555 127 c 1,6,7
 523 87 523 87 491.5 59.5 c 128,-1,8
 460 32 460 32 425.5 15 c 128,-1,9
 391 -2 391 -2 350.5 -9.5 c 128,-1,10
 310 -17 310 -17 261 -17 c 0,11,12
 215 -17 215 -17 175 -6 c 128,-1,13
 135 5 135 5 106.5 27 c 128,-1,14
 78 49 78 49 64.5 85 c 128,-1,15
 51 121 51 121 60 172 c 0,16,17
 74 248 74 248 130.5 289.5 c 128,-1,18
 187 331 187 331 261.5 350.5 c 128,-1,19
 336 370 336 370 415 373 c 128,-1,20
 494 376 494 376 550 376 c 1,21,-1
 550 379 l 1,22,23
 564 454 564 454 534 496 c 128,-1,24
 504 538 504 538 425 538 c 0,25,26
 380 538 380 538 335.5 507.5 c 128,-1,27
 291 477 291 477 271 426 c 1,28,-1
 143 426 l 1,29,30
 193 524 193 524 270 562.5 c 128,-1,31
 347 601 347 601 437 601 c 0,32,33
 468 601 468 601 498.5 597 c 128,-1,34
 529 593 529 593 557.5 581 c 128,-1,35
 586 569 586 569 609.5 544.5 c 128,-1,36
 633 520 633 520 652 478 c 1,37,38
 711 543 711 543 774 572 c 128,-1,39
 837 601 837 601 903 601 c 0,40,41
 1164 601 1164 601 1177 356 c 1,42,-1
 681 356 l 1,43,44
 675 342 675 342 670 320.5 c 128,-1,45
 665 299 665 299 662 285 c 0,46,47
 655 238 655 238 660 193.5 c 128,-1,48
 665 149 665 149 686 115 c 128,-1,49
 707 81 707 81 743 61 c 128,-1,50
 779 41 779 41 831 41 c 0,51,52
 866 41 866 41 898.5 57.5 c 128,-1,53
 931 74 931 74 957.5 100 c 128,-1,54
 984 126 984 126 1003.5 160.5 c 128,-1,55
 1023 195 1023 195 1032 232 c 1,56,-1
 1159 232 l 1,0,1
1035 417 m 1,57,58
 1023 468 1023 468 988.5 504 c 128,-1,59
 954 540 954 540 892 540 c 0,60,61
 828 540 828 540 779 504 c 128,-1,62
 730 468 730 468 713 417 c 1,63,-1
 1035 417 l 1,57,58
540 317 m 1,64,-1
 452 317 l 2,65,66
 409 317 409 317 366.5 309.5 c 128,-1,67
 324 302 324 302 287.5 284.5 c 128,-1,68
 251 267 251 267 226 238.5 c 128,-1,69
 201 210 201 210 195 170 c 0,70,71
 186 117 186 117 214 80 c 128,-1,72
 242 43 242 43 301 43 c 0,73,74
 350 43 350 43 389 61.5 c 128,-1,75
 428 80 428 80 457 110.5 c 128,-1,76
 486 141 486 141 504.5 181.5 c 128,-1,77
 523 222 523 222 530 267 c 2,78,-1
 540 317 l 1,64,-1
EndSplineSet
EndChar
StartChar: eth
Encoding: 240 240 177
Width: 634
VWidth: 1533
Flags: W
HStem: -12 52<244.748 414.079> 455 52<301.089 461.171> 716 20G<525.69 580.49>
Fore
314 -12 m 256,0,1
 255 -12 255 -12 205.5 6.5 c 128,-1,2
 156 25 156 25 122.5 57.5 c 128,-1,3
 89 90 89 90 74.5 138.5 c 128,-1,4
 60 187 60 187 71 247 c 256,5,6
 81 307 81 307 112.5 355 c 128,-1,7
 144 403 144 403 189.5 437 c 128,-1,8
 235 471 235 471 291.5 489 c 128,-1,9
 348 507 348 507 408 507 c 0,10,11
 426 507 426 507 448.5 504 c 128,-1,12
 471 501 471 501 497 488 c 1,13,14
 480 523 480 523 460 549 c 128,-1,15
 440 575 440 575 405 610 c 1,16,-1
 205 523 l 1,17,-1
 190 575 l 1,18,-1
 356 647 l 1,19,20
 336 661 336 661 306 678.5 c 128,-1,21
 276 696 276 696 222 716 c 1,22,-1
 250 765 l 1,23,24
 307 744 307 744 351.5 724 c 128,-1,25
 396 704 396 704 432 678 c 1,26,-1
 575 736 l 1,27,-1
 589 685 l 1,28,-1
 491 644 l 1,29,30
 520 618 520 618 553.5 579 c 128,-1,31
 587 540 587 540 614 493 c 128,-1,32
 641 446 641 446 655.5 395.5 c 128,-1,33
 670 345 670 345 661 296 c 0,34,35
 647 219 647 219 614 161.5 c 128,-1,36
 581 104 581 104 534.5 66 c 128,-1,37
 488 28 488 28 431 8 c 128,-1,38
 374 -12 374 -12 314 -12 c 256,0,1
399 455 m 0,39,40
 305 455 305 455 252 395.5 c 128,-1,41
 199 336 199 336 184 248 c 0,42,43
 176 204 176 204 180 166.5 c 128,-1,44
 184 129 184 129 201 100.5 c 128,-1,45
 218 72 218 72 249.5 56 c 128,-1,46
 281 40 281 40 327 40 c 256,47,48
 373 40 373 40 409 56 c 128,-1,49
 445 72 445 72 471.5 100.5 c 128,-1,50
 498 129 498 129 514 166.5 c 128,-1,51
 530 204 530 204 538 247 c 256,52,53
 546 290 546 290 542 328 c 128,-1,54
 538 366 538 366 522 394.5 c 128,-1,55
 506 423 506 423 475.5 439 c 128,-1,56
 445 455 445 455 399 455 c 0,39,40
EndSplineSet
EndChar
StartChar: divide
Encoding: 247 247 184
Width: 702
VWidth: 1533
Flags: W
HStem: -21 170<315.574 405.352> 262 80<104 704> 432 171<397.562 485.282>
Fore
526 518 m 0,0,1
 520 483 520 483 490 457.5 c 128,-1,2
 460 432 460 432 425 432 c 256,3,4
 389 432 389 432 369.5 457.5 c 128,-1,5
 350 483 350 483 356 518 c 0,6,7
 363 553 363 553 393 578 c 128,-1,8
 423 603 423 603 455 603 c 0,9,10
 491 603 491 603 512.5 578 c 128,-1,11
 534 553 534 553 526 518 c 0,0,1
90 262 m 1,12,-1
 104 342 l 1,13,-1
 718 342 l 1,14,-1
 704 262 l 1,15,-1
 90 262 l 1,12,-1
446 63 m 0,16,17
 438 28 438 28 409 3.5 c 128,-1,18
 380 -21 380 -21 345 -21 c 256,19,20
 310 -21 310 -21 290 4 c 128,-1,21
 270 29 270 29 276 63 c 0,22,23
 282 98 282 98 311 123.5 c 128,-1,24
 340 149 340 149 376 149 c 256,25,26
 411 149 411 149 431.5 123.5 c 128,-1,27
 452 98 452 98 446 63 c 0,16,17
EndSplineSet
EndChar
StartChar: oslash
Encoding: 248 248 185
Width: 732
VWidth: 1533
Flags: W
HStem: -15 55<292.352 482.291> 494 53<361.669 552.907>
Fore
701 455 m 1,0,1
 730 420 730 420 741.5 372 c 128,-1,2
 753 324 753 324 742 265 c 0,3,4
 730 199 730 199 696 147 c 128,-1,5
 662 95 662 95 612.5 59 c 128,-1,6
 563 23 563 23 500.5 4 c 128,-1,7
 438 -15 438 -15 373 -15 c 0,8,9
 258 -15 258 -15 186 38 c 1,10,-1
 80 -48 l 1,11,-1
 -8 -48 l 1,12,-1
 143 75 l 1,13,14
 115 112 115 112 102 159.5 c 128,-1,15
 89 207 89 207 100 265 c 0,16,17
 110 331 110 331 144.5 383 c 128,-1,18
 179 435 179 435 230 472 c 128,-1,19
 281 509 281 509 342 528 c 128,-1,20
 403 547 403 547 471 547 c 0,21,22
 584 547 584 547 658 495 c 1,23,-1
 760 578 l 1,24,-1
 851 578 l 1,25,-1
 701 455 l 1,0,1
592 440 m 1,26,27
 547 494 547 494 461 494 c 0,28,29
 373 494 373 494 307.5 437 c 128,-1,30
 242 380 242 380 222 267 c 0,31,32
 210 193 210 193 227 144 c 1,33,-1
 592 440 l 1,26,27
621 265 m 0,34,35
 635 337 635 337 618 388 c 1,36,-1
 253 94 l 1,37,38
 297 40 297 40 383 40 c 0,39,40
 471 40 471 40 536 96.5 c 128,-1,41
 601 153 601 153 621 265 c 0,34,35
EndSplineSet
EndChar
StartChar: thorn
Encoding: 254 254 191
Width: 786
VWidth: 1533
Flags: W
HStem: -32 61<329.7 493.427> 560 62<415.223 580.565>
Fore
806 294 m 0,0,1
 794 221 794 221 758 160.5 c 128,-1,2
 722 100 722 100 669 57 c 128,-1,3
 616 14 616 14 551 -9 c 128,-1,4
 486 -32 486 -32 415 -32 c 0,5,6
 339 -32 339 -32 285.5 -1.5 c 128,-1,7
 232 29 232 29 201 77 c 1,8,-1
 149 -225 l 1,9,-1
 29 -225 l 1,10,-1
 238 961 l 1,11,-1
 350 961 l 1,12,-1
 270 507 l 1,13,14
 314 561 314 561 383 591.5 c 128,-1,15
 452 622 452 622 530 622 c 0,16,17
 601 622 601 622 657.5 596 c 128,-1,18
 714 570 714 570 751 525.5 c 128,-1,19
 788 481 788 481 803.5 421.5 c 128,-1,20
 819 362 819 362 806 294 c 0,0,1
672 297 m 0,21,22
 682 356 682 356 672 404 c 128,-1,23
 662 452 662 452 638.5 486.5 c 128,-1,24
 615 521 615 521 579 540.5 c 128,-1,25
 543 560 543 560 500 560 c 0,26,27
 458 560 458 560 415.5 539 c 128,-1,28
 373 518 373 518 337.5 483 c 128,-1,29
 302 448 302 448 276 400.5 c 128,-1,30
 250 353 250 353 241 297 c 256,31,32
 232 242 232 242 240 194 c 128,-1,33
 248 146 248 146 271 109 c 128,-1,34
 294 72 294 72 329.5 50.5 c 128,-1,35
 365 29 365 29 406 29 c 256,36,37
 448 29 448 29 491 48 c 128,-1,38
 534 67 534 67 570.5 103.5 c 128,-1,39
 607 140 607 140 634 189 c 128,-1,40
 661 238 661 238 672 297 c 0,21,22
EndSplineSet
EndChar
StartChar: Lslash
Encoding: 321 321 193
Width: 708
VWidth: 1533
Flags: W
HStem: 0 61<210 645> 694 20G<195.499 325>
Fore
74 0 m 1,0,-1
 199 714 l 1,1,-1
 325 714 l 1,2,-1
 210 61 l 1,3,-1
 656 61 l 1,4,-1
 645 0 l 1,5,-1
 74 0 l 1,0,-1
72 308 m 1,6,-1
 80 354 l 1,7,-1
 504 503 l 1,8,-1
 497 457 l 1,9,-1
 72 308 l 1,6,-1
EndSplineSet
EndChar
StartChar: lslash
Encoding: 322 322 194
Width: 325
VWidth: 1533
Flags: W
HStem: 0 21G<110 239.529> 694 20G<232.471 362>
VStem: 110 273<377 517 377 377>
Fore
110 377 m 1,0,-1
 118 423 l 1,1,-1
 383 517 l 1,2,-1
 376 471 l 1,3,-1
 110 377 l 1,0,-1
110 0 m 1,4,-1
 236 714 l 1,5,-1
 362 714 l 1,6,-1
 236 0 l 1,7,-1
 110 0 l 1,4,-1
EndSplineSet
EndChar
StartChar: OE
Encoding: 338 338 195
Width: 1344
VWidth: 1533
Flags: W
HStem: -26 55<345.137 564.256> 0 61<856 1331> 351 63<915 1283> 653 63<958 1446> 684 55<455.519 674.081>
Fore
718 0 m 1,0,-1
 731 83 l 1,1,2
 667 34 667 34 595.5 4 c 128,-1,3
 524 -26 524 -26 442 -26 c 0,4,5
 351 -26 351 -26 280 4 c 128,-1,6
 209 34 209 34 162 85 c 128,-1,7
 115 136 115 136 96 206 c 128,-1,8
 77 276 77 276 90 356 c 256,9,10
 104 435 104 435 148 505 c 128,-1,11
 192 575 192 575 257 627 c 128,-1,12
 322 679 322 679 404 709 c 128,-1,13
 486 739 486 739 576 739 c 0,14,15
 737 739 737 739 828 635 c 1,16,-1
 843 716 l 1,17,-1
 1457 716 l 1,18,-1
 1446 653 l 1,19,-1
 958 653 l 1,20,-1
 915 414 l 1,21,-1
 1294 414 l 1,22,-1
 1283 351 l 1,23,-1
 905 351 l 1,24,-1
 856 61 l 1,25,-1
 1342 61 l 1,26,-1
 1331 0 l 1,27,-1
 718 0 l 1,0,-1
787 394 m 2,28,29
 797 455 797 455 788 509 c 128,-1,30
 779 563 779 563 750.5 601 c 128,-1,31
 722 639 722 639 675.5 661.5 c 128,-1,32
 629 684 629 684 567 684 c 0,33,34
 500 684 500 684 444.5 658 c 128,-1,35
 389 632 389 632 347 587.5 c 128,-1,36
 305 543 305 543 276.5 483 c 128,-1,37
 248 423 248 423 236 356 c 0,38,39
 224 287 224 287 231 228 c 128,-1,40
 238 169 238 169 264.5 124.5 c 128,-1,41
 291 80 291 80 337 54.5 c 128,-1,42
 383 29 383 29 451 29 c 0,43,44
 512 29 512 29 566.5 51.5 c 128,-1,45
 621 74 621 74 663 113 c 128,-1,46
 705 152 705 152 733.5 205.5 c 128,-1,47
 762 259 762 259 773 320 c 2,48,-1
 787 394 l 2,28,29
EndSplineSet
EndChar
StartChar: oe
Encoding: 339 339 196
Width: 1090
VWidth: 1533
Flags: W
HStem: -15 59<249.973 415.108 723.422 861.775> 310 60<701 987> 488 59<321.051 485.46 781.55 938.029>
VStem: 980 107<144.902 215>
Fore
667 310 m 1,0,1
 664 297 664 297 662.5 285.5 c 128,-1,2
 661 274 661 274 659 262 c 0,3,4
 652 222 652 222 656.5 183 c 128,-1,5
 661 144 661 144 678 113.5 c 128,-1,6
 695 83 695 83 724.5 63.5 c 128,-1,7
 754 44 754 44 799 44 c 0,8,9
 828 44 828 44 855.5 58 c 128,-1,10
 883 72 883 72 907.5 95 c 128,-1,11
 932 118 932 118 950.5 148.5 c 128,-1,12
 969 179 969 179 980 215 c 1,13,-1
 1087 215 l 1,14,15
 1075 158 1075 158 1044 114.5 c 128,-1,16
 1013 71 1013 71 972 41.5 c 128,-1,17
 931 12 931 12 882.5 -2.5 c 128,-1,18
 834 -17 834 -17 788 -17 c 0,19,20
 716 -17 716 -17 657.5 17.5 c 128,-1,21
 599 52 599 52 573 115 c 1,22,23
 524 49 524 49 455 17 c 128,-1,24
 386 -15 386 -15 317 -15 c 0,25,26
 250 -15 250 -15 200 6.5 c 128,-1,27
 150 28 150 28 118.5 66 c 128,-1,28
 87 104 87 104 75 154.5 c 128,-1,29
 63 205 63 205 74 265 c 256,30,31
 84 325 84 325 113.5 376.5 c 128,-1,32
 143 428 143 428 188 466 c 128,-1,33
 233 504 233 504 290.5 525.5 c 128,-1,34
 348 547 348 547 415 547 c 256,35,36
 483 547 483 547 539.5 522 c 128,-1,37
 596 497 596 497 627 431 c 1,38,39
 676 489 676 489 741 519.5 c 128,-1,40
 806 550 806 550 875 550 c 0,41,42
 929 550 929 550 974.5 535.5 c 128,-1,43
 1020 521 1020 521 1051 491 c 128,-1,44
 1082 461 1082 461 1098.5 416 c 128,-1,45
 1115 371 1115 371 1110 310 c 1,46,-1
 667 310 l 1,0,1
859 492 m 0,47,48
 811 492 811 492 765 457 c 128,-1,49
 719 422 719 422 701 370 c 1,50,-1
 987 370 l 1,51,52
 983 431 983 431 947 461.5 c 128,-1,53
 911 492 911 492 859 492 c 0,47,48
406 488 m 256,54,55
 359 488 359 488 323 469.5 c 128,-1,56
 287 451 287 451 261 421 c 128,-1,57
 235 391 235 391 218 350.5 c 128,-1,58
 201 310 201 310 193 267 c 256,59,60
 186 224 186 224 188 184 c 128,-1,61
 190 144 190 144 206 112.5 c 128,-1,62
 222 81 222 81 252 62.5 c 128,-1,63
 282 44 282 44 330 44 c 256,64,65
 377 44 377 44 413 62.5 c 128,-1,66
 449 81 449 81 475 112 c 128,-1,67
 501 143 501 143 517.5 182.5 c 128,-1,68
 534 222 534 222 541 265 c 256,69,70
 549 308 549 308 546.5 348.5 c 128,-1,71
 544 389 544 389 529 420 c 128,-1,72
 514 451 514 451 484 469.5 c 128,-1,73
 454 488 454 488 406 488 c 256,54,55
EndSplineSet
EndChar
StartChar: florin
Encoding: 402 402 202
Width: 763
VWidth: 1533
Flags: W
HStem: -222 59<90.2661 199.63> 446 52<350 428 566 650> 724 66<657.901 771.053>
Fore
759 650 m 1,0,1
 756 679 756 679 743.5 701.5 c 128,-1,2
 731 724 731 724 708 724 c 0,3,4
 676 724 676 724 652.5 698 c 128,-1,5
 629 672 629 672 612 635 c 128,-1,6
 595 598 595 598 583.5 559.5 c 128,-1,7
 572 521 572 521 566 498 c 1,8,-1
 676 498 l 1,9,-1
 650 446 l 1,10,-1
 550 446 l 1,11,-1
 425 35 l 2,12,13
 406 -20 406 -20 373 -67.5 c 128,-1,14
 340 -115 340 -115 295 -149.5 c 128,-1,15
 250 -184 250 -184 196.5 -203 c 128,-1,16
 143 -222 143 -222 83 -222 c 0,17,18
 48 -222 48 -222 25.5 -195.5 c 128,-1,19
 3 -169 3 -169 -6 -129 c 1,20,-1
 110 -104 l 1,21,22
 115 -129 115 -129 132 -146 c 128,-1,23
 149 -163 149 -163 170 -163 c 0,24,25
 193 -163 193 -163 212.5 -145 c 128,-1,26
 232 -127 232 -127 246.5 -102 c 128,-1,27
 261 -77 261 -77 271.5 -51 c 128,-1,28
 282 -25 282 -25 288 -6 c 2,29,-1
 428 446 l 1,30,-1
 324 446 l 1,31,-1
 350 498 l 1,32,-1
 442 498 l 1,33,34
 458 550 458 550 486.5 602.5 c 128,-1,35
 515 655 515 655 555 696 c 128,-1,36
 595 737 595 737 648 763.5 c 128,-1,37
 701 790 701 790 768 790 c 0,38,39
 799 790 799 790 829 763.5 c 128,-1,40
 859 737 859 737 879 704 c 1,41,-1
 759 650 l 1,0,1
EndSplineSet
EndChar
StartChar: circumflex
Encoding: 710 710 203
Width: 674
VWidth: 1533
Flags: W
HStem: 679 186<455 580 455 455>
VStem: 279 362<679 679 679 679>
Fore
580 679 m 1,0,-1
 477 780 l 1,1,-1
 340 679 l 1,2,-1
 279 679 l 1,3,-1
 455 865 l 1,4,-1
 530 865 l 1,5,-1
 641 679 l 1,6,-1
 580 679 l 1,0,-1
EndSplineSet
EndChar
StartChar: caron
Encoding: 711 711 204
Width: 343
VWidth: 1533
Flags: W
HStem: 642 186<118 322 118 118>
VStem: 118 393<828 828 828 828>
Fore
322 642 m 1,0,-1
 241 642 l 1,1,-1
 118 828 l 1,2,-1
 186 828 l 1,3,-1
 296 727 l 1,4,-1
 446 828 l 1,5,-1
 511 828 l 1,6,-1
 322 642 l 1,0,-1
EndSplineSet
EndChar
StartChar: breve
Encoding: 728 728 205
Width: 338
VWidth: 1533
Flags: W
HStem: 641 64<223.358 359.521>
VStem: 140 341<782 817 817 817 817 817>
Fore
481 817 m 1,0,1
 474 782 474 782 457 750 c 128,-1,2
 440 718 440 718 414 693 c 128,-1,3
 388 668 388 668 354 654.5 c 128,-1,4
 320 641 320 641 279 641 c 256,5,6
 238 641 238 641 209.5 654.5 c 128,-1,7
 181 668 181 668 164 693 c 128,-1,8
 147 718 147 718 141 750 c 128,-1,9
 135 782 135 782 140 817 c 1,10,-1
 192 817 l 1,11,12
 195 764 195 764 216.5 734.5 c 128,-1,13
 238 705 238 705 291 705 c 256,14,15
 345 705 345 705 376.5 735 c 128,-1,16
 408 765 408 765 428 817 c 1,17,-1
 481 817 l 1,0,1
EndSplineSet
EndChar
StartChar: dotaccent
Encoding: 729 729 206
Width: 280
VWidth: 1533
Flags: W
HStem: 627 140<221.063 301.734>
VStem: 189 144<681 747.988>
Fore
333 696 m 0,0,1
 327 665 327 665 302.5 646 c 128,-1,2
 278 627 278 627 250 627 c 0,3,4
 225 627 225 627 209 642.5 c 128,-1,5
 193 658 193 658 192 681 c 1,6,-1
 189 681 l 1,7,8
 196 722 196 722 220 744.5 c 128,-1,9
 244 767 244 767 274 767 c 256,10,11
 305 767 305 767 321 747 c 128,-1,12
 337 727 337 727 333 696 c 0,0,1
EndSplineSet
EndChar
StartChar: ring
Encoding: 730 730 207
Width: 280
VWidth: 1533
Flags: W
HStem: 630 60<219.206 310.168> 819 60<234.953 326.128>
VStem: 149 248<701 708.5 799.5 806 754 754 754 754>
Fore
397 754 m 0,0,1
 388 701 388 701 346 665.5 c 128,-1,2
 304 630 304 630 251 630 c 256,3,4
 199 630 199 630 169.5 665.5 c 128,-1,5
 140 701 140 701 149 754 c 0,6,7
 158 806 158 806 200 842.5 c 128,-1,8
 242 879 242 879 296 879 c 256,9,10
 350 879 350 879 378 842.5 c 128,-1,11
 406 806 406 806 397 754 c 0,0,1
336 754 m 256,12,13
 340 780 340 780 325.5 799.5 c 128,-1,14
 311 819 311 819 285 819 c 256,15,16
 259 819 259 819 236 799.5 c 128,-1,17
 213 780 213 780 209 754 c 0,18,19
 204 727 204 727 220 708.5 c 128,-1,20
 236 690 236 690 262 690 c 256,21,22
 288 690 288 690 309.5 709 c 128,-1,23
 331 728 331 728 336 754 c 256,12,13
EndSplineSet
EndChar
StartChar: ogonek
Encoding: 731 731 208
Width: 280
VWidth: 1533
Flags: W
HStem: -255 59<37.6953 153.336> 3 28<237.185 253>
VStem: -37 305<-147 3 -147 -147>
Fore
250 -181 m 1,0,1
 201 -215 201 -215 152 -235 c 128,-1,2
 103 -255 103 -255 54 -255 c 0,3,4
 9 -255 9 -255 -18.5 -225.5 c 128,-1,5
 -46 -196 -46 -196 -37 -147 c 0,6,7
 -31 -107 -31 -107 2 -77.5 c 128,-1,8
 35 -48 35 -48 79 -26.5 c 128,-1,9
 123 -5 123 -5 170.5 9 c 128,-1,10
 218 23 218 23 253 31 c 1,11,-1
 268 3 l 1,12,13
 244 -6 244 -6 211 -19 c 128,-1,14
 178 -32 178 -32 147.5 -49 c 128,-1,15
 117 -66 117 -66 94 -88 c 128,-1,16
 71 -110 71 -110 66 -138 c 0,17,18
 54 -196 54 -196 106 -196 c 0,19,20
 129 -196 129 -196 168 -179.5 c 128,-1,21
 207 -163 207 -163 233 -140 c 1,22,-1
 250 -181 l 1,0,1
EndSplineSet
EndChar
StartChar: tilde
Encoding: 732 732 209
Width: 360
VWidth: 1533
Flags: W
HStem: 681 61<356.391 427.679> 681 118<117 501 501 501> 731 62<190.457 263.547>
Fore
501 799 m 1,0,1
 484 750 484 750 449 715.5 c 128,-1,2
 414 681 414 681 360 681 c 0,3,4
 336 681 336 681 318.5 688.5 c 128,-1,5
 301 696 301 696 285.5 706 c 128,-1,6
 270 716 270 716 256 723.5 c 128,-1,7
 242 731 242 731 227 731 c 0,8,9
 210 731 210 731 194.5 717.5 c 128,-1,10
 179 704 179 704 167 681 c 1,11,-1
 117 681 l 1,12,13
 130 724 130 724 167.5 758.5 c 128,-1,14
 205 793 205 793 258 793 c 0,15,16
 281 793 281 793 299 785 c 128,-1,17
 317 777 317 777 333.5 767 c 128,-1,18
 350 757 350 757 364.5 749.5 c 128,-1,19
 379 742 379 742 392 742 c 0,20,21
 411 742 411 742 425.5 758 c 128,-1,22
 440 774 440 774 454 799 c 1,23,-1
 501 799 l 1,0,1
EndSplineSet
EndChar
StartChar: hungarumlaut
Encoding: 733 733 210
Width: 280
VWidth: 1533
Flags: W
HStem: 650 195<267 429 429 429>
VStem: 81 384<650 811 650 650>
Fore
465 811 m 0,0,1
 460 791 460 791 442 776 c 2,2,-1
 267 650 l 1,3,-1
 232 650 l 1,4,-1
 374 814 l 2,5,6
 386 828 386 828 398.5 836.5 c 128,-1,7
 411 845 411 845 429 845 c 0,8,9
 445 845 445 845 456.5 835.5 c 128,-1,10
 468 826 468 826 465 811 c 0,0,1
314 811 m 1,11,12
 310 791 310 791 291 776 c 2,13,-1
 117 650 l 1,14,-1
 81 650 l 1,15,-1
 224 814 l 2,16,17
 236 828 236 828 248.5 836.5 c 128,-1,18
 261 845 261 845 279 845 c 0,19,20
 294 845 294 845 305 835.5 c 128,-1,21
 316 826 316 826 313 811 c 1,22,-1
 314 811 l 1,11,12
EndSplineSet
EndChar
StartChar: uni0E01
Encoding: 3585 3585 212
Width: 732
VWidth: 1533
Flags: W
HStem: 0 21G<77 202.475 534 659.478> 570 54<381.662 556.449>
Fore
534 0 m 1,0,-1
 609 429 l 2,1,2
 621 497 621 497 578 533.5 c 128,-1,3
 535 570 535 570 457 570 c 0,4,5
 417 570 417 570 382 560 c 128,-1,6
 347 550 347 550 318.5 530.5 c 128,-1,7
 290 511 290 511 270.5 483 c 128,-1,8
 251 455 251 455 245 422 c 1,9,-1
 342 422 l 1,10,-1
 334 382 l 1,11,12
 262 356 262 356 248 282 c 2,13,-1
 199 0 l 1,14,-1
 77 0 l 1,15,-1
 123 268 l 2,16,17
 126 285 126 285 136.5 303.5 c 128,-1,18
 147 322 147 322 164 337.5 c 128,-1,19
 181 353 181 353 203 364.5 c 128,-1,20
 225 376 225 376 253 380 c 1,21,-1
 107 380 l 1,22,23
 123 440 123 440 157.5 486 c 128,-1,24
 192 532 192 532 240 562.5 c 128,-1,25
 288 593 288 593 345.5 608.5 c 128,-1,26
 403 624 403 624 466 624 c 0,27,28
 523 624 523 624 575 611.5 c 128,-1,29
 627 599 627 599 664.5 574 c 128,-1,30
 702 549 702 549 719.5 509 c 128,-1,31
 737 469 737 469 728 414 c 2,32,-1
 656 0 l 1,33,-1
 534 0 l 1,0,-1
EndSplineSet
EndChar
StartChar: uni0E02
Encoding: 3586 3586 213
Width: 731
VWidth: 1533
Flags: W
HStem: 0 61<276 541> 281 55<171.369 263.253> 501 46<233.786 284.971> 572 52<264.116 385.307>
Fore
143 0 m 1,0,-1
 178 209 l 1,1,2
 209 215 209 215 250 230 c 128,-1,3
 291 245 291 245 330.5 271 c 128,-1,4
 370 297 370 297 400.5 333.5 c 128,-1,5
 431 370 431 370 438 417 c 0,6,7
 443 443 443 443 440 470.5 c 128,-1,8
 437 498 437 498 421.5 520.5 c 128,-1,9
 406 543 406 543 380 557.5 c 128,-1,10
 354 572 354 572 313 572 c 0,11,12
 287 572 287 572 264 563.5 c 128,-1,13
 241 555 241 555 233 547 c 1,14,15
 274 550 274 550 303.5 539.5 c 128,-1,16
 333 529 333 529 350.5 510 c 128,-1,17
 368 491 368 491 375 464.5 c 128,-1,18
 382 438 382 438 377 411 c 0,19,20
 373 385 373 385 357.5 361 c 128,-1,21
 342 337 342 337 319.5 319.5 c 128,-1,22
 297 302 297 302 269.5 291.5 c 128,-1,23
 242 281 242 281 213 281 c 256,24,25
 184 281 184 281 158 291 c 128,-1,26
 132 301 132 301 113.5 320 c 128,-1,27
 95 339 95 339 86 368 c 128,-1,28
 77 397 77 397 84 437 c 0,29,30
 90 475 90 475 113 509.5 c 128,-1,31
 136 544 136 544 170 569.5 c 128,-1,32
 204 595 204 595 246 609.5 c 128,-1,33
 288 624 288 624 336 624 c 256,34,35
 383 624 383 624 421.5 608.5 c 128,-1,36
 460 593 460 593 485.5 566.5 c 128,-1,37
 511 540 511 540 520.5 504 c 128,-1,38
 530 468 530 468 524 426 c 0,39,40
 515 374 515 374 488 335.5 c 128,-1,41
 461 297 461 297 427.5 270.5 c 128,-1,42
 394 244 394 244 359.5 227 c 128,-1,43
 325 210 325 210 301 202 c 1,44,-1
 276 61 l 1,45,-1
 541 61 l 1,46,-1
 638 613 l 1,47,-1
 760 613 l 1,48,-1
 653 0 l 1,49,-1
 143 0 l 1,0,-1
320 419 m 256,50,51
 327 452 327 452 306 476.5 c 128,-1,52
 285 501 285 501 251 501 c 256,53,54
 218 501 218 501 189.5 476.5 c 128,-1,55
 161 452 161 452 155 419 c 256,56,57
 149 385 149 385 169 360.5 c 128,-1,58
 189 336 189 336 222 336 c 256,59,60
 256 336 256 336 285 360.5 c 128,-1,61
 314 385 314 385 320 419 c 256,50,51
EndSplineSet
EndChar
StartChar: uni0E03
Encoding: 3587 3587 214
Width: 760
VWidth: 1533
Flags: W
HStem: 0 61<307 572> 267 55<161.07 253.438> 488 42<210.852 219.453 219.547 275.971> 572 52<232.201 335.387 398.914 465.869>
Fore
173 0 m 1,0,-1
 212 225 l 1,1,2
 239 235 239 235 281.5 252.5 c 128,-1,3
 324 270 324 270 365 296 c 128,-1,4
 406 322 406 322 438.5 359.5 c 128,-1,5
 471 397 471 397 480 446 c 0,6,7
 489 503 489 503 473.5 536.5 c 128,-1,8
 458 570 458 570 428 570 c 0,9,10
 411 570 411 570 392.5 558.5 c 128,-1,11
 374 547 374 547 359 527 c 1,12,13
 351 544 351 544 332.5 558 c 128,-1,14
 314 572 314 572 284 572 c 0,15,16
 259 572 259 572 239 559.5 c 128,-1,17
 219 547 219 547 210 530 c 1,18,19
 212 530 212 530 215 532 c 1,20,21
 218 532 218 532 219.5 533 c 128,-1,22
 221 534 221 534 224 534 c 0,23,24
 265 537 265 537 294.5 526 c 128,-1,25
 324 515 324 515 341.5 496 c 128,-1,26
 359 477 359 477 365 451 c 128,-1,27
 371 425 371 425 366 397 c 0,28,29
 362 371 362 371 346.5 347.5 c 128,-1,30
 331 324 331 324 309 306 c 128,-1,31
 287 288 287 288 259.5 277.5 c 128,-1,32
 232 267 232 267 202 267 c 256,33,34
 173 267 173 267 147 277 c 128,-1,35
 121 287 121 287 102.5 307 c 128,-1,36
 84 327 84 327 75.5 358 c 128,-1,37
 67 389 67 389 75 432 c 0,38,39
 83 474 83 474 103 509 c 128,-1,40
 123 544 123 544 151 569.5 c 128,-1,41
 179 595 179 595 213 609.5 c 128,-1,42
 247 624 247 624 284 624 c 0,43,44
 319 624 319 624 339.5 611 c 128,-1,45
 360 598 360 598 366 583 c 1,46,47
 380 599 380 599 404 611.5 c 128,-1,48
 428 624 428 624 457 624 c 0,49,50
 523 624 523 624 559 578 c 128,-1,51
 595 532 595 532 580 448 c 0,52,53
 570 396 570 396 541 357.5 c 128,-1,54
 512 319 512 319 475 291.5 c 128,-1,55
 438 264 438 264 400 246 c 128,-1,56
 362 228 362 228 334 218 c 1,57,-1
 307 61 l 1,58,-1
 572 61 l 1,59,-1
 668 613 l 1,60,-1
 791 613 l 1,61,-1
 684 0 l 1,62,-1
 173 0 l 1,0,-1
310 405 m 256,63,64
 316 438 316 438 296 463 c 128,-1,65
 276 488 276 488 242 488 c 256,66,67
 209 488 209 488 179.5 463 c 128,-1,68
 150 438 150 438 144 405 c 256,69,70
 138 371 138 371 158.5 346.5 c 128,-1,71
 179 322 179 322 213 322 c 256,72,73
 247 322 247 322 275.5 346.5 c 128,-1,74
 304 371 304 371 310 405 c 256,63,64
EndSplineSet
EndChar
StartChar: uni0E04
Encoding: 3588 3588 215
Width: 774
VWidth: 1533
Flags: W
HStem: 0 21G<78 205.959 575 701.457> 198 57<374.028 484.769> 420 54<396.295 506.034> 570 54<373.164 559.701>
Fore
575 0 m 1,0,-1
 650 432 l 2,1,2
 656 463 656 463 646 488.5 c 128,-1,3
 636 514 636 514 614.5 532 c 128,-1,4
 593 550 593 550 560 560 c 128,-1,5
 527 570 527 570 486 570 c 0,6,7
 397 570 397 570 333.5 527 c 128,-1,8
 270 484 270 484 258 411 c 0,9,10
 255 394 255 394 251.5 370.5 c 128,-1,11
 248 347 248 347 247 334 c 0,12,-1
 242.5 283 l 0,13,14
 239 245 239 245 238 227 c 1,15,-1
 297 351 l 2,16,17
 320 399 320 399 361 436.5 c 128,-1,18
 402 474 402 474 465 474 c 256,19,20
 527 474 527 474 558.5 434 c 128,-1,21
 590 394 590 394 580 336 c 256,22,23
 569 278 569 278 523 238 c 128,-1,24
 477 198 477 198 415 198 c 0,25,26
 385 198 385 198 359 210 c 128,-1,27
 333 222 333 222 316 241 c 1,28,-1
 196 0 l 1,29,-1
 78 0 l 1,30,31
 103 106 103 106 108 204 c 128,-1,32
 113 302 113 302 129 389 c 0,33,34
 140 446 140 446 173.5 490 c 128,-1,35
 207 534 207 534 257 563.5 c 128,-1,36
 307 593 307 593 369 608.5 c 128,-1,37
 431 624 431 624 495 624 c 256,38,39
 560 624 560 624 615 611 c 128,-1,40
 670 598 670 598 707.5 571 c 128,-1,41
 745 544 745 544 762 502.5 c 128,-1,42
 779 461 779 461 768 405 c 2,43,-1
 698 0 l 1,44,-1
 575 0 l 1,0,-1
523 337 m 256,45,46
 529 371 529 371 509 395.5 c 128,-1,47
 489 420 489 420 455 420 c 256,48,49
 422 420 422 420 392.5 395.5 c 128,-1,50
 363 371 363 371 357 337 c 256,51,52
 351 304 351 304 371.5 279.5 c 128,-1,53
 392 255 392 255 426 255 c 256,54,55
 460 255 460 255 488.5 279.5 c 128,-1,56
 517 304 517 304 523 337 c 256,45,46
EndSplineSet
EndChar
StartChar: uni0E05
Encoding: 3589 3589 216
Width: 774
VWidth: 1533
Flags: W
HStem: 0 21G<78 206.456 575 701.474> 198 57<380.775 490.845> 420 54<402.7 512.297> 570 56<323.786 439.603 542.862 643.777>
Fore
575 0 m 1,0,-1
 656 461 l 2,1,2
 665 514 665 514 648.5 542 c 128,-1,3
 632 570 632 570 592 570 c 0,4,5
 561 570 561 570 539 555 c 128,-1,6
 517 540 517 540 501 518 c 1,7,-1
 457 518 l 1,8,9
 454 544 454 544 435.5 557 c 128,-1,10
 417 570 417 570 391 570 c 0,11,12
 337 570 337 570 304 529 c 128,-1,13
 271 488 271 488 259 423 c 0,14,15
 251 374 251 374 246 320.5 c 128,-1,16
 241 267 241 267 236 218 c 1,17,-1
 304 351 l 2,18,19
 328 399 328 399 368 436.5 c 128,-1,20
 408 474 408 474 471 474 c 256,21,22
 534 474 534 474 565 434 c 128,-1,23
 596 394 596 394 586 336 c 256,24,25
 575 278 575 278 529 238 c 128,-1,26
 483 198 483 198 422 198 c 0,27,28
 391 198 391 198 365 210 c 128,-1,29
 339 222 339 222 322 241 c 1,30,-1
 196 0 l 1,31,-1
 78 0 l 1,32,33
 94 64 94 64 100.5 116.5 c 128,-1,34
 107 169 107 169 111 215 c 128,-1,35
 115 261 115 261 119 305.5 c 128,-1,36
 123 350 123 350 130 397 c 0,37,38
 138 440 138 440 158 481.5 c 128,-1,39
 178 523 178 523 209.5 555 c 128,-1,40
 241 587 241 587 284 606.5 c 128,-1,41
 327 626 327 626 379 626 c 0,42,43
 423 626 423 626 453 609.5 c 128,-1,44
 483 593 483 593 492 567 c 1,45,46
 512 589 512 589 545 607.5 c 128,-1,47
 578 626 578 626 622 626 c 0,48,49
 701 626 701 626 746 581.5 c 128,-1,50
 791 537 791 537 776 449 c 2,51,-1
 698 0 l 1,52,-1
 575 0 l 1,0,-1
529 337 m 256,53,54
 535 371 535 371 515 395.5 c 128,-1,55
 495 420 495 420 461 420 c 256,56,57
 428 420 428 420 399 395.5 c 128,-1,58
 370 371 370 371 363 337 c 256,59,60
 357 304 357 304 378 279.5 c 128,-1,61
 399 255 399 255 432 255 c 256,62,63
 466 255 466 255 494.5 279.5 c 128,-1,64
 523 304 523 304 529 337 c 256,53,54
EndSplineSet
EndChar
StartChar: uni0E06
Encoding: 3590 3590 217
Width: 844
VWidth: 1533
Flags: W
HStem: -8 66<189.04 281.758> 192 65<208.497 294.425 285.485 303.365 303.365 308.577 308.577 318.85> 281 52<164.447 253.455> 491 39<212.056 220.453 220.547 273.189> 572 52<246.954 343.387 422.02 502.519>
Fore
661 0 m 1,0,-1
 434 152 l 1,1,-1
 432 144 l 2,2,3
 420 72 420 72 368.5 32 c 128,-1,4
 317 -8 317 -8 238 -8 c 0,5,6
 170 -8 170 -8 134 31.5 c 128,-1,7
 98 71 98 71 109 127 c 0,8,9
 120 186 120 186 171 222 c 128,-1,10
 222 258 222 258 291 258 c 0,11,12
 307 258 307 258 315.5 257 c 128,-1,13
 324 256 324 256 330 256 c 1,14,15
 336 290 336 290 356.5 313.5 c 128,-1,16
 377 337 377 337 401.5 360 c 128,-1,17
 426 383 426 383 448.5 411.5 c 128,-1,18
 471 440 471 440 478 481 c 0,19,20
 486 518 486 518 473.5 543.5 c 128,-1,21
 461 569 461 569 435 570 c 0,22,23
 419 570 419 570 400.5 559.5 c 128,-1,24
 382 549 382 549 366 527 c 1,25,26
 359 544 359 544 340.5 558 c 128,-1,27
 322 572 322 572 291 572 c 0,28,29
 267 572 267 572 244 559.5 c 128,-1,30
 221 547 221 547 212 530 c 1,31,32
 213 530 213 530 216 532 c 1,33,34
 219 532 219 532 220.5 533 c 128,-1,35
 222 534 222 534 225 534 c 0,36,37
 264 537 264 537 291.5 527 c 128,-1,38
 319 517 319 517 336 498.5 c 128,-1,39
 353 480 353 480 359 455.5 c 128,-1,40
 365 431 365 431 360 405 c 256,41,42
 356 379 356 379 341.5 356.5 c 128,-1,43
 327 334 327 334 305.5 317.5 c 128,-1,44
 284 301 284 301 258.5 291 c 128,-1,45
 233 281 233 281 205 281 c 256,46,47
 178 281 178 281 152.5 290 c 128,-1,48
 127 299 127 299 109.5 318 c 128,-1,49
 92 337 92 337 84.5 368 c 128,-1,50
 77 399 77 399 84 440 c 0,51,52
 90 478 90 478 110 512 c 128,-1,53
 130 546 130 546 158.5 571 c 128,-1,54
 187 596 187 596 221 610 c 128,-1,55
 255 624 255 624 291 624 c 128,-1,56
 327 624 327 624 347.5 611 c 128,-1,57
 368 598 368 598 374 583 c 1,58,59
 388 599 388 599 415.5 611.5 c 128,-1,60
 443 624 443 624 474 624 c 0,61,62
 534 624 534 624 570 590.5 c 128,-1,63
 606 557 606 557 593 483 c 0,64,65
 587 446 587 446 567 422.5 c 128,-1,66
 547 399 547 399 524 379 c 128,-1,67
 501 359 501 359 482 338 c 128,-1,68
 463 317 463 317 457 285 c 2,69,-1
 446 222 l 1,70,-1
 659 81 l 1,71,-1
 753 613 l 1,72,-1
 875 613 l 1,73,-1
 768 0 l 1,74,-1
 661 0 l 1,0,-1
307 411 m 0,75,76
 313 443 313 443 293 467 c 128,-1,77
 273 491 273 491 242 491 c 0,78,79
 210 491 210 491 182.5 467 c 128,-1,80
 155 443 155 443 149 411 c 0,81,82
 143 380 143 380 162.5 356.5 c 128,-1,83
 182 333 182 333 215 333 c 0,84,85
 245 333 245 333 273 356.5 c 128,-1,86
 301 380 301 380 307 411 c 0,75,76
319 192 m 1,87,88
 311 193 311 193 298 194 c 128,-1,89
 285 195 285 195 273 195 c 0,90,91
 239 195 239 195 211.5 178 c 128,-1,92
 184 161 184 161 178 126 c 0,93,94
 172 95 172 95 189.5 76.5 c 128,-1,95
 207 58 207 58 233 58 c 0,96,97
 258 58 258 58 279.5 74 c 128,-1,98
 301 90 301 90 307 124 c 2,99,-1
 319 192 l 1,87,88
EndSplineSet
EndChar
StartChar: uni0E07
Encoding: 3591 3591 218
Width: 671
VWidth: 1533
Flags: W
HStem: 0 61<356 483> 339 55<429.551 518.802> 569 55<453.723 565.683>
Fore
293 0 m 1,0,1
 285 46 285 46 263.5 101 c 128,-1,2
 242 156 242 156 211.5 207.5 c 128,-1,3
 181 259 181 259 142.5 301 c 128,-1,4
 104 343 104 343 63 365 c 1,5,-1
 190 438 l 1,6,7
 224 417 224 417 253 375 c 128,-1,8
 282 333 282 333 303.5 280 c 128,-1,9
 325 227 325 227 339 169.5 c 128,-1,10
 353 112 353 112 356 61 c 1,11,-1
 483 61 l 1,12,-1
 534 351 l 1,13,14
 501 339 501 339 472 339 c 256,15,16
 443 339 443 339 419.5 350.5 c 128,-1,17
 396 362 396 362 379.5 381 c 128,-1,18
 363 400 363 400 357 426 c 128,-1,19
 351 452 351 452 356 481 c 0,20,21
 366 540 366 540 414.5 582 c 128,-1,22
 463 624 463 624 535 624 c 0,23,24
 613 624 613 624 650.5 579.5 c 128,-1,25
 688 535 688 535 675 457 c 2,26,-1
 595 0 l 1,27,-1
 293 0 l 1,0,1
586 481 m 0,28,29
 592 517 592 517 570.5 543 c 128,-1,30
 549 569 549 569 514 569 c 256,31,32
 478 569 478 569 447.5 543 c 128,-1,33
 417 517 417 517 411 481 c 0,34,35
 403 446 403 446 425.5 420 c 128,-1,36
 448 394 448 394 483 394 c 256,37,38
 518 394 518 394 548 420 c 128,-1,39
 578 446 578 446 586 481 c 0,28,29
EndSplineSet
EndChar
StartChar: uni0E08
Encoding: 3592 3592 219
Width: 699
VWidth: 1533
Flags: W
HStem: 0 21G<481.622 611> 144 51<268.619 383.656> 370 53<309.867 405.881> 570 54<361.003 535.603>
Fore
705 385 m 0,0,1
 698 343 698 343 685 295 c 128,-1,2
 672 247 672 247 656.5 195.5 c 128,-1,3
 641 144 641 144 628 93.5 c 128,-1,4
 615 43 615 43 607 0 c 1,5,-1
 486 0 l 1,6,-1
 442 201 l 1,7,8
 417 176 417 176 385 160 c 128,-1,9
 353 144 353 144 313 144 c 0,10,11
 248 144 248 144 215 185.5 c 128,-1,12
 182 227 182 227 193 284 c 0,13,14
 198 311 198 311 213 336.5 c 128,-1,15
 228 362 228 362 250.5 381 c 128,-1,16
 273 400 273 400 301.5 411.5 c 128,-1,17
 330 423 330 423 362 423 c 0,18,19
 411 423 411 423 444.5 398 c 128,-1,20
 478 373 478 373 491 316 c 2,21,-1
 523 153 l 1,22,23
 532 201 532 201 554 274.5 c 128,-1,24
 576 348 576 348 590 426 c 0,25,26
 601 488 601 488 562 529 c 128,-1,27
 523 570 523 570 435 570 c 0,28,29
 396 570 396 570 357.5 558.5 c 128,-1,30
 319 547 319 547 287 523.5 c 128,-1,31
 255 500 255 500 232.5 465.5 c 128,-1,32
 210 431 210 431 201 385 c 1,33,-1
 67 385 l 1,34,35
 86 448 86 448 123.5 493 c 128,-1,36
 161 538 161 538 211.5 567 c 128,-1,37
 262 596 262 596 322 610 c 128,-1,38
 382 624 382 624 445 624 c 0,39,40
 589 624 589 624 657 559.5 c 128,-1,41
 725 495 725 495 705 385 c 0,0,1
425 282 m 256,42,43
 431 317 431 317 410 343.5 c 128,-1,44
 389 370 389 370 353 370 c 256,45,46
 316 370 316 370 286 343.5 c 128,-1,47
 256 317 256 317 250 282 c 256,48,49
 244 247 244 247 264.5 221 c 128,-1,50
 285 195 285 195 322 195 c 256,51,52
 359 195 359 195 389 221 c 128,-1,53
 419 247 419 247 425 282 c 256,42,43
EndSplineSet
EndChar
StartChar: uni0E09
Encoding: 3593 3593 220
Width: 797
VWidth: 1533
Flags: W
HStem: -12 56<560.561 655.157> 106 55<117.644 206.064> 336 55<141.522 254.374> 570 54<376.538 608.126>
VStem: 716 67<87.4622 132 132 172.234>
Fore
783 132 m 0,0,1
 777 101 777 101 760.5 75 c 128,-1,2
 744 49 744 49 719.5 30 c 128,-1,3
 695 11 695 11 665 -0.5 c 128,-1,4
 635 -12 635 -12 603 -12 c 0,5,6
 540 -12 540 -12 501.5 29.5 c 128,-1,7
 463 71 463 71 471 129 c 1,8,9
 428 103 428 103 389.5 70.5 c 128,-1,10
 351 38 351 38 316 0 c 1,11,-1
 201 0 l 1,12,-1
 221 118 l 1,13,14
 189 106 189 106 161 106 c 0,15,16
 132 106 132 106 107.5 117.5 c 128,-1,17
 83 129 83 129 67 148 c 128,-1,18
 51 167 51 167 44.5 193 c 128,-1,19
 38 219 38 219 43 248 c 0,20,21
 54 307 54 307 102 349 c 128,-1,22
 150 391 150 391 222 391 c 0,23,24
 301 391 301 391 338.5 346.5 c 128,-1,25
 376 302 376 302 362 224 c 2,26,-1
 342 110 l 1,27,28
 408 159 408 159 486 210 c 128,-1,29
 564 261 564 261 647 285 c 1,30,-1
 673 429 l 2,31,32
 684 491 684 491 637 530.5 c 128,-1,33
 590 570 590 570 486 570 c 0,34,35
 431 570 431 570 389 558 c 128,-1,36
 347 546 347 546 316 525 c 128,-1,37
 285 504 285 504 264.5 477.5 c 128,-1,38
 244 451 244 451 233 422 c 1,39,-1
 107 422 l 1,40,41
 149 514 149 514 244.5 569 c 128,-1,42
 340 624 340 624 495 624 c 0,43,44
 572 624 572 624 631 611 c 128,-1,45
 690 598 690 598 729 570.5 c 128,-1,46
 768 543 768 543 784 501.5 c 128,-1,47
 800 460 800 460 791 405 c 2,48,-1
 768 278 l 1,49,50
 754 273 754 273 743.5 268.5 c 128,-1,51
 733 264 733 264 719 256 c 1,52,53
 751 244 751 244 771 208 c 128,-1,54
 791 172 791 172 783 132 c 0,0,1
716 132 m 0,55,56
 722 167 722 167 700.5 193 c 128,-1,57
 679 219 679 219 644 219 c 256,58,59
 609 219 609 219 578 193 c 128,-1,60
 547 167 547 167 541 132 c 0,61,62
 534 97 534 97 556 70.5 c 128,-1,63
 578 44 578 44 613 44 c 256,64,65
 649 44 649 44 678.5 70.5 c 128,-1,66
 708 97 708 97 716 132 c 0,55,56
273 248 m 0,67,68
 281 284 281 284 258.5 310 c 128,-1,69
 236 336 236 336 201 336 c 256,70,71
 166 336 166 336 136 310 c 128,-1,72
 106 284 106 284 98 248 c 0,73,74
 92 213 92 213 113.5 187 c 128,-1,75
 135 161 135 161 170 161 c 256,76,77
 205 161 205 161 236 187 c 128,-1,78
 267 213 267 213 273 248 c 0,67,68
EndSplineSet
EndChar
StartChar: uni0E0A
Encoding: 3594 3594 221
Width: 745
VWidth: 1533
Flags: W
HStem: 0 61<276 557> 281 55<171.369 263.253> 501 46<233.786 284.971> 572 52<264.116 385.307>
Fore
806 613 m 1,0,1
 800 595 800 595 785 574 c 128,-1,2
 770 553 770 553 748.5 535 c 128,-1,3
 727 517 727 517 701 501.5 c 128,-1,4
 675 486 675 486 647 477 c 1,5,6
 696 465 696 465 717.5 433.5 c 128,-1,7
 739 402 739 402 731 365 c 2,8,-1
 668 0 l 1,9,-1
 143 0 l 1,10,-1
 178 209 l 1,11,12
 209 215 209 215 250 230 c 128,-1,13
 291 245 291 245 330.5 271 c 128,-1,14
 370 297 370 297 400.5 333.5 c 128,-1,15
 431 370 431 370 438 417 c 0,16,17
 443 443 443 443 440 470.5 c 128,-1,18
 437 498 437 498 421.5 520.5 c 128,-1,19
 406 543 406 543 380 557.5 c 128,-1,20
 354 572 354 572 313 572 c 0,21,22
 287 572 287 572 264 563.5 c 128,-1,23
 241 555 241 555 233 547 c 1,24,25
 274 550 274 550 303.5 539.5 c 128,-1,26
 333 529 333 529 350.5 510 c 128,-1,27
 368 491 368 491 375 464.5 c 128,-1,28
 382 438 382 438 377 411 c 0,29,30
 373 385 373 385 357.5 361 c 128,-1,31
 342 337 342 337 319.5 319.5 c 128,-1,32
 297 302 297 302 269.5 291.5 c 128,-1,33
 242 281 242 281 213 281 c 256,34,35
 184 281 184 281 158 291 c 128,-1,36
 132 301 132 301 113.5 320 c 128,-1,37
 95 339 95 339 86 368 c 128,-1,38
 77 397 77 397 84 437 c 0,39,40
 90 475 90 475 113 509.5 c 128,-1,41
 136 544 136 544 170 569.5 c 128,-1,42
 204 595 204 595 246 609.5 c 128,-1,43
 288 624 288 624 336 624 c 256,44,45
 383 624 383 624 421.5 608.5 c 128,-1,46
 460 593 460 593 485.5 566.5 c 128,-1,47
 511 540 511 540 520.5 504 c 128,-1,48
 530 468 530 468 524 426 c 0,49,50
 515 374 515 374 488 335.5 c 128,-1,51
 461 297 461 297 427.5 270.5 c 128,-1,52
 394 244 394 244 359.5 227 c 128,-1,53
 325 210 325 210 301 202 c 1,54,-1
 276 61 l 1,55,-1
 557 61 l 1,56,-1
 610 370 l 2,57,58
 616 400 616 400 605.5 429 c 128,-1,59
 595 458 595 458 547 474 c 1,60,61
 576 484 576 484 597.5 502 c 128,-1,62
 619 520 619 520 633 540 c 128,-1,63
 647 560 647 560 654.5 579 c 128,-1,64
 662 598 662 598 665 613 c 1,65,-1
 806 613 l 1,0,1
320 419 m 256,66,67
 327 452 327 452 306 476.5 c 128,-1,68
 285 501 285 501 251 501 c 256,69,70
 218 501 218 501 189.5 476.5 c 128,-1,71
 161 452 161 452 155 419 c 256,72,73
 149 385 149 385 169 360.5 c 128,-1,74
 189 336 189 336 222 336 c 256,75,76
 256 336 256 336 285 360.5 c 128,-1,77
 314 385 314 385 320 419 c 256,66,67
EndSplineSet
EndChar
StartChar: uni0E0B
Encoding: 3595 3595 222
Width: 791
VWidth: 1533
Flags: W
HStem: 0 61<307 603> 267 55<161.07 253.438> 488 42<210.852 219.453 219.547 275.971> 572 52<232.201 335.387 398.914 465.869>
Fore
852 613 m 1,0,1
 846 595 846 595 831 574 c 128,-1,2
 816 553 816 553 794.5 535 c 128,-1,3
 773 517 773 517 747 501.5 c 128,-1,4
 721 486 721 486 693 477 c 1,5,6
 742 465 742 465 763.5 433.5 c 128,-1,7
 785 402 785 402 777 365 c 2,8,-1
 714 0 l 1,9,-1
 173 0 l 1,10,-1
 212 225 l 1,11,12
 239 235 239 235 281.5 252.5 c 128,-1,13
 324 270 324 270 365 296 c 128,-1,14
 406 322 406 322 438.5 359.5 c 128,-1,15
 471 397 471 397 480 446 c 0,16,17
 489 503 489 503 473.5 536.5 c 128,-1,18
 458 570 458 570 428 570 c 0,19,20
 411 570 411 570 392.5 558.5 c 128,-1,21
 374 547 374 547 359 527 c 1,22,23
 351 544 351 544 332.5 558 c 128,-1,24
 314 572 314 572 284 572 c 0,25,26
 259 572 259 572 239 559.5 c 128,-1,27
 219 547 219 547 210 530 c 1,28,29
 212 530 212 530 215 532 c 1,30,31
 218 532 218 532 219.5 533 c 128,-1,32
 221 534 221 534 224 534 c 0,33,34
 265 537 265 537 294.5 526 c 128,-1,35
 324 515 324 515 341.5 496 c 128,-1,36
 359 477 359 477 365 451 c 128,-1,37
 371 425 371 425 366 397 c 0,38,39
 362 371 362 371 346.5 347.5 c 128,-1,40
 331 324 331 324 309 306 c 128,-1,41
 287 288 287 288 259.5 277.5 c 128,-1,42
 232 267 232 267 202 267 c 256,43,44
 173 267 173 267 147 277 c 128,-1,45
 121 287 121 287 102.5 307 c 128,-1,46
 84 327 84 327 75.5 358 c 128,-1,47
 67 389 67 389 75 432 c 0,48,49
 83 474 83 474 103 509 c 128,-1,50
 123 544 123 544 151 569.5 c 128,-1,51
 179 595 179 595 213 609.5 c 128,-1,52
 247 624 247 624 284 624 c 0,53,54
 319 624 319 624 339.5 611 c 128,-1,55
 360 598 360 598 366 583 c 1,56,57
 380 599 380 599 404 611.5 c 128,-1,58
 428 624 428 624 457 624 c 0,59,60
 523 624 523 624 559 578 c 128,-1,61
 595 532 595 532 580 448 c 0,62,63
 570 396 570 396 541 357.5 c 128,-1,64
 512 319 512 319 475 291.5 c 128,-1,65
 438 264 438 264 400 246 c 128,-1,66
 362 228 362 228 334 218 c 1,67,-1
 307 61 l 1,68,-1
 603 61 l 1,69,-1
 656 370 l 2,70,71
 662 400 662 400 651.5 429 c 128,-1,72
 641 458 641 458 593 474 c 1,73,74
 622 484 622 484 643.5 502 c 128,-1,75
 665 520 665 520 679 540 c 128,-1,76
 693 560 693 560 700.5 579 c 128,-1,77
 708 598 708 598 711 613 c 1,78,-1
 852 613 l 1,0,1
310 405 m 256,79,80
 316 438 316 438 296 463 c 128,-1,81
 276 488 276 488 242 488 c 256,82,83
 209 488 209 488 179.5 463 c 128,-1,84
 150 438 150 438 144 405 c 256,85,86
 138 371 138 371 158.5 346.5 c 128,-1,87
 179 322 179 322 213 322 c 256,88,89
 247 322 247 322 275.5 346.5 c 128,-1,90
 304 371 304 371 310 405 c 256,79,80
EndSplineSet
EndChar
StartChar: uni0E0C
Encoding: 3596 3596 223
Width: 1091
VWidth: 1533
Flags: W
HStem: -8 56<216.223 320.946 580.096 674.287> 222 56<260.656 348.587> 570 54<381.662 556.449>
Fore
902 0 m 1,0,1
 891 14 891 14 877 31 c 128,-1,2
 863 48 863 48 848.5 64.5 c 128,-1,3
 834 81 834 81 819.5 96.5 c 128,-1,4
 805 112 805 112 794 123 c 1,5,6
 790 97 790 97 773.5 72.5 c 128,-1,7
 757 48 757 48 734 29.5 c 128,-1,8
 711 11 711 11 682 0 c 128,-1,9
 653 -11 653 -11 622 -11 c 256,10,11
 592 -11 592 -11 566.5 0 c 128,-1,12
 541 11 541 11 524 30 c 128,-1,13
 507 49 507 49 500.5 74.5 c 128,-1,14
 494 100 494 100 498 127 c 0,15,16
 506 166 506 166 529.5 200.5 c 128,-1,17
 553 235 553 235 593 251 c 1,18,19
 590 253 590 253 588 254.5 c 128,-1,20
 586 256 586 256 583 258 c 256,21,22
 580 259 580 259 578 261 c 1,23,-1
 609 429 l 2,24,25
 621 497 621 497 578 533.5 c 128,-1,26
 535 570 535 570 457 570 c 0,27,28
 417 570 417 570 382 560 c 128,-1,29
 347 550 347 550 318.5 530.5 c 128,-1,30
 290 511 290 511 270.5 483 c 128,-1,31
 251 455 251 455 245 422 c 1,32,-1
 342 422 l 1,33,-1
 334 382 l 1,34,35
 262 356 262 356 248 282 c 2,36,-1
 245 265 l 1,37,38
 278 278 278 278 305 278 c 0,39,40
 334 278 334 278 358 266.5 c 128,-1,41
 382 255 382 255 398 235.5 c 128,-1,42
 414 216 414 216 421 190 c 128,-1,43
 428 164 428 164 423 135 c 0,44,45
 412 77 412 77 364 34.5 c 128,-1,46
 316 -8 316 -8 244 -8 c 0,47,48
 166 -8 166 -8 128 36.5 c 128,-1,49
 90 81 90 81 104 159 c 2,50,-1
 123 268 l 2,51,52
 126 285 126 285 136.5 303.5 c 128,-1,53
 147 322 147 322 164 337.5 c 128,-1,54
 181 353 181 353 203 364.5 c 128,-1,55
 225 376 225 376 253 380 c 1,56,-1
 107 380 l 1,57,58
 123 440 123 440 157.5 486 c 128,-1,59
 192 532 192 532 240 562.5 c 128,-1,60
 288 593 288 593 345.5 608.5 c 128,-1,61
 403 624 403 624 466 624 c 0,62,63
 523 624 523 624 575 611.5 c 128,-1,64
 627 599 627 599 664.5 574 c 128,-1,65
 702 549 702 549 719.5 509 c 128,-1,66
 737 469 737 469 728 414 c 2,67,-1
 704 274 l 1,68,69
 731 262 731 262 760.5 241.5 c 128,-1,70
 790 221 790 221 818 196.5 c 128,-1,71
 846 172 846 172 870 147.5 c 128,-1,72
 894 123 894 123 909 103 c 1,73,-1
 1000 613 l 1,74,-1
 1122 613 l 1,75,-1
 1015 0 l 1,76,-1
 902 0 l 1,0,1
736 132 m 0,77,78
 742 167 742 167 720.5 193 c 128,-1,79
 699 219 699 219 664 219 c 256,80,81
 629 219 629 219 598 193 c 128,-1,82
 567 167 567 167 561 132 c 0,83,84
 553 97 553 97 575.5 70.5 c 128,-1,85
 598 44 598 44 633 44 c 256,86,87
 668 44 668 44 698 70.5 c 128,-1,88
 728 97 728 97 736 132 c 0,77,78
368 135 m 256,89,90
 374 170 374 170 352.5 196 c 128,-1,91
 331 222 331 222 296 222 c 256,92,93
 261 222 261 222 230 196 c 128,-1,94
 199 170 199 170 193 135 c 256,95,96
 187 100 187 100 208.5 74 c 128,-1,97
 230 48 230 48 265 48 c 256,98,99
 301 48 301 48 331.5 74 c 128,-1,100
 362 100 362 100 368 135 c 256,89,90
EndSplineSet
EndChar
StartChar: uni0E0D
Encoding: 3597 3597 224
Width: 1085
VWidth: 1533
Flags: W
HStem: -311 58<559.544 674.924> -78 47<583.822 699.44> -8 56<213.306 326.067> 0 61<667 895> 222 56<260.656 348.587> 570 54<381.662 556.449>
Fore
534 0 m 1,0,-1
 609 429 l 2,1,2
 621 497 621 497 578 533.5 c 128,-1,3
 535 570 535 570 457 570 c 0,4,5
 417 570 417 570 382 560 c 128,-1,6
 347 550 347 550 318.5 530.5 c 128,-1,7
 290 511 290 511 270.5 483 c 128,-1,8
 251 455 251 455 245 422 c 1,9,-1
 342 422 l 1,10,-1
 334 382 l 1,11,12
 262 356 262 356 248 282 c 2,13,-1
 245 265 l 1,14,15
 278 278 278 278 305 278 c 0,16,17
 334 278 334 278 358 266.5 c 128,-1,18
 382 255 382 255 398 235.5 c 128,-1,19
 414 216 414 216 421 190 c 128,-1,20
 428 164 428 164 423 135 c 0,21,22
 412 77 412 77 364 34.5 c 128,-1,23
 316 -8 316 -8 244 -8 c 0,24,25
 166 -8 166 -8 128 36.5 c 128,-1,26
 90 81 90 81 104 159 c 2,27,-1
 123 268 l 2,28,29
 126 285 126 285 136.5 303.5 c 128,-1,30
 147 322 147 322 164 337.5 c 128,-1,31
 181 353 181 353 203 364.5 c 128,-1,32
 225 376 225 376 253 380 c 1,33,-1
 107 380 l 1,34,35
 123 440 123 440 157.5 486 c 128,-1,36
 192 532 192 532 240 562.5 c 128,-1,37
 288 593 288 593 345.5 608.5 c 128,-1,38
 403 624 403 624 466 624 c 0,39,40
 523 624 523 624 575 611.5 c 128,-1,41
 627 599 627 599 664.5 574 c 128,-1,42
 702 549 702 549 719.5 509 c 128,-1,43
 737 469 737 469 728 414 c 2,44,-1
 667 61 l 1,45,-1
 895 61 l 1,46,-1
 992 613 l 1,47,-1
 1115 613 l 1,48,-1
 1007 0 l 1,49,-1
 534 0 l 1,0,-1
989 -49 m 1,50,51
 977 -98 977 -98 949 -145 c 128,-1,52
 921 -192 921 -192 879 -228.5 c 128,-1,53
 837 -265 837 -265 781 -288 c 128,-1,54
 725 -311 725 -311 658 -311 c 0,55,56
 567 -311 567 -311 522 -273 c 128,-1,57
 477 -235 477 -235 489 -166 c 0,58,59
 500 -109 500 -109 548 -70 c 128,-1,60
 596 -31 596 -31 655 -31 c 0,61,62
 684 -31 684 -31 707.5 -41 c 128,-1,63
 731 -51 731 -51 747.5 -68.5 c 128,-1,64
 764 -86 764 -86 770.5 -110.5 c 128,-1,65
 777 -135 777 -135 771 -166 c 0,66,67
 768 -190 768 -190 758 -214 c 128,-1,68
 748 -238 748 -238 733 -251 c 1,69,70
 765 -244 765 -244 790.5 -221.5 c 128,-1,71
 816 -199 816 -199 833.5 -170 c 128,-1,72
 851 -141 851 -141 861 -109 c 128,-1,73
 871 -77 871 -77 871 -49 c 1,74,-1
 989 -49 l 1,50,51
716 -166 m 0,75,76
 724 -129 724 -129 703 -103.5 c 128,-1,77
 682 -78 682 -78 645 -78 c 256,78,79
 609 -78 609 -78 579 -103.5 c 128,-1,80
 549 -129 549 -129 541 -166 c 0,81,82
 535 -202 535 -202 555.5 -227.5 c 128,-1,83
 576 -253 576 -253 613 -253 c 256,84,85
 650 -253 650 -253 680 -227.5 c 128,-1,86
 710 -202 710 -202 716 -166 c 0,75,76
368 135 m 256,87,88
 374 170 374 170 352.5 196 c 128,-1,89
 331 222 331 222 296 222 c 256,90,91
 261 222 261 222 230 196 c 128,-1,92
 199 170 199 170 193 135 c 256,93,94
 187 100 187 100 208.5 74 c 128,-1,95
 230 48 230 48 265 48 c 256,96,97
 301 48 301 48 331.5 74 c 128,-1,98
 362 100 362 100 368 135 c 256,87,88
EndSplineSet
Substitution2: "Single Substitution lookup 22 subtable" uni0E0D.alt1
Substitution2: "Single Substitution lookup 22 subtable" uni0E0D.alt1
EndChar
StartChar: uni0E0E
Encoding: 3598 3598 225
Width: 873
VWidth: 1533
Flags: W
HStem: -270 57<203.76 297.584> -115 66<566.938 600.906> -103 62<226.983 389.977> -8 56<112.379 225.775> 222 52<154.554 239.931> 570 54<520.588 695.961>
Fore
619 -261 m 1,0,1
 575 -230 575 -230 540.5 -208.5 c 128,-1,2
 506 -187 506 -187 471 -167 c 1,3,4
 449 -179 449 -179 424.5 -197 c 128,-1,5
 400 -215 400 -215 370 -231 c 128,-1,6
 340 -247 340 -247 303.5 -258.5 c 128,-1,7
 267 -270 267 -270 221 -270 c 0,8,9
 150 -270 150 -270 105.5 -241.5 c 128,-1,10
 61 -213 61 -213 71 -164 c 0,11,12
 75 -135 75 -135 95 -112.5 c 128,-1,13
 115 -90 115 -90 145 -74 c 128,-1,14
 175 -58 175 -58 211.5 -49.5 c 128,-1,15
 248 -41 248 -41 287 -41 c 0,16,17
 357 -41 357 -41 399.5 -57.5 c 128,-1,18
 442 -74 442 -74 475 -90 c 1,19,20
 501 -77 501 -77 535 -67 c 128,-1,21
 569 -57 569 -57 621 -49 c 1,22,-1
 609 -115 l 1,23,24
 593 -117 593 -117 575 -121.5 c 128,-1,25
 557 -126 557 -126 546 -129 c 1,26,27
 561 -136 561 -136 577 -145.5 c 128,-1,28
 593 -155 593 -155 607 -164 c 2,29,-1
 639 -186 l 1,30,-1
 748 429 l 2,31,32
 760 497 760 497 717.5 533.5 c 128,-1,33
 675 570 675 570 596 570 c 0,34,35
 557 570 557 570 521.5 560 c 128,-1,36
 486 550 486 550 457.5 530.5 c 128,-1,37
 429 511 429 511 410 483 c 128,-1,38
 391 455 391 455 385 422 c 1,39,-1
 481 422 l 1,40,-1
 474 382 l 1,41,42
 402 356 402 356 388 282 c 2,43,-1
 366 163 l 2,44,45
 353 84 353 84 297.5 38 c 128,-1,46
 242 -8 242 -8 164 -8 c 0,47,48
 95 -8 95 -8 61.5 35 c 128,-1,49
 28 78 28 78 38 135 c 0,50,51
 43 164 43 164 59 189.5 c 128,-1,52
 75 215 75 215 98 234 c 128,-1,53
 121 253 121 253 148.5 263.5 c 128,-1,54
 176 274 176 274 205 274 c 0,55,56
 221 274 221 274 235.5 272.5 c 128,-1,57
 250 271 250 271 262 267 c 1,58,-1
 265 281 l 2,59,60
 271 314 271 314 306.5 341 c 128,-1,61
 342 368 342 368 392 380 c 1,62,-1
 247 380 l 1,63,64
 262 440 262 440 296.5 486 c 128,-1,65
 331 532 331 532 379.5 562.5 c 128,-1,66
 428 593 428 593 485.5 608.5 c 128,-1,67
 543 624 543 624 606 624 c 0,68,69
 662 624 662 624 714.5 611.5 c 128,-1,70
 767 599 767 599 804.5 574 c 128,-1,71
 842 549 842 549 859.5 509 c 128,-1,72
 877 469 877 469 868 414 c 2,73,-1
 750 -261 l 1,74,-1
 619 -261 l 1,0,1
268 135 m 256,75,76
 274 170 274 170 253 196 c 128,-1,77
 232 222 232 222 196 222 c 256,78,79
 161 222 161 222 130.5 196 c 128,-1,80
 100 170 100 170 94 135 c 256,81,82
 87 100 87 100 108.5 74 c 128,-1,83
 130 48 130 48 166 48 c 256,84,85
 201 48 201 48 231.5 74 c 128,-1,86
 262 100 262 100 268 135 c 256,75,76
411 -135 m 1,87,88
 351 -103 351 -103 281 -103 c 0,89,90
 244 -103 244 -103 215 -119.5 c 128,-1,91
 186 -136 186 -136 181 -163 c 256,92,93
 176 -189 176 -189 198.5 -201 c 128,-1,94
 221 -213 221 -213 247 -213 c 0,95,96
 290 -213 290 -213 330.5 -189.5 c 128,-1,97
 371 -166 371 -166 411 -135 c 1,87,88
EndSplineSet
Substitution2: "Single Substitution lookup 22 subtable" uni0E0E.alt1
Substitution2: "Single Substitution lookup 22 subtable" uni0E0E.alt1
EndChar
StartChar: uni0E0F
Encoding: 3599 3599 226
Width: 873
VWidth: 1533
Flags: W
HStem: -279 60<84.521 218.3> -104 60<126.233 237.472 418.922 446> -8 56<112.379 225.775> 222 52<154.554 239.931> 570 54<520.588 695.961>
Fore
624 -261 m 1,0,-1
 541 -172 l 1,1,-1
 417 -273 l 1,2,3
 394 -242 394 -242 375 -220.5 c 128,-1,4
 356 -199 356 -199 336 -179 c 1,5,6
 291 -215 291 -215 240.5 -247 c 128,-1,7
 190 -279 190 -279 120 -279 c 0,8,9
 92 -279 92 -279 65 -272 c 128,-1,10
 38 -265 38 -265 18 -251.5 c 128,-1,11
 -2 -238 -2 -238 -11 -217 c 128,-1,12
 -20 -196 -20 -196 -15 -167 c 0,13,14
 -9 -135 -9 -135 11 -112 c 128,-1,15
 31 -89 31 -89 59 -73.5 c 128,-1,16
 87 -58 87 -58 121 -51 c 128,-1,17
 155 -44 155 -44 187 -44 c 0,18,19
 236 -44 236 -44 274.5 -57.5 c 128,-1,20
 313 -71 313 -71 348 -92 c 1,21,22
 368 -78 368 -78 392.5 -64.5 c 128,-1,23
 417 -51 417 -51 458 -43 c 1,24,-1
 446 -110 l 1,25,26
 432 -113 432 -113 418.5 -119.5 c 128,-1,27
 405 -126 405 -126 397 -130 c 1,28,29
 408 -141 408 -141 420 -153.5 c 128,-1,30
 432 -166 432 -166 440 -175 c 1,31,-1
 557 -86 l 1,32,-1
 642 -173 l 1,33,-1
 748 429 l 2,34,35
 760 497 760 497 717.5 533.5 c 128,-1,36
 675 570 675 570 596 570 c 0,37,38
 557 570 557 570 521.5 560 c 128,-1,39
 486 550 486 550 457.5 530.5 c 128,-1,40
 429 511 429 511 410 483 c 128,-1,41
 391 455 391 455 385 422 c 1,42,-1
 481 422 l 1,43,-1
 474 382 l 1,44,45
 402 356 402 356 388 282 c 2,46,-1
 366 163 l 2,47,48
 353 84 353 84 297.5 38 c 128,-1,49
 242 -8 242 -8 164 -8 c 0,50,51
 95 -8 95 -8 61.5 35 c 128,-1,52
 28 78 28 78 38 135 c 0,53,54
 43 164 43 164 59 189.5 c 128,-1,55
 75 215 75 215 98 234 c 128,-1,56
 121 253 121 253 148.5 263.5 c 128,-1,57
 176 274 176 274 205 274 c 0,58,59
 221 274 221 274 235.5 272.5 c 128,-1,60
 250 271 250 271 262 267 c 1,61,-1
 265 281 l 2,62,63
 271 314 271 314 306.5 341 c 128,-1,64
 342 368 342 368 392 380 c 1,65,-1
 247 380 l 1,66,67
 262 440 262 440 296.5 486 c 128,-1,68
 331 532 331 532 379.5 562.5 c 128,-1,69
 428 593 428 593 485.5 608.5 c 128,-1,70
 543 624 543 624 606 624 c 0,71,72
 662 624 662 624 714.5 611.5 c 128,-1,73
 767 599 767 599 804.5 574 c 128,-1,74
 842 549 842 549 859.5 509 c 128,-1,75
 877 469 877 469 868 414 c 2,76,-1
 750 -261 l 1,77,-1
 624 -261 l 1,0,-1
268 135 m 256,78,79
 274 170 274 170 253 196 c 128,-1,80
 232 222 232 222 196 222 c 256,81,82
 161 222 161 222 130.5 196 c 128,-1,83
 100 170 100 170 94 135 c 256,84,85
 87 100 87 100 108.5 74 c 128,-1,86
 130 48 130 48 166 48 c 256,87,88
 201 48 201 48 231.5 74 c 128,-1,89
 262 100 262 100 268 135 c 256,78,79
293 -144 m 1,90,91
 262 -123 262 -123 235.5 -113.5 c 128,-1,92
 209 -104 209 -104 175 -104 c 256,93,94
 141 -104 141 -104 110.5 -120 c 128,-1,95
 80 -136 80 -136 74 -167 c 0,96,97
 69 -193 69 -193 89 -206 c 128,-1,98
 109 -219 109 -219 140 -219 c 0,99,100
 184 -219 184 -219 218.5 -197.5 c 128,-1,101
 253 -176 253 -176 293 -144 c 1,90,91
EndSplineSet
Substitution2: "Single Substitution lookup 22 subtable" uni0E0F.alt1
Substitution2: "Single Substitution lookup 22 subtable" uni0E0F.alt1
EndChar
StartChar: uni0E10
Encoding: 3600 3600 227
Width: 665
VWidth: 1533
Flags: W
HStem: -262 80<400.897 491.462> -253 46<3.13635 60.1565> -121 46<5.60907 103.587> -75 44<427.726 505.484> 0 21G<447.064 573> 95 45<180.836 260.805> 333 44<243.539 326.925> 397 49<230 546> 498 59<508.182 574.859> 558 63<293.446 385.765>
Fore
737 613 m 1,0,1
 718 553 718 553 670 525.5 c 128,-1,2
 622 498 622 498 564 498 c 0,3,4
 529 498 529 498 505 507.5 c 128,-1,5
 481 517 481 517 459.5 528.5 c 128,-1,6
 438 540 438 540 416 549 c 128,-1,7
 394 558 394 558 365 558 c 0,8,9
 313 558 313 558 275.5 523 c 128,-1,10
 238 488 238 488 230 446 c 1,11,-1
 681 446 l 1,12,13
 672 386 672 386 655.5 328 c 128,-1,14
 639 270 639 270 622.5 214 c 128,-1,15
 606 158 606 158 591 104.5 c 128,-1,16
 576 51 576 51 570 0 c 1,17,-1
 455 0 l 1,18,-1
 380 189 l 1,19,20
 368 164 368 164 349.5 146.5 c 128,-1,21
 331 129 331 129 309.5 117.5 c 128,-1,22
 288 106 288 106 266 100.5 c 128,-1,23
 244 95 244 95 225 95 c 0,24,25
 163 95 163 95 127.5 136.5 c 128,-1,26
 92 178 92 178 103 236 c 0,27,28
 107 265 107 265 122.5 290.5 c 128,-1,29
 138 316 138 316 162 335 c 128,-1,30
 186 354 186 354 215 365.5 c 128,-1,31
 244 377 244 377 276 377 c 0,32,33
 320 377 320 377 356 358 c 128,-1,34
 392 339 392 339 414 285 c 2,35,-1
 475 126 l 1,36,37
 477 152 477 152 486 185 c 128,-1,38
 495 218 495 218 506.5 253 c 128,-1,39
 518 288 518 288 529 325 c 128,-1,40
 540 362 540 362 546 397 c 1,41,-1
 77 397 l 1,42,43
 97 507 97 507 166.5 564 c 128,-1,44
 236 621 236 621 328 621 c 0,45,46
 374 621 374 621 402.5 611 c 128,-1,47
 431 601 431 601 451.5 588.5 c 128,-1,48
 472 576 472 576 489.5 566.5 c 128,-1,49
 507 557 507 557 530 557 c 0,50,51
 552 557 552 557 572 572 c 128,-1,52
 592 587 592 587 596 613 c 1,53,-1
 737 613 l 1,0,1
573 -140 m 0,54,55
 564 -193 564 -193 513.5 -227.5 c 128,-1,56
 463 -262 463 -262 402 -262 c 0,57,58
 357 -262 357 -262 323.5 -247.5 c 128,-1,59
 290 -233 290 -233 268 -213 c 1,60,61
 262 -221 262 -221 255 -228 c 128,-1,62
 248 -235 248 -235 242 -241 c 0,63,64
 235 -247 235 -247 227 -255 c 1,65,-1
 175 -255 l 1,66,67
 169 -238 169 -238 164 -228 c 128,-1,68
 159 -218 159 -218 155 -209 c 1,69,70
 127 -228 127 -228 91 -240.5 c 128,-1,71
 55 -253 55 -253 23 -253 c 0,72,73
 -23 -253 -23 -253 -56 -230 c 128,-1,74
 -89 -207 -89 -207 -81 -164 c 0,75,76
 -75 -126 -75 -126 -34.5 -100.5 c 128,-1,77
 6 -75 6 -75 57 -75 c 0,78,79
 90 -75 90 -75 121 -86.5 c 128,-1,80
 152 -98 152 -98 169 -117 c 1,81,82
 181 -101 181 -101 191 -85 c 128,-1,83
 201 -69 201 -69 209 -51 c 1,84,-1
 276 -51 l 1,85,86
 264 -81 264 -81 244 -113.5 c 128,-1,87
 224 -146 224 -146 207 -163 c 1,88,-1
 221 -190 l 1,89,90
 228 -182 228 -182 244.5 -166 c 128,-1,91
 261 -150 261 -150 276 -133 c 1,92,93
 288 -159 288 -159 318 -182 c 128,-1,94
 348 -205 348 -205 385 -210 c 1,95,96
 359 -198 359 -198 345 -175 c 128,-1,97
 331 -152 331 -152 336 -126 c 0,98,99
 339 -106 339 -106 351 -89 c 128,-1,100
 363 -72 363 -72 381.5 -59 c 128,-1,101
 400 -46 400 -46 423 -38.5 c 128,-1,102
 446 -31 446 -31 471 -31 c 0,103,104
 520 -31 520 -31 551.5 -60 c 128,-1,105
 583 -89 583 -89 573 -140 c 0,54,55
351 236 m 0,106,107
 357 274 357 274 334 303.5 c 128,-1,108
 311 333 311 333 271 333 c 0,109,110
 251 333 251 333 232 325 c 128,-1,111
 213 317 213 317 197.5 303.5 c 128,-1,112
 182 290 182 290 171.5 272.5 c 128,-1,113
 161 255 161 255 158 236 c 0,114,115
 150 198 150 198 174 169 c 128,-1,116
 198 140 198 140 238 140 c 0,117,118
 258 140 258 140 277 147.5 c 128,-1,119
 296 155 296 155 311.5 168.5 c 128,-1,120
 327 182 327 182 337.5 200 c 128,-1,121
 348 218 348 218 351 236 c 0,106,107
515 -129 m 0,122,123
 518 -106 518 -106 503.5 -90.5 c 128,-1,124
 489 -75 489 -75 463 -75 c 256,125,126
 437 -75 437 -75 416.5 -90.5 c 128,-1,127
 396 -106 396 -106 392 -129 c 128,-1,128
 388 -152 388 -152 403.5 -167 c 128,-1,129
 419 -182 419 -182 445 -182 c 256,130,131
 471 -182 471 -182 491 -167 c 128,-1,132
 511 -152 511 -152 515 -129 c 0,122,123
130 -164 m 1,133,134
 117 -146 117 -146 97.5 -133.5 c 128,-1,135
 78 -121 78 -121 51 -121 c 0,136,137
 29 -121 29 -121 10.5 -133.5 c 128,-1,138
 -8 -146 -8 -146 -11 -164 c 0,139,140
 -15 -186 -15 -186 0 -196.5 c 128,-1,141
 15 -207 15 -207 38 -207 c 0,142,143
 63 -207 63 -207 86 -194.5 c 128,-1,144
 109 -182 109 -182 130 -164 c 1,133,134
EndSplineSet
Substitution2: "Single Substitution lookup 22 subtable" uni0E10.alt1
Substitution2: "Single Substitution lookup 22 subtable" uni0E10.alt1
EndChar
StartChar: uni0E11
Encoding: 3601 3601 228
Width: 910
VWidth: 1533
Flags: W
HStem: 0 21G<262 392.825 711 837.547> 282 52<156.892 245.816> 492 40<204.322 213.453 213.547 266.246> 573 53<238.702 335.387 412.779 494.604>
Fore
711 0 m 1,0,-1
 800 504 l 1,1,-1
 376 0 l 1,2,-1
 262 0 l 1,3,-1
 305 251 l 2,4,5
 311 285 311 285 335 307.5 c 128,-1,6
 359 330 359 330 385.5 353 c 128,-1,7
 412 376 412 376 436.5 405 c 128,-1,8
 461 434 461 434 471 483 c 0,9,10
 478 520 478 520 466 545 c 128,-1,11
 454 570 454 570 428 572 c 0,12,13
 392 572 392 572 359 529 c 1,14,15
 351 546 351 546 332.5 559.5 c 128,-1,16
 314 573 314 573 284 573 c 0,17,18
 259 573 259 573 236 561 c 128,-1,19
 213 549 213 549 204 532 c 1,20,21
 205 532 205 532 209 534 c 1,22,23
 212 534 212 534 213.5 534.5 c 128,-1,24
 215 535 215 535 218 535 c 0,25,26
 256 538 256 538 283.5 528 c 128,-1,27
 311 518 311 518 328 499.5 c 128,-1,28
 345 481 345 481 351 456.5 c 128,-1,29
 357 432 357 432 353 406 c 256,30,31
 348 380 348 380 333.5 358 c 128,-1,32
 319 336 319 336 297.5 319 c 128,-1,33
 276 302 276 302 250.5 292 c 128,-1,34
 225 282 225 282 198 282 c 256,35,36
 170 282 170 282 145 291.5 c 128,-1,37
 120 301 120 301 102 320 c 128,-1,38
 84 339 84 339 76.5 369.5 c 128,-1,39
 69 400 69 400 77 442 c 0,40,41
 83 480 83 480 103 513.5 c 128,-1,42
 123 547 123 547 151 572.5 c 128,-1,43
 179 598 179 598 213 612 c 128,-1,44
 247 626 247 626 284 626 c 0,45,46
 319 626 319 626 339.5 612.5 c 128,-1,47
 360 599 360 599 366 584 c 1,48,49
 380 601 380 601 407.5 613.5 c 128,-1,50
 435 626 435 626 466 626 c 0,51,52
 526 626 526 626 562.5 592 c 128,-1,53
 599 558 599 558 586 484 c 0,54,55
 580 448 580 448 557.5 425.5 c 128,-1,56
 535 403 535 403 509.5 384 c 128,-1,57
 484 365 484 365 463 344.5 c 128,-1,58
 442 324 442 324 435 288 c 2,59,-1
 406 127 l 1,60,-1
 822 621 l 1,61,62
 880 621 880 621 907.5 598 c 128,-1,63
 935 575 935 575 928 530 c 2,64,-1
 834 0 l 1,65,-1
 711 0 l 1,0,-1
299 412 m 0,66,67
 305 445 305 445 285 468.5 c 128,-1,68
 265 492 265 492 235 492 c 0,69,70
 202 492 202 492 174.5 468.5 c 128,-1,71
 147 445 147 445 141 412 c 0,72,73
 135 382 135 382 155 358 c 128,-1,74
 175 334 175 334 207 334 c 0,75,76
 238 334 238 334 265.5 358 c 128,-1,77
 293 382 293 382 299 412 c 0,66,67
EndSplineSet
EndChar
StartChar: uni0E12
Encoding: 3602 3602 229
Width: 1117
VWidth: 1533
Flags: W
HStem: -11 55<606.337 700.673> 202 53<365.304 429.984> 429 52<406.991 501.132> 570 56<326.365 433.177 535.346 632.033>
Fore
928 0 m 1,0,1
 917 14 917 14 903 31 c 128,-1,2
 889 48 889 48 874.5 64.5 c 128,-1,3
 860 81 860 81 845.5 96.5 c 128,-1,4
 831 112 831 112 820 123 c 1,5,6
 816 97 816 97 799.5 72.5 c 128,-1,7
 783 48 783 48 760 29.5 c 128,-1,8
 737 11 737 11 708 0 c 128,-1,9
 679 -11 679 -11 649 -11 c 256,10,11
 618 -11 618 -11 592.5 0 c 128,-1,12
 567 11 567 11 550.5 30 c 128,-1,13
 534 49 534 49 527 74.5 c 128,-1,14
 520 100 520 100 524 127 c 0,15,16
 532 166 532 166 556 200.5 c 128,-1,17
 580 235 580 235 619 251 c 1,18,19
 616 253 616 253 614 254.5 c 128,-1,20
 612 256 612 256 609 258 c 256,21,22
 606 259 606 259 604 261 c 1,23,-1
 641 461 l 2,24,25
 649 512 649 512 636.5 541 c 128,-1,26
 624 570 624 570 584 570 c 0,27,28
 553 570 553 570 532 555 c 128,-1,29
 511 540 511 540 494 518 c 1,30,-1
 449 518 l 1,31,32
 443 544 443 544 430 557 c 128,-1,33
 417 570 417 570 391 570 c 0,34,35
 337 570 337 570 303.5 524 c 128,-1,36
 270 478 270 478 258 415 c 0,37,38
 244 337 244 337 239.5 250.5 c 128,-1,39
 235 164 235 164 216 72 c 1,40,41
 274 92 274 92 335.5 129.5 c 128,-1,42
 397 167 397 167 437 207 c 1,43,44
 431 205 431 205 424 203.5 c 128,-1,45
 417 202 417 202 409 202 c 0,46,47
 345 202 345 202 312 243.5 c 128,-1,48
 279 285 279 285 290 343 c 0,49,50
 294 371 294 371 310.5 396.5 c 128,-1,51
 327 422 327 422 349 441 c 128,-1,52
 371 460 371 460 399.5 470.5 c 128,-1,53
 428 481 428 481 458 481 c 0,54,55
 520 481 520 481 556.5 443 c 128,-1,56
 593 405 593 405 583 343 c 0,57,58
 575 302 575 302 548 255.5 c 128,-1,59
 521 209 521 209 473 163 c 128,-1,60
 425 117 425 117 354.5 74.5 c 128,-1,61
 284 32 284 32 190 0 c 1,62,-1
 78 0 l 1,63,64
 94 64 94 64 100.5 115.5 c 128,-1,65
 107 167 107 167 111 212.5 c 128,-1,66
 115 258 115 258 118 300.5 c 128,-1,67
 121 343 121 343 129 389 c 0,68,69
 136 432 136 432 156 474.5 c 128,-1,70
 176 517 176 517 208.5 550.5 c 128,-1,71
 241 584 241 584 284 605 c 128,-1,72
 327 626 327 626 379 626 c 0,73,74
 423 626 423 626 449 609.5 c 128,-1,75
 475 593 475 593 484 567 c 1,76,77
 504 589 504 589 537 607.5 c 128,-1,78
 570 626 570 626 615 626 c 0,79,80
 693 626 693 626 734.5 580.5 c 128,-1,81
 776 535 776 535 760 449 c 2,82,-1
 730 274 l 1,83,84
 757 262 757 262 786.5 241.5 c 128,-1,85
 816 221 816 221 844 196.5 c 128,-1,86
 872 172 872 172 896 147.5 c 128,-1,87
 920 123 920 123 935 103 c 1,88,-1
 1026 613 l 1,89,-1
 1148 613 l 1,90,-1
 1041 0 l 1,91,-1
 928 0 l 1,0,1
762 132 m 0,92,93
 768 167 768 167 746.5 193 c 128,-1,94
 725 219 725 219 690 219 c 256,95,96
 655 219 655 219 624 193 c 128,-1,97
 593 167 593 167 587 132 c 0,98,99
 580 97 580 97 602 70.5 c 128,-1,100
 624 44 624 44 659 44 c 256,101,102
 695 44 695 44 724.5 70.5 c 128,-1,103
 754 97 754 97 762 132 c 0,92,93
521 342 m 0,104,105
 527 377 527 377 505.5 403 c 128,-1,106
 484 429 484 429 449 429 c 256,107,108
 414 429 414 429 383.5 403 c 128,-1,109
 353 377 353 377 347 342 c 0,110,111
 339 307 339 307 361 281 c 128,-1,112
 383 255 383 255 419 255 c 256,113,114
 454 255 454 255 484 281 c 128,-1,115
 514 307 514 307 521 342 c 0,104,105
EndSplineSet
EndChar
StartChar: uni0E13
Encoding: 3603 3603 230
Width: 1091
VWidth: 1533
Flags: W
HStem: -8 56<216.223 320.946 853.183 947.839> 222 56<260.656 348.587> 570 54<381.662 556.449>
VStem: 1009 69<87.8926 132 132 172.234>
Fore
1078 132 m 0,0,1
 1072 101 1072 101 1055 75 c 128,-1,2
 1038 49 1038 49 1013.5 30 c 128,-1,3
 989 11 989 11 958.5 -0.5 c 128,-1,4
 928 -12 928 -12 895 -12 c 0,5,6
 833 -12 833 -12 795 27 c 128,-1,7
 757 66 757 66 765 124 c 1,8,9
 756 118 756 118 740.5 103.5 c 128,-1,10
 725 89 725 89 709 71.5 c 128,-1,11
 693 54 693 54 678.5 34.5 c 128,-1,12
 664 15 664 15 658 0 c 1,13,-1
 534 0 l 1,14,-1
 609 429 l 2,15,16
 621 497 621 497 578 533.5 c 128,-1,17
 535 570 535 570 457 570 c 0,18,19
 417 570 417 570 382 560 c 128,-1,20
 347 550 347 550 318.5 530.5 c 128,-1,21
 290 511 290 511 270.5 483 c 128,-1,22
 251 455 251 455 245 422 c 1,23,-1
 342 422 l 1,24,-1
 334 382 l 1,25,26
 262 356 262 356 248 282 c 2,27,-1
 245 265 l 1,28,29
 278 278 278 278 305 278 c 0,30,31
 334 278 334 278 358 266.5 c 128,-1,32
 382 255 382 255 398 235.5 c 128,-1,33
 414 216 414 216 421 190 c 128,-1,34
 428 164 428 164 423 135 c 0,35,36
 412 77 412 77 364 34.5 c 128,-1,37
 316 -8 316 -8 244 -8 c 0,38,39
 166 -8 166 -8 128 36.5 c 128,-1,40
 90 81 90 81 104 159 c 2,41,-1
 123 268 l 2,42,43
 126 285 126 285 136.5 303.5 c 128,-1,44
 147 322 147 322 164 337.5 c 128,-1,45
 181 353 181 353 203 364.5 c 128,-1,46
 225 376 225 376 253 380 c 1,47,-1
 107 380 l 1,48,49
 123 440 123 440 157.5 486 c 128,-1,50
 192 532 192 532 240 562.5 c 128,-1,51
 288 593 288 593 345.5 608.5 c 128,-1,52
 403 624 403 624 466 624 c 0,53,54
 523 624 523 624 575 611.5 c 128,-1,55
 627 599 627 599 664.5 574 c 128,-1,56
 702 549 702 549 719.5 509 c 128,-1,57
 737 469 737 469 728 414 c 2,58,-1
 675 107 l 1,59,60
 698 133 698 133 726 160 c 128,-1,61
 754 187 754 187 787 211 c 128,-1,62
 820 235 820 235 857.5 254.5 c 128,-1,63
 895 274 895 274 940 285 c 1,64,-1
 998 613 l 1,65,-1
 1121 613 l 1,66,-1
 1061 278 l 1,67,68
 1046 273 1046 273 1036 268.5 c 128,-1,69
 1026 264 1026 264 1012 256 c 1,70,71
 1046 244 1046 244 1066 208 c 128,-1,72
 1086 172 1086 172 1078 132 c 0,0,1
1009 132 m 0,73,74
 1015 167 1015 167 993.5 193 c 128,-1,75
 972 219 972 219 937 219 c 256,76,77
 902 219 902 219 871 193 c 128,-1,78
 840 167 840 167 834 132 c 0,79,80
 826 97 826 97 848.5 70.5 c 128,-1,81
 871 44 871 44 906 44 c 256,82,83
 941 44 941 44 971 70.5 c 128,-1,84
 1001 97 1001 97 1009 132 c 0,73,74
368 135 m 256,85,86
 374 170 374 170 352.5 196 c 128,-1,87
 331 222 331 222 296 222 c 256,88,89
 261 222 261 222 230 196 c 128,-1,90
 199 170 199 170 193 135 c 256,91,92
 187 100 187 100 208.5 74 c 128,-1,93
 230 48 230 48 265 48 c 256,94,95
 301 48 301 48 331.5 74 c 128,-1,96
 362 100 362 100 368 135 c 256,85,86
EndSplineSet
EndChar
StartChar: uni0E14
Encoding: 3604 3604 231
Width: 758
VWidth: 1533
Flags: W
HStem: 0 21G<78 229 560 685.506> 212 52<359.299 430.41> 438 53<400.991 495.132> 570 54<403.989 576.266>
Fore
560 0 m 1,0,-1
 635 428 l 2,1,2
 645 491 645 491 601.5 530.5 c 128,-1,3
 558 570 558 570 478 570 c 0,4,5
 437 570 437 570 400 558.5 c 128,-1,6
 363 547 363 547 333.5 525.5 c 128,-1,7
 304 504 304 504 283 474.5 c 128,-1,8
 262 445 262 445 256 406 c 0,9,10
 248 362 248 362 245 322 c 128,-1,11
 242 282 242 282 238.5 243 c 128,-1,12
 235 204 235 204 230 162.5 c 128,-1,13
 225 121 225 121 215 75 c 1,14,15
 244 86 244 86 275.5 101.5 c 128,-1,16
 307 117 307 117 336.5 136 c 128,-1,17
 366 155 366 155 393 175.5 c 128,-1,18
 420 196 420 196 440 218 c 1,19,20
 432 215 432 215 422 213.5 c 128,-1,21
 412 212 412 212 403 212 c 0,22,23
 339 212 339 212 306 253 c 128,-1,24
 273 294 273 294 284 353 c 0,25,26
 288 380 288 380 304 405.5 c 128,-1,27
 320 431 320 431 342.5 450 c 128,-1,28
 365 469 365 469 393.5 480 c 128,-1,29
 422 491 422 491 452 491 c 0,30,31
 514 491 514 491 550.5 452.5 c 128,-1,32
 587 414 587 414 576 353 c 0,33,34
 569 311 569 311 541.5 263 c 128,-1,35
 514 215 514 215 465.5 166.5 c 128,-1,36
 417 118 417 118 346.5 75 c 128,-1,37
 276 32 276 32 182 0 c 1,38,-1
 78 0 l 1,39,40
 94 64 94 64 100.5 115.5 c 128,-1,41
 107 167 107 167 111 212.5 c 128,-1,42
 115 258 115 258 118 300.5 c 128,-1,43
 121 343 121 343 129 389 c 0,44,45
 140 446 140 446 174.5 490 c 128,-1,46
 209 534 209 534 258.5 563.5 c 128,-1,47
 308 593 308 593 368 608.5 c 128,-1,48
 428 624 428 624 488 624 c 0,49,50
 549 624 549 624 602 611 c 128,-1,51
 655 598 655 598 691.5 571 c 128,-1,52
 728 544 728 544 746 502.5 c 128,-1,53
 764 461 764 461 753 405 c 2,54,-1
 682 0 l 1,55,-1
 560 0 l 1,0,-1
515 351 m 0,56,57
 521 386 521 386 499.5 412 c 128,-1,58
 478 438 478 438 443 438 c 256,59,60
 408 438 408 438 377.5 412 c 128,-1,61
 347 386 347 386 340 351 c 128,-1,62
 333 316 333 316 355 290 c 128,-1,63
 377 264 377 264 412 264 c 256,64,65
 448 264 448 264 477.5 290 c 128,-1,66
 507 316 507 316 515 351 c 0,56,57
EndSplineSet
EndChar
StartChar: uni0E15
Encoding: 3605 3605 232
Width: 758
VWidth: 1533
Flags: W
HStem: 0 21G<78 237 560 685.474> 202 53<365.304 429.984> 429 52<406.991 501.132> 570 56<326.365 433.177 535.346 632.033>
Fore
560 0 m 1,0,-1
 641 461 l 2,1,2
 649 512 649 512 636.5 541 c 128,-1,3
 624 570 624 570 584 570 c 0,4,5
 553 570 553 570 532 555 c 128,-1,6
 511 540 511 540 494 518 c 1,7,-1
 449 518 l 1,8,9
 443 544 443 544 430 557 c 128,-1,10
 417 570 417 570 391 570 c 0,11,12
 337 570 337 570 303.5 524 c 128,-1,13
 270 478 270 478 258 415 c 0,14,15
 244 337 244 337 239.5 250.5 c 128,-1,16
 235 164 235 164 216 72 c 1,17,18
 274 92 274 92 335.5 129.5 c 128,-1,19
 397 167 397 167 437 207 c 1,20,21
 431 205 431 205 424 203.5 c 128,-1,22
 417 202 417 202 409 202 c 0,23,24
 345 202 345 202 312 243.5 c 128,-1,25
 279 285 279 285 290 343 c 0,26,27
 294 371 294 371 310.5 396.5 c 128,-1,28
 327 422 327 422 349 441 c 128,-1,29
 371 460 371 460 399.5 470.5 c 128,-1,30
 428 481 428 481 458 481 c 0,31,32
 520 481 520 481 556.5 443 c 128,-1,33
 593 405 593 405 583 343 c 0,34,35
 575 302 575 302 548 255.5 c 128,-1,36
 521 209 521 209 473 163 c 128,-1,37
 425 117 425 117 354.5 74.5 c 128,-1,38
 284 32 284 32 190 0 c 1,39,-1
 78 0 l 1,40,41
 94 64 94 64 100.5 115.5 c 128,-1,42
 107 167 107 167 111 212.5 c 128,-1,43
 115 258 115 258 118 300.5 c 128,-1,44
 121 343 121 343 129 389 c 0,45,46
 136 432 136 432 156 474.5 c 128,-1,47
 176 517 176 517 208.5 550.5 c 128,-1,48
 241 584 241 584 284 605 c 128,-1,49
 327 626 327 626 379 626 c 0,50,51
 423 626 423 626 449 609.5 c 128,-1,52
 475 593 475 593 484 567 c 1,53,54
 504 589 504 589 537 607.5 c 128,-1,55
 570 626 570 626 615 626 c 0,56,57
 693 626 693 626 734.5 580.5 c 128,-1,58
 776 535 776 535 760 449 c 2,59,-1
 682 0 l 1,60,-1
 560 0 l 1,0,-1
521 342 m 0,61,62
 527 377 527 377 505.5 403 c 128,-1,63
 484 429 484 429 449 429 c 256,64,65
 414 429 414 429 383.5 403 c 128,-1,66
 353 377 353 377 347 342 c 0,67,68
 339 307 339 307 361 281 c 128,-1,69
 383 255 383 255 419 255 c 256,70,71
 454 255 454 255 484 281 c 128,-1,72
 514 307 514 307 521 342 c 0,61,62
EndSplineSet
EndChar
StartChar: uni0E16
Encoding: 3606 3606 233
Width: 732
VWidth: 1533
Flags: W
HStem: -8 56<213.306 326.067> 222 56<260.656 348.587> 570 54<381.662 556.449>
Fore
534 0 m 1,0,-1
 609 429 l 2,1,2
 621 497 621 497 578 533.5 c 128,-1,3
 535 570 535 570 457 570 c 0,4,5
 417 570 417 570 382 560 c 128,-1,6
 347 550 347 550 318.5 530.5 c 128,-1,7
 290 511 290 511 270.5 483 c 128,-1,8
 251 455 251 455 245 422 c 1,9,-1
 342 422 l 1,10,-1
 334 382 l 1,11,12
 262 356 262 356 248 282 c 2,13,-1
 245 265 l 1,14,15
 278 278 278 278 305 278 c 0,16,17
 334 278 334 278 358 266.5 c 128,-1,18
 382 255 382 255 398 235.5 c 128,-1,19
 414 216 414 216 421 190 c 128,-1,20
 428 164 428 164 423 135 c 0,21,22
 412 77 412 77 364 34.5 c 128,-1,23
 316 -8 316 -8 244 -8 c 0,24,25
 166 -8 166 -8 128 36.5 c 128,-1,26
 90 81 90 81 104 159 c 2,27,-1
 123 268 l 2,28,29
 126 285 126 285 136.5 303.5 c 128,-1,30
 147 322 147 322 164 337.5 c 128,-1,31
 181 353 181 353 203 364.5 c 128,-1,32
 225 376 225 376 253 380 c 1,33,-1
 107 380 l 1,34,35
 123 440 123 440 157.5 486 c 128,-1,36
 192 532 192 532 240 562.5 c 128,-1,37
 288 593 288 593 345.5 608.5 c 128,-1,38
 403 624 403 624 466 624 c 0,39,40
 523 624 523 624 575 611.5 c 128,-1,41
 627 599 627 599 664.5 574 c 128,-1,42
 702 549 702 549 719.5 509 c 128,-1,43
 737 469 737 469 728 414 c 2,44,-1
 656 0 l 1,45,-1
 534 0 l 1,0,-1
368 135 m 256,46,47
 374 170 374 170 352.5 196 c 128,-1,48
 331 222 331 222 296 222 c 256,49,50
 261 222 261 222 230 196 c 128,-1,51
 199 170 199 170 193 135 c 256,52,53
 187 100 187 100 208.5 74 c 128,-1,54
 230 48 230 48 265 48 c 256,55,56
 301 48 301 48 331.5 74 c 128,-1,57
 362 100 362 100 368 135 c 256,46,47
EndSplineSet
EndChar
StartChar: uni0E17
Encoding: 3607 3607 234
Width: 826
VWidth: 1533
Flags: W
HStem: 0 21G<216 354.111 627 753.509> 339 55<173.551 262.802> 569 55<197.723 309.683>
Fore
627 0 m 1,0,-1
 713 495 l 1,1,-1
 339 0 l 1,2,-1
 216 0 l 1,3,-1
 278 351 l 1,4,5
 245 339 245 339 216 339 c 256,6,7
 187 339 187 339 163.5 350.5 c 128,-1,8
 140 362 140 362 123.5 381 c 128,-1,9
 107 400 107 400 101 426 c 128,-1,10
 95 452 95 452 100 481 c 0,11,12
 110 540 110 540 158.5 582 c 128,-1,13
 207 624 207 624 279 624 c 0,14,15
 357 624 357 624 394.5 579.5 c 128,-1,16
 432 535 432 535 419 457 c 2,17,-1
 360 123 l 1,18,-1
 737 621 l 1,19,20
 796 621 796 621 823.5 598 c 128,-1,21
 851 575 851 575 843 530 c 2,22,-1
 750 0 l 1,23,-1
 627 0 l 1,0,-1
330 481 m 0,24,25
 336 517 336 517 314.5 543 c 128,-1,26
 293 569 293 569 258 569 c 256,27,28
 222 569 222 569 191.5 543 c 128,-1,29
 161 517 161 517 155 481 c 0,30,31
 147 446 147 446 169.5 420 c 128,-1,32
 192 394 192 394 227 394 c 256,33,34
 262 394 262 394 292 420 c 128,-1,35
 322 446 322 446 330 481 c 0,24,25
EndSplineSet
EndChar
